{"glyphs":{"0":{"ha":849,"x_min":88,"x_max":763,"o":"m 425 -18 q 244 51 319 -18 q 128 251 168 121 q 88 564 88 382 q 128 868 88 740 q 244 1064 168 996 q 425 1132 319 1132 q 607 1064 531 1132 q 723 869 683 996 q 763 564 763 742 q 723 251 763 382 q 607 51 683 121 q 425 -18 531 -18 m 425 67 q 611 198 544 67 q 678 564 678 329 q 611 919 678 792 q 425 1046 544 1046 q 239 918 306 1046 q 172 564 172 790 q 239 198 172 329 q 425 67 306 67 z "},"1":{"ha":849,"x_min":174,"x_max":536,"o":"m 536 25 q 524 -4 536 8 q 493 -17 511 -17 q 463 -4 475 -17 q 450 25 450 8 l 450 982 l 244 799 q 217 788 233 788 q 186 800 199 788 q 174 831 174 813 q 189 863 174 850 l 471 1114 q 500 1128 485 1128 q 526 1117 515 1128 q 536 1086 536 1106 l 536 25 z "},"2":{"ha":849,"x_min":94,"x_max":754,"o":"m 713 85 q 742 72 729 85 q 754 43 754 60 q 742 13 754 25 q 714 0 731 0 l 144 0 q 108 12 121 0 q 94 46 94 24 q 131 206 94 118 q 242 372 168 293 q 438 547 322 461 q 408 546 428 546 q 258 585 328 546 q 145 690 188 624 q 103 832 103 756 q 144 990 103 919 q 258 1099 185 1060 q 425 1139 331 1139 q 589 1099 517 1139 q 701 988 661 1058 q 740 829 740 918 q 715 709 740 763 q 642 611 689 656 q 519 511 596 567 q 300 314 390 415 q 186 85 199 201 l 713 85 m 188 832 q 221 728 188 776 q 310 651 254 681 q 426 622 365 622 q 533 648 482 622 q 626 726 585 674 q 656 829 656 778 q 592 991 656 928 q 425 1054 528 1054 q 253 992 318 1054 q 188 832 188 929 z "},"3":{"ha":849,"x_min":67,"x_max":772,"o":"m 465 707 q 694 564 617 654 q 772 335 772 474 q 724 160 772 240 q 593 31 675 79 q 414 -17 511 -17 q 79 111 207 -17 q 67 142 67 126 q 79 172 67 160 q 110 185 92 185 q 139 174 125 185 q 261 95 196 121 q 414 69 326 69 q 551 106 488 69 q 651 203 614 142 q 688 335 688 264 q 619 524 688 450 q 414 640 550 597 l 313 507 q 278 488 299 488 q 247 500 260 488 q 235 531 235 513 q 243 556 235 544 l 610 1035 l 203 1035 q 172 1047 185 1035 q 160 1078 160 1060 q 172 1108 160 1096 q 203 1119 185 1119 l 700 1119 q 730 1110 718 1119 q 742 1088 742 1101 q 731 1056 742 1068 l 465 707 z "},"4":{"ha":849,"x_min":96,"x_max":779,"o":"m 738 406 q 767 394 754 406 q 779 364 779 382 q 767 333 779 346 q 738 321 754 321 l 615 321 l 615 31 q 603 0 615 13 q 574 -12 590 -12 q 543 0 556 -12 q 531 31 531 13 l 531 321 l 143 321 q 108 334 121 321 q 96 369 96 347 q 157 679 96 524 q 322 954 218 835 q 547 1125 425 1074 q 564 1128 553 1128 q 593 1117 581 1128 q 606 1088 606 1106 q 599 1063 606 1074 q 582 1049 593 1053 q 389 904 479 1004 q 242 672 299 804 q 181 406 186 540 l 531 406 l 531 764 q 543 794 531 782 q 574 807 556 807 q 603 794 590 807 q 615 764 615 782 l 615 406 l 738 406 z "},"5":{"ha":849,"x_min":113,"x_max":769,"o":"m 132 60 q 113 94 113 68 q 125 124 113 111 q 156 136 138 136 q 179 128 168 136 q 278 80 222 96 q 410 64 335 64 q 542 104 479 64 q 644 210 606 144 q 683 347 683 275 q 604 553 683 479 q 397 626 525 626 q 257 606 324 626 q 238 603 243 603 q 210 615 221 603 q 200 646 200 626 l 200 1068 q 213 1103 200 1090 q 249 1117 226 1117 l 683 1117 q 714 1104 701 1117 q 726 1074 726 1092 q 714 1044 726 1057 q 683 1032 701 1032 l 286 1032 l 286 699 q 394 711 342 711 q 588 667 503 711 q 721 542 672 624 q 769 347 769 460 q 719 167 769 251 q 586 31 669 82 q 410 -21 503 -21 q 261 1 328 -21 q 132 60 194 22 z "},"6":{"ha":849,"x_min":81,"x_max":761,"o":"m 421 733 q 595 685 518 733 q 717 550 672 636 q 761 357 761 464 q 717 161 761 249 q 594 24 672 74 q 421 -25 517 -25 q 167 90 254 -25 q 81 428 81 206 q 123 797 81 638 q 249 1044 165 956 q 451 1133 332 1133 q 595 1106 529 1133 q 706 1018 661 1078 q 721 979 721 993 q 708 949 721 961 q 679 938 696 938 q 657 943 668 938 q 640 958 646 949 q 451 1049 586 1049 q 274 928 344 1049 q 178 610 203 807 q 285 701 221 669 q 421 733 350 733 m 421 61 q 551 99 493 61 q 642 204 608 136 q 675 357 675 272 q 642 506 675 440 q 551 610 608 572 q 421 647 493 647 q 296 613 356 647 q 200 521 236 578 q 164 401 164 464 l 164 396 q 230 149 164 238 q 421 61 296 61 z "},"7":{"ha":849,"x_min":110,"x_max":790,"o":"m 218 915 l 219 904 q 207 876 219 888 q 176 864 194 864 q 148 874 161 864 q 133 900 135 885 l 110 1067 l 110 1075 q 122 1106 110 1094 q 156 1118 135 1118 l 746 1118 q 778 1108 765 1118 q 790 1082 790 1097 q 785 1060 790 1076 q 638 734 697 876 q 529 412 579 592 q 461 32 479 232 q 447 5 458 15 q 418 -6 436 -6 q 387 7 399 -6 q 375 35 375 19 l 375 39 q 447 417 397 236 q 551 738 496 599 q 679 1033 607 876 l 201 1033 l 218 915 z "},"8":{"ha":849,"x_min":88,"x_max":751,"o":"m 557 624 q 704 495 657 578 q 751 306 751 413 q 708 144 751 219 q 588 24 664 69 q 421 -21 513 -21 q 251 24 328 -21 q 131 144 175 69 q 88 306 88 219 q 144 492 88 410 q 301 619 200 575 q 177 716 221 654 q 133 863 133 778 q 172 996 133 933 q 276 1096 210 1058 q 421 1133 342 1133 q 576 1099 507 1133 q 685 1002 646 1064 q 725 863 725 940 q 685 722 725 781 q 557 624 644 663 m 219 860 q 268 733 219 782 q 433 661 317 683 l 435 661 q 585 727 532 678 q 639 860 639 776 q 610 951 639 907 q 531 1022 582 994 q 421 1049 481 1049 q 319 1022 365 1049 q 247 951 274 994 q 219 860 219 907 m 421 65 q 544 99 489 65 q 633 188 600 132 q 665 306 665 243 q 603 494 665 422 q 415 588 540 565 q 238 481 301 556 q 174 306 174 406 q 206 189 174 244 q 294 99 238 133 q 421 65 351 65 z "},"9":{"ha":849,"x_min":92,"x_max":747,"o":"m 418 1132 q 668 990 589 1132 q 747 543 747 849 q 658 128 747 276 q 407 -19 568 -19 q 263 10 335 -19 q 138 94 192 39 q 126 115 131 103 q 121 135 121 126 q 133 164 121 151 q 164 176 146 176 q 199 156 185 176 q 292 88 236 110 q 407 65 347 65 q 594 191 526 65 q 661 543 661 317 q 660 615 661 593 q 558 521 619 556 q 418 486 496 486 q 251 528 326 486 q 134 644 176 571 q 92 810 92 718 q 135 974 92 900 q 252 1090 178 1047 q 418 1132 326 1132 m 418 571 q 526 599 474 571 q 611 679 578 628 q 644 794 644 731 q 567 986 622 925 q 418 1047 513 1047 q 295 1016 350 1047 q 209 931 240 985 q 178 810 178 876 q 209 688 178 742 q 295 602 240 633 q 418 571 350 571 z "},"\u0000":{"ha":0,"x_min":0,"x_max":0,"o":""},"\r":{"ha":372,"x_min":0,"x_max":0,"o":""}," ":{"ha":463,"x_min":0,"x_max":0,"o":""},"A":{"ha":1063,"x_min":83,"x_max":979,"o":"m 976 51 q 979 39 979 47 q 967 8 979 21 q 938 -6 956 -6 q 913 2 924 -6 q 897 21 903 10 l 768 361 l 299 361 l 164 19 q 148 1 158 8 q 124 -6 138 -6 q 95 7 107 -6 q 83 36 83 19 q 86 50 83 46 l 506 1099 q 521 1120 511 1113 q 540 1128 531 1128 q 575 1097 563 1128 l 976 51 m 532 951 l 331 440 l 739 440 l 544 951 l 539 976 l 532 951 z "},"Á":{"ha":1063,"x_min":83,"x_max":979,"o":"m 976 51 q 979 39 979 47 q 967 8 979 21 q 938 -6 956 -6 q 913 2 924 -6 q 897 21 903 10 l 768 361 l 299 361 l 164 19 q 148 1 158 8 q 124 -6 138 -6 q 95 7 107 -6 q 83 36 83 19 q 86 50 83 46 l 506 1099 q 521 1120 511 1113 q 540 1128 531 1128 q 575 1097 563 1128 l 976 51 m 532 951 l 331 440 l 739 440 l 544 951 l 539 976 l 532 951 m 507 1219 q 492 1226 499 1219 q 486 1239 486 1232 q 497 1274 486 1256 l 600 1411 q 646 1436 619 1436 q 670 1426 660 1436 q 681 1400 681 1415 q 676 1381 681 1390 q 667 1367 672 1371 l 535 1232 q 507 1219 522 1219 z "},"Â":{"ha":1063,"x_min":83,"x_max":979,"o":"m 976 51 q 979 39 979 47 q 967 8 979 21 q 938 -6 956 -6 q 913 2 924 -6 q 897 21 903 10 l 768 361 l 299 361 l 164 19 q 148 1 158 8 q 124 -6 138 -6 q 95 7 107 -6 q 83 36 83 19 q 86 50 83 46 l 506 1099 q 521 1120 511 1113 q 540 1128 531 1128 q 575 1097 563 1128 l 976 51 m 532 951 l 331 440 l 739 440 l 544 951 l 539 976 l 532 951 m 685 1294 q 694 1274 694 1285 q 685 1249 694 1260 q 661 1239 675 1239 q 638 1249 650 1239 l 539 1350 l 440 1249 q 417 1239 428 1239 q 393 1249 403 1239 q 383 1274 383 1260 q 393 1294 383 1285 l 511 1419 q 539 1433 525 1433 q 567 1419 553 1433 l 685 1294 z "},"Ä":{"ha":1063,"x_min":83,"x_max":979,"o":"m 976 51 q 979 39 979 47 q 967 8 979 21 q 938 -6 956 -6 q 913 2 924 -6 q 897 21 903 10 l 768 361 l 299 361 l 164 19 q 148 1 158 8 q 124 -6 138 -6 q 95 7 107 -6 q 83 36 83 19 q 86 50 83 46 l 506 1099 q 521 1120 511 1113 q 540 1128 531 1128 q 575 1097 563 1128 l 976 51 m 532 951 l 331 440 l 739 440 l 544 951 l 539 976 l 532 951 m 424 1282 q 390 1296 404 1282 q 376 1329 376 1310 q 390 1362 376 1349 q 424 1375 404 1375 q 457 1362 443 1375 q 471 1329 471 1349 q 457 1296 471 1310 q 424 1282 443 1282 m 650 1282 q 617 1296 631 1282 q 603 1329 603 1310 q 617 1362 603 1349 q 650 1375 631 1375 q 683 1362 669 1375 q 696 1329 696 1349 q 683 1296 696 1310 q 650 1282 669 1282 z "},"À":{"ha":1063,"x_min":83,"x_max":979,"o":"m 976 51 q 979 39 979 47 q 967 8 979 21 q 938 -6 956 -6 q 913 2 924 -6 q 897 21 903 10 l 768 361 l 299 361 l 164 19 q 148 1 158 8 q 124 -6 138 -6 q 95 7 107 -6 q 83 36 83 19 q 86 50 83 46 l 506 1099 q 521 1120 511 1113 q 540 1128 531 1128 q 575 1097 563 1128 l 976 51 m 532 951 l 331 440 l 739 440 l 544 951 l 539 976 l 532 951 m 578 1240 q 550 1253 565 1240 l 418 1388 q 408 1403 413 1393 q 404 1422 404 1414 q 415 1447 404 1436 q 439 1457 425 1457 q 485 1433 465 1457 l 588 1296 q 599 1261 599 1278 q 592 1247 599 1254 q 578 1240 586 1240 z "},"Å":{"ha":1063,"x_min":83,"x_max":979,"o":"m 976 51 q 979 39 979 47 q 967 8 979 21 q 938 -6 956 -6 q 913 2 924 -6 q 897 21 903 10 l 768 361 l 299 361 l 164 19 q 148 1 158 8 q 124 -6 138 -6 q 95 7 107 -6 q 83 36 83 19 q 86 50 83 46 l 506 1099 q 521 1120 511 1113 q 540 1128 531 1128 q 575 1097 563 1128 l 976 51 m 532 951 l 331 440 l 739 440 l 544 951 l 539 976 l 532 951 m 536 1243 q 461 1274 492 1243 q 431 1349 431 1304 q 461 1424 431 1393 q 536 1454 492 1454 q 611 1424 581 1454 q 642 1349 642 1393 q 611 1274 642 1304 q 536 1243 581 1243 m 536 1290 q 578 1307 561 1290 q 594 1349 594 1324 q 578 1390 594 1374 q 536 1407 561 1407 q 494 1390 511 1407 q 478 1349 478 1374 q 494 1307 478 1324 q 536 1290 511 1290 z "},"Ã":{"ha":1063,"x_min":83,"x_max":979,"o":"m 976 51 q 979 39 979 47 q 967 8 979 21 q 938 -6 956 -6 q 913 2 924 -6 q 897 21 903 10 l 768 361 l 299 361 l 164 19 q 148 1 158 8 q 124 -6 138 -6 q 95 7 107 -6 q 83 36 83 19 q 86 50 83 46 l 506 1099 q 521 1120 511 1113 q 540 1128 531 1128 q 575 1097 563 1128 l 976 51 m 532 951 l 331 440 l 739 440 l 544 951 l 539 976 l 532 951 m 651 1396 q 676 1411 660 1411 q 704 1388 704 1411 q 696 1367 704 1375 q 604 1301 656 1301 q 572 1310 586 1301 q 539 1335 557 1318 q 513 1356 524 1349 q 490 1363 503 1363 q 463 1351 476 1363 q 443 1322 449 1340 q 433 1311 440 1315 q 417 1307 425 1307 q 397 1315 404 1307 q 390 1336 390 1322 q 392 1347 390 1343 q 433 1399 407 1379 q 489 1418 460 1418 q 560 1385 524 1418 q 601 1357 585 1357 q 630 1367 617 1357 q 651 1396 643 1378 z "},"Æ":{"ha":1163,"x_min":64,"x_max":1097,"o":"m 1056 81 q 1085 68 1074 81 q 1097 39 1097 56 q 1085 9 1097 21 q 1056 -3 1074 -3 l 674 -3 q 640 8 651 -3 q 629 44 629 18 l 629 360 l 332 360 l 144 11 q 106 -12 131 -12 q 76 -2 88 -12 q 64 29 64 8 q 68 46 64 38 l 629 1088 q 647 1109 638 1103 q 674 1115 657 1115 l 1028 1115 q 1058 1103 1046 1115 q 1069 1074 1069 1092 q 1058 1044 1069 1057 q 1028 1032 1046 1032 l 710 1032 l 710 663 l 969 663 q 999 651 988 663 q 1011 621 1011 639 q 999 591 1011 603 q 969 579 988 579 l 710 579 l 710 81 l 1056 81 m 615 885 l 374 438 l 629 438 l 629 924 l 615 885 z "},"B":{"ha":890,"x_min":111,"x_max":835,"o":"m 610 632 q 726 567 675 614 q 806 456 778 519 q 835 328 835 393 q 790 163 835 239 q 665 41 746 86 q 478 -4 583 -4 l 160 -4 q 125 10 139 -4 q 111 43 111 24 l 111 1068 q 124 1101 111 1089 q 158 1115 136 1114 q 290 1117 206 1117 q 428 1118 374 1118 q 658 1049 574 1118 q 743 853 743 979 q 610 632 743 706 m 197 1031 l 197 661 l 431 661 q 601 707 544 661 q 657 853 657 753 q 428 1032 657 1032 l 197 1031 m 478 82 q 624 115 563 82 q 717 205 685 149 q 749 328 749 261 q 716 453 749 396 q 626 545 683 511 q 496 579 568 579 l 197 579 l 197 83 l 478 82 z "},"C":{"ha":1094,"x_min":83,"x_max":1028,"o":"m 957 189 q 986 201 968 201 q 1015 190 1003 201 q 1028 160 1028 178 q 1014 129 1028 143 q 841 23 947 61 q 626 -15 735 -15 q 349 56 472 -15 q 154 256 225 128 q 83 546 83 383 q 154 840 83 708 q 349 1045 225 971 q 626 1119 472 1119 q 1001 967 867 1119 q 1015 935 1015 951 q 1003 906 1015 918 q 972 893 990 893 q 943 906 954 893 q 806 1003 885 974 q 626 1033 726 1033 q 392 971 497 1033 q 228 797 288 908 q 169 546 169 686 q 228 299 169 407 q 392 131 288 190 q 626 71 496 71 q 824 100 736 71 q 957 189 911 129 z "},"Ç":{"ha":1094,"x_min":83,"x_max":1028,"o":"m 986 201 q 1015 190 1003 201 q 1028 160 1028 178 q 1014 129 1028 143 q 849 26 950 64 q 644 -15 747 -12 l 622 -69 l 624 -69 q 710 -91 678 -69 q 743 -150 743 -112 q 703 -224 743 -196 q 604 -251 664 -251 q 514 -233 558 -251 q 493 -206 493 -225 q 502 -186 493 -194 q 522 -178 511 -178 q 533 -179 531 -178 q 603 -192 569 -192 q 660 -181 638 -192 q 683 -153 683 -171 q 629 -124 683 -124 l 601 -126 q 576 -131 585 -131 q 559 -122 565 -131 q 553 -101 553 -112 q 557 -76 553 -93 l 581 -14 q 324 71 438 -3 q 147 268 211 144 q 83 546 83 392 q 154 840 83 708 q 349 1045 225 971 q 626 1119 472 1119 q 1001 967 867 1119 q 1015 935 1015 951 q 1003 906 1015 918 q 972 893 990 893 q 943 906 954 893 q 806 1003 885 974 q 626 1033 726 1033 q 392 971 497 1033 q 228 797 288 908 q 169 546 169 686 q 228 299 169 407 q 392 131 288 190 q 626 71 496 71 q 824 100 736 71 q 957 189 911 129 q 986 201 968 201 z "},"D":{"ha":1072,"x_min":111,"x_max":989,"o":"m 160 -3 q 124 10 138 -3 q 111 44 111 22 l 111 1067 q 124 1101 111 1089 q 160 1114 138 1114 l 399 1114 q 699 1044 564 1114 q 912 851 835 974 q 989 576 989 728 q 912 281 989 414 q 699 73 835 149 q 399 -3 564 -3 l 160 -3 m 197 83 l 399 83 q 656 147 542 83 q 837 324 771 211 q 903 576 903 436 q 838 808 903 706 q 657 969 772 911 q 399 1028 542 1028 q 254 1026 288 1028 l 197 1026 l 197 83 z "},"Ð":{"ha":1185,"x_min":58,"x_max":1101,"o":"m 511 1114 q 812 1044 676 1114 q 1024 851 947 974 q 1101 576 1101 728 q 1024 281 1101 414 q 812 73 947 149 q 511 -3 676 -3 l 272 -3 q 237 10 250 -3 q 224 44 224 22 l 224 542 l 96 542 q 69 553 81 542 q 58 579 58 564 q 69 606 58 594 q 96 617 81 617 l 224 617 l 224 1067 q 237 1101 224 1089 q 272 1114 250 1114 l 511 1114 m 511 83 q 769 147 654 83 q 949 324 883 211 q 1014 576 1014 436 q 949 808 1014 706 q 769 969 883 911 q 511 1028 654 1028 q 367 1026 400 1028 l 310 1026 l 310 617 l 443 617 q 469 606 458 617 q 481 579 481 594 q 469 553 481 564 q 443 542 458 542 l 310 542 l 310 83 l 511 83 z "},"E":{"ha":1094,"x_min":83,"x_max":1028,"o":"m 986 201 q 1015 190 1003 201 q 1028 160 1028 178 q 1014 129 1028 143 q 841 23 947 61 q 626 -15 735 -15 q 349 56 472 -15 q 154 256 225 128 q 83 546 83 383 q 154 840 83 708 q 349 1045 225 971 q 626 1119 472 1119 q 1001 967 867 1119 q 1015 935 1015 951 q 1003 906 1015 918 q 972 893 990 893 q 943 906 954 893 q 806 1003 885 974 q 626 1033 726 1033 q 410 981 508 1033 q 251 835 313 929 q 174 619 189 742 l 707 619 q 737 608 725 619 q 749 578 749 596 q 737 548 749 560 q 707 536 725 536 l 169 536 q 231 294 171 400 q 394 129 290 188 q 626 71 497 71 q 824 100 736 71 q 957 189 911 129 q 986 201 968 201 z "},"É":{"ha":1094,"x_min":83,"x_max":1028,"o":"m 986 201 q 1015 190 1003 201 q 1028 160 1028 178 q 1014 129 1028 143 q 841 23 947 61 q 626 -15 735 -15 q 349 56 472 -15 q 154 256 225 128 q 83 546 83 383 q 154 840 83 708 q 349 1045 225 971 q 626 1119 472 1119 q 1001 967 867 1119 q 1015 935 1015 951 q 1003 906 1015 918 q 972 893 990 893 q 943 906 954 893 q 806 1003 885 974 q 626 1033 726 1033 q 410 981 508 1033 q 251 835 313 929 q 174 619 189 742 l 707 619 q 737 608 725 619 q 749 578 749 596 q 737 548 749 560 q 707 536 725 536 l 169 536 q 231 294 171 400 q 394 129 290 188 q 626 71 497 71 q 824 100 736 71 q 957 189 911 129 q 986 201 968 201 m 558 1219 q 544 1226 550 1219 q 538 1239 538 1232 q 549 1274 538 1256 l 651 1411 q 697 1436 671 1436 q 722 1426 711 1436 q 732 1400 732 1415 q 728 1381 732 1390 q 718 1367 724 1371 l 586 1232 q 558 1219 574 1219 z "},"Ê":{"ha":1094,"x_min":83,"x_max":1028,"o":"m 986 201 q 1015 190 1003 201 q 1028 160 1028 178 q 1014 129 1028 143 q 841 23 947 61 q 626 -15 735 -15 q 349 56 472 -15 q 154 256 225 128 q 83 546 83 383 q 154 840 83 708 q 349 1045 225 971 q 626 1119 472 1119 q 1001 967 867 1119 q 1015 935 1015 951 q 1003 906 1015 918 q 972 893 990 893 q 943 906 954 893 q 806 1003 885 974 q 626 1033 726 1033 q 410 981 508 1033 q 251 835 313 929 q 174 619 189 742 l 707 619 q 737 608 725 619 q 749 578 749 596 q 737 548 749 560 q 707 536 725 536 l 169 536 q 231 294 171 400 q 394 129 290 188 q 626 71 497 71 q 824 100 736 71 q 957 189 911 129 q 986 201 968 201 m 767 1326 q 776 1306 776 1317 q 767 1281 776 1292 q 743 1271 757 1271 q 719 1281 732 1271 l 621 1382 l 522 1281 q 499 1271 510 1271 q 475 1281 485 1271 q 465 1306 465 1292 q 475 1326 465 1317 l 593 1451 q 621 1465 607 1465 q 649 1451 635 1465 l 767 1326 z "},"Ë":{"ha":1094,"x_min":83,"x_max":1028,"o":"m 986 201 q 1015 190 1003 201 q 1028 160 1028 178 q 1014 129 1028 143 q 841 23 947 61 q 626 -15 735 -15 q 349 56 472 -15 q 154 256 225 128 q 83 546 83 383 q 154 840 83 708 q 349 1045 225 971 q 626 1119 472 1119 q 1001 967 867 1119 q 1015 935 1015 951 q 1003 906 1015 918 q 972 893 990 893 q 943 906 954 893 q 806 1003 885 974 q 626 1033 726 1033 q 410 981 508 1033 q 251 835 313 929 q 174 619 189 742 l 707 619 q 737 608 725 619 q 749 578 749 596 q 737 548 749 560 q 707 536 725 536 l 169 536 q 231 294 171 400 q 394 129 290 188 q 626 71 497 71 q 824 100 736 71 q 957 189 911 129 q 986 201 968 201 m 488 1282 q 454 1296 468 1282 q 440 1329 440 1310 q 454 1362 440 1349 q 488 1375 468 1375 q 521 1362 507 1375 q 535 1329 535 1349 q 521 1296 535 1310 q 488 1282 507 1282 m 714 1282 q 681 1296 694 1282 q 667 1329 667 1310 q 681 1362 667 1349 q 714 1375 694 1375 q 747 1362 733 1375 q 760 1329 760 1349 q 747 1296 760 1310 q 714 1282 733 1282 z "},"È":{"ha":1094,"x_min":83,"x_max":1028,"o":"m 986 201 q 1015 190 1003 201 q 1028 160 1028 178 q 1014 129 1028 143 q 841 23 947 61 q 626 -15 735 -15 q 349 56 472 -15 q 154 256 225 128 q 83 546 83 383 q 154 840 83 708 q 349 1045 225 971 q 626 1119 472 1119 q 1001 967 867 1119 q 1015 935 1015 951 q 1003 906 1015 918 q 972 893 990 893 q 943 906 954 893 q 806 1003 885 974 q 626 1033 726 1033 q 410 981 508 1033 q 251 835 313 929 q 174 619 189 742 l 707 619 q 737 608 725 619 q 749 578 749 596 q 737 548 749 560 q 707 536 725 536 l 169 536 q 231 294 171 400 q 394 129 290 188 q 626 71 497 71 q 824 100 736 71 q 957 189 911 129 q 986 201 968 201 m 636 1240 q 608 1253 624 1240 l 476 1388 q 467 1403 471 1393 q 463 1422 463 1414 q 473 1447 463 1436 q 497 1457 483 1457 q 543 1433 524 1457 l 646 1296 q 657 1261 657 1278 q 651 1247 657 1254 q 636 1240 644 1240 z "},"F":{"ha":754,"x_min":111,"x_max":671,"o":"m 629 1113 q 658 1101 646 1113 q 671 1071 671 1089 q 658 1042 671 1054 q 629 1029 646 1029 l 194 1029 l 194 669 l 579 669 q 608 658 596 669 q 621 628 621 646 q 608 598 621 610 q 579 586 596 586 l 194 586 l 194 38 q 183 8 194 19 q 153 -4 171 -4 q 123 8 135 -4 q 111 38 111 19 l 111 1065 q 124 1100 111 1088 q 158 1113 136 1113 l 629 1113 z "},"G":{"ha":1160,"x_min":83,"x_max":1093,"o":"m 622 -29 q 347 47 469 -29 q 153 255 224 122 q 83 554 83 388 q 156 844 83 714 q 356 1048 229 974 q 639 1122 483 1122 q 854 1083 756 1122 q 1014 968 953 1043 q 1022 942 1022 958 q 1010 913 1022 925 q 981 900 999 900 q 963 905 972 900 q 950 915 954 910 q 819 1007 900 975 q 639 1039 738 1039 q 399 976 507 1039 q 231 803 292 914 q 169 554 169 692 q 228 298 169 411 q 390 121 286 185 q 622 57 493 57 q 824 93 736 57 q 961 194 913 129 q 1010 342 1010 260 q 960 472 1010 421 q 799 522 911 522 q 664 514 753 522 l 646 514 q 617 525 628 514 q 606 554 606 536 q 619 583 606 571 q 656 597 633 594 q 713 603 674 600 q 788 606 753 606 q 1018 531 943 606 q 1093 342 1093 457 q 1033 150 1093 235 q 865 18 972 65 q 622 -29 758 -29 z "},"H":{"ha":1014,"x_min":111,"x_max":903,"o":"m 860 1115 q 890 1103 878 1115 q 903 1074 903 1090 l 903 44 q 890 15 903 28 q 860 3 878 3 q 829 15 842 3 q 817 44 817 28 l 817 563 l 197 563 l 197 44 q 185 15 197 28 q 154 3 172 3 q 124 15 136 3 q 111 44 111 28 l 111 1074 q 124 1103 111 1090 q 154 1115 136 1115 q 185 1103 172 1115 q 197 1074 197 1090 l 197 646 l 817 646 l 817 1074 q 829 1103 817 1090 q 860 1115 842 1115 z "},"I":{"ha":361,"x_min":139,"x_max":222,"o":"m 222 44 q 210 15 222 28 q 181 3 199 3 q 151 15 163 3 q 139 44 139 28 l 139 1076 q 151 1106 139 1094 q 181 1118 163 1118 q 210 1106 199 1118 q 222 1076 222 1094 l 222 44 z "},"Í":{"ha":404,"x_min":142,"x_max":338,"o":"m 225 44 q 213 15 225 28 q 183 3 201 3 q 153 15 165 3 q 142 44 142 28 l 142 1076 q 153 1106 142 1094 q 183 1118 165 1118 q 213 1106 201 1118 q 225 1076 225 1094 l 225 44 m 164 1219 q 149 1226 156 1219 q 143 1239 143 1232 q 154 1274 143 1256 l 257 1411 q 303 1436 276 1436 q 327 1426 317 1436 q 338 1400 338 1415 q 333 1381 338 1390 q 324 1367 329 1371 l 192 1232 q 164 1219 179 1219 z "},"Î":{"ha":408,"x_min":49,"x_max":360,"o":"m 246 44 q 234 15 246 28 q 204 3 222 3 q 174 15 186 3 q 163 44 163 28 l 163 1076 q 174 1106 163 1094 q 204 1118 186 1118 q 234 1106 222 1118 q 246 1076 246 1094 l 246 44 m 350 1326 q 360 1306 360 1317 q 350 1281 360 1292 q 326 1271 340 1271 q 303 1281 315 1271 l 204 1382 l 106 1281 q 82 1271 93 1271 q 58 1281 68 1271 q 49 1306 49 1292 q 58 1326 49 1317 l 176 1451 q 204 1465 190 1465 q 232 1451 218 1465 l 350 1326 z "},"Ï":{"ha":451,"x_min":65,"x_max":385,"o":"m 269 44 q 258 15 269 28 q 228 3 246 3 q 198 15 210 3 q 186 44 186 28 l 186 1076 q 198 1106 186 1094 q 228 1118 210 1118 q 258 1106 246 1118 q 269 1076 269 1094 l 269 44 m 113 1282 q 79 1296 93 1282 q 65 1329 65 1310 q 79 1362 65 1349 q 113 1375 93 1375 q 146 1362 132 1375 q 160 1329 160 1349 q 146 1296 160 1310 q 113 1282 132 1282 m 339 1282 q 306 1296 319 1282 q 292 1329 292 1310 q 306 1362 292 1349 q 339 1375 319 1375 q 372 1362 358 1375 q 385 1329 385 1349 q 372 1296 385 1310 q 339 1282 358 1282 z "},"Ì":{"ha":332,"x_min":44,"x_max":240,"o":"m 240 44 q 228 15 240 28 q 199 3 217 3 q 169 15 181 3 q 157 44 157 28 l 157 1076 q 169 1106 157 1094 q 199 1118 181 1118 q 228 1106 217 1118 q 240 1076 240 1094 l 240 44 m 218 1240 q 190 1253 206 1240 l 58 1388 q 49 1403 53 1393 q 44 1422 44 1414 q 55 1447 44 1436 q 79 1457 65 1457 q 125 1433 106 1457 l 228 1296 q 239 1261 239 1278 q 233 1247 239 1254 q 218 1240 226 1240 z "},"J":{"ha":607,"x_min":-4,"x_max":496,"o":"m 38 -399 q 8 -386 21 -399 q -4 -357 -4 -374 q 6 -328 -4 -339 q 33 -315 17 -317 q 233 -239 147 -303 q 365 -70 318 -175 q 413 168 413 35 l 413 1090 q 424 1119 413 1107 q 454 1132 436 1132 q 483 1119 471 1132 q 496 1090 496 1107 l 496 168 q 439 -112 496 13 q 278 -312 382 -236 q 42 -399 175 -387 l 38 -399 z "},"K":{"ha":889,"x_min":111,"x_max":833,"o":"m 818 57 q 833 26 833 46 q 821 -3 833 8 q 792 -15 808 -15 q 764 -6 776 -15 l 194 525 l 194 36 q 183 6 194 18 q 153 -6 171 -6 q 123 6 135 -6 q 111 36 111 18 l 111 1079 q 123 1109 111 1097 q 153 1121 135 1121 q 183 1109 171 1121 q 194 1079 194 1097 l 194 642 l 754 1121 q 782 1131 767 1131 q 810 1119 799 1131 q 822 1089 822 1107 q 807 1057 822 1069 l 261 592 l 250 583 q 261 576 251 583 l 818 57 z "},"L":{"ha":642,"x_min":111,"x_max":572,"o":"m 531 99 q 560 86 549 99 q 572 57 572 74 q 560 27 572 39 q 531 15 549 15 l 158 15 q 124 28 136 15 q 111 63 111 40 l 111 1075 q 123 1105 111 1093 q 153 1117 135 1117 q 183 1105 171 1117 q 194 1075 194 1093 l 194 99 l 531 99 z "},"M":{"ha":1413,"x_min":83,"x_max":1329,"o":"m 1328 47 q 1329 38 1329 43 q 1317 6 1329 19 q 1286 -7 1304 -7 q 1260 2 1272 -7 q 1244 25 1247 11 q 1133 479 1232 79 l 1018 950 l 1014 971 l 1010 950 l 753 47 q 707 13 742 13 q 678 22 692 13 q 661 46 665 32 l 378 944 l 372 967 l 368 944 q 256 434 314 701 q 167 28 197 167 q 151 6 164 15 q 125 -3 139 -3 q 95 9 107 -3 q 83 39 83 21 l 85 49 l 324 1090 q 340 1115 326 1106 q 369 1125 353 1125 q 397 1116 385 1125 q 414 1092 410 1107 l 699 181 q 704 151 703 165 l 711 181 l 972 1100 q 990 1125 976 1115 q 1018 1135 1003 1135 q 1048 1126 1035 1135 q 1065 1101 1061 1117 l 1174 668 l 1328 47 z "},"N":{"ha":1113,"x_min":111,"x_max":1001,"o":"m 154 6 q 124 17 136 6 q 111 47 111 29 l 111 1074 q 126 1108 111 1093 q 161 1122 140 1122 q 200 1103 186 1122 l 907 167 l 915 146 l 915 1072 q 928 1102 915 1090 q 958 1114 940 1114 q 989 1102 976 1114 q 1001 1072 1001 1090 l 1001 53 q 987 19 1001 33 q 951 4 972 4 q 913 24 928 4 l 206 960 l 197 979 l 197 47 q 185 17 197 29 q 154 6 172 6 z "},"Ñ":{"ha":1113,"x_min":111,"x_max":1001,"o":"m 154 6 q 124 17 136 6 q 111 47 111 29 l 111 1074 q 126 1108 111 1093 q 161 1122 140 1122 q 200 1103 186 1122 l 907 167 l 915 146 l 915 1072 q 928 1102 915 1090 q 958 1114 940 1114 q 989 1102 976 1114 q 1001 1072 1001 1090 l 1001 53 q 987 19 1001 33 q 951 4 972 4 q 913 24 928 4 l 206 960 l 197 979 l 197 47 q 185 17 197 29 q 154 6 172 6 m 721 1354 q 746 1369 729 1369 q 774 1346 774 1369 q 765 1325 774 1333 q 674 1260 725 1260 q 641 1268 656 1260 q 608 1293 626 1276 q 583 1314 593 1307 q 560 1321 572 1321 q 532 1310 546 1321 q 513 1281 518 1299 q 502 1269 510 1274 q 486 1265 494 1265 q 467 1273 474 1265 q 460 1294 460 1281 q 461 1306 460 1301 q 503 1357 476 1338 q 558 1376 529 1376 q 629 1343 593 1376 q 671 1315 654 1315 q 699 1326 686 1315 q 721 1354 713 1336 z "},"O":{"ha":1246,"x_min":83,"x_max":1163,"o":"m 624 -31 q 348 44 471 -31 q 154 250 225 118 q 83 546 83 382 q 154 842 83 710 q 348 1048 225 974 q 624 1122 471 1122 q 899 1048 775 1122 q 1092 842 1022 974 q 1163 546 1163 710 q 1092 250 1163 382 q 899 44 1022 118 q 624 -31 775 -31 m 624 56 q 855 119 751 56 q 1017 294 958 182 q 1076 546 1076 407 q 1017 797 1076 685 q 855 973 958 910 q 624 1036 751 1036 q 392 973 496 1036 q 228 797 288 910 q 169 546 169 685 q 228 294 169 407 q 392 119 288 182 q 624 56 496 56 z "},"Ó":{"ha":1246,"x_min":83,"x_max":1163,"o":"m 624 -31 q 348 44 471 -31 q 154 250 225 118 q 83 546 83 382 q 154 842 83 710 q 348 1048 225 974 q 624 1122 471 1122 q 899 1048 775 1122 q 1092 842 1022 974 q 1163 546 1163 710 q 1092 250 1163 382 q 899 44 1022 118 q 624 -31 775 -31 m 624 56 q 855 119 751 56 q 1017 294 958 182 q 1076 546 1076 407 q 1017 797 1076 685 q 855 973 958 910 q 624 1036 751 1036 q 392 973 496 1036 q 228 797 288 910 q 169 546 169 685 q 228 294 169 407 q 392 119 288 182 q 624 56 496 56 m 604 1219 q 590 1226 596 1219 q 583 1239 583 1232 q 594 1274 583 1256 l 697 1411 q 743 1436 717 1436 q 767 1426 757 1436 q 778 1400 778 1415 q 774 1381 778 1390 q 764 1367 769 1371 l 632 1232 q 604 1219 619 1219 z "},"Ô":{"ha":1246,"x_min":83,"x_max":1163,"o":"m 624 -31 q 348 44 471 -31 q 154 250 225 118 q 83 546 83 382 q 154 842 83 710 q 348 1048 225 974 q 624 1122 471 1122 q 899 1048 775 1122 q 1092 842 1022 974 q 1163 546 1163 710 q 1092 250 1163 382 q 899 44 1022 118 q 624 -31 775 -31 m 624 56 q 855 119 751 56 q 1017 294 958 182 q 1076 546 1076 407 q 1017 797 1076 685 q 855 973 958 910 q 624 1036 751 1036 q 392 973 496 1036 q 228 797 288 910 q 169 546 169 685 q 228 294 169 407 q 392 119 288 182 q 624 56 496 56 m 769 1326 q 779 1306 779 1317 q 769 1281 779 1292 q 746 1271 760 1271 q 722 1281 735 1271 l 624 1382 l 525 1281 q 501 1271 513 1271 q 478 1281 488 1271 q 468 1306 468 1292 q 478 1326 468 1317 l 596 1451 q 624 1465 610 1465 q 651 1451 638 1465 l 769 1326 z "},"Ö":{"ha":1246,"x_min":83,"x_max":1163,"o":"m 624 -31 q 348 44 471 -31 q 154 250 225 118 q 83 546 83 382 q 154 842 83 710 q 348 1048 225 974 q 624 1122 471 1122 q 899 1048 775 1122 q 1092 842 1022 974 q 1163 546 1163 710 q 1092 250 1163 382 q 899 44 1022 118 q 624 -31 775 -31 m 624 56 q 855 119 751 56 q 1017 294 958 182 q 1076 546 1076 407 q 1017 797 1076 685 q 855 973 958 910 q 624 1036 751 1036 q 392 973 496 1036 q 228 797 288 910 q 169 546 169 685 q 228 294 169 407 q 392 119 288 182 q 624 56 496 56 m 506 1282 q 472 1296 486 1282 q 458 1329 458 1310 q 472 1362 458 1349 q 506 1375 486 1375 q 539 1362 525 1375 q 553 1329 553 1349 q 539 1296 553 1310 q 506 1282 525 1282 m 732 1282 q 699 1296 713 1282 q 685 1329 685 1310 q 699 1362 685 1349 q 732 1375 713 1375 q 765 1362 751 1375 q 778 1329 778 1349 q 765 1296 778 1310 q 732 1282 751 1282 z "},"Ò":{"ha":1246,"x_min":83,"x_max":1163,"o":"m 624 -31 q 348 44 471 -31 q 154 250 225 118 q 83 546 83 382 q 154 842 83 710 q 348 1048 225 974 q 624 1122 471 1122 q 899 1048 775 1122 q 1092 842 1022 974 q 1163 546 1163 710 q 1092 250 1163 382 q 899 44 1022 118 q 624 -31 775 -31 m 624 56 q 855 119 751 56 q 1017 294 958 182 q 1076 546 1076 407 q 1017 797 1076 685 q 855 973 958 910 q 624 1036 751 1036 q 392 973 496 1036 q 228 797 288 910 q 169 546 169 685 q 228 294 169 407 q 392 119 288 182 q 624 56 496 56 m 646 1240 q 618 1253 633 1240 l 486 1388 q 476 1403 481 1393 q 472 1422 472 1414 q 483 1447 472 1436 q 507 1457 493 1457 q 553 1433 533 1457 l 656 1296 q 667 1261 667 1278 q 660 1247 667 1254 q 646 1240 654 1240 z "},"Ø":{"ha":1238,"x_min":83,"x_max":1163,"o":"m 994 974 q 1118 785 1074 894 q 1163 546 1163 675 q 1092 250 1163 382 q 899 44 1022 118 q 624 -31 775 -31 q 307 72 444 -31 l 199 -69 q 168 -85 186 -85 q 144 -74 154 -85 q 133 -49 133 -62 q 142 -28 133 -39 l 253 118 q 128 306 172 196 q 83 546 83 417 q 154 842 83 710 q 348 1048 225 974 q 624 1122 471 1122 q 940 1019 803 1122 l 1036 1144 q 1065 1160 1049 1160 q 1089 1150 1078 1160 q 1100 1126 1100 1140 q 1093 1103 1100 1114 l 994 974 m 169 546 q 205 347 169 439 q 306 188 240 254 l 888 950 q 624 1036 774 1036 q 392 973 496 1036 q 228 797 288 910 q 169 546 169 685 m 624 56 q 855 119 751 56 q 1017 294 958 182 q 1076 546 1076 407 q 1041 744 1076 653 q 940 903 1006 836 l 360 140 q 481 77 414 99 q 624 56 549 56 z "},"Õ":{"ha":1246,"x_min":83,"x_max":1163,"o":"m 624 -31 q 348 44 471 -31 q 154 250 225 118 q 83 546 83 382 q 154 842 83 710 q 348 1048 225 974 q 624 1122 471 1122 q 899 1048 775 1122 q 1092 842 1022 974 q 1163 546 1163 710 q 1092 250 1163 382 q 899 44 1022 118 q 624 -31 775 -31 m 624 56 q 855 119 751 56 q 1017 294 958 182 q 1076 546 1076 407 q 1017 797 1076 685 q 855 973 958 910 q 624 1036 751 1036 q 392 973 496 1036 q 228 797 288 910 q 169 546 169 685 q 228 294 169 407 q 392 119 288 182 q 624 56 496 56 m 726 1396 q 751 1411 735 1411 q 779 1388 779 1411 q 771 1367 779 1375 q 679 1301 731 1301 q 647 1310 661 1301 q 614 1335 632 1318 q 588 1356 599 1349 q 565 1363 578 1363 q 538 1351 551 1363 q 518 1322 524 1340 q 508 1311 515 1315 q 492 1307 500 1307 q 472 1315 479 1307 q 465 1336 465 1322 q 467 1347 465 1343 q 508 1399 482 1379 q 564 1418 535 1418 q 635 1385 599 1418 q 676 1357 660 1357 q 705 1367 692 1357 q 726 1396 718 1378 z "},"Œ":{"ha":1333,"x_min":83,"x_max":1265,"o":"m 1224 85 q 1253 72 1242 85 q 1265 43 1265 60 q 1253 13 1265 25 q 1224 1 1242 1 l 842 1 q 808 14 821 1 q 796 49 796 26 l 796 174 q 676 25 750 78 q 503 -28 601 -28 q 288 46 383 -28 q 138 251 192 119 q 83 546 83 382 q 138 842 83 710 q 288 1049 192 974 q 503 1124 383 1124 q 674 1069 600 1124 q 796 917 749 1015 l 796 1065 q 808 1099 796 1088 q 842 1111 821 1111 l 1196 1111 q 1226 1099 1214 1111 q 1238 1069 1238 1088 q 1226 1040 1238 1051 q 1196 1028 1214 1028 l 878 1028 l 878 663 l 1138 663 q 1167 651 1156 663 q 1179 621 1179 639 q 1167 591 1179 603 q 1138 579 1156 579 l 878 579 l 878 85 l 1224 85 m 503 56 q 713 188 642 56 q 783 546 783 319 q 713 906 783 772 q 503 1040 642 1040 q 331 976 407 1040 q 210 800 254 913 q 167 546 167 688 q 210 293 167 404 q 330 119 253 182 q 503 56 407 56 z "},"P":{"ha":794,"x_min":111,"x_max":743,"o":"m 428 1118 q 660 1048 576 1118 q 743 853 743 978 q 660 648 743 722 q 429 574 576 574 l 197 574 l 197 39 q 185 10 197 22 q 154 -3 172 -3 q 124 10 136 -3 q 111 39 111 22 l 111 1068 q 124 1101 111 1089 q 158 1115 136 1114 q 290 1117 206 1117 q 428 1118 374 1118 m 431 657 q 597 708 538 657 q 657 849 657 758 q 597 983 657 935 q 428 1032 538 1032 q 310 1031 382 1032 q 197 1029 239 1031 l 197 657 l 431 657 z "},"Þ":{"ha":793,"x_min":111,"x_max":742,"o":"m 426 857 q 658 785 575 857 q 742 588 742 714 q 658 383 742 457 q 426 308 575 308 l 194 308 l 194 32 q 183 3 194 15 q 153 -10 171 -10 q 123 3 135 -10 q 111 32 111 15 l 111 1072 q 122 1106 111 1093 q 151 1119 133 1119 q 183 1106 171 1119 q 194 1072 194 1093 l 194 856 l 426 857 m 429 392 q 599 443 539 392 q 658 588 658 494 q 597 725 658 676 q 426 774 536 774 l 194 774 l 194 392 l 429 392 z "},"Q":{"ha":1246,"x_min":83,"x_max":1163,"o":"m 1117 -181 q 1142 -193 1131 -181 q 1153 -222 1153 -206 q 1141 -251 1153 -240 q 1111 -262 1129 -262 q 988 -233 1057 -262 q 847 -150 918 -203 q 632 -53 719 -53 q 411 -149 507 -53 q 381 -160 400 -160 q 352 -147 364 -160 q 340 -118 340 -135 q 344 -101 340 -110 q 354 -89 349 -93 q 479 -11 407 -36 q 273 99 363 19 q 133 293 183 178 q 83 546 83 408 q 154 842 83 710 q 348 1048 225 974 q 624 1122 471 1122 q 899 1048 775 1122 q 1092 842 1022 974 q 1163 546 1163 710 q 1111 290 1163 407 q 969 94 1060 174 q 760 -14 878 15 q 886 -83 826 -39 q 1009 -155 949 -129 q 1117 -181 1069 -181 m 169 546 q 228 294 169 407 q 392 119 288 182 q 624 56 496 56 q 855 119 751 56 q 1017 294 958 182 q 1076 546 1076 407 q 1017 797 1076 685 q 855 973 958 910 q 624 1036 751 1036 q 392 973 496 1036 q 228 797 288 910 q 169 546 169 685 z "},"R":{"ha":874,"x_min":111,"x_max":794,"o":"m 768 63 q 794 24 794 43 q 783 -6 794 6 q 753 -17 771 -17 q 731 -12 739 -17 q 624 210 650 29 q 615 301 619 240 q 608 400 610 363 q 565 500 606 460 q 465 560 524 540 q 349 579 406 579 l 194 579 l 194 36 q 183 6 194 18 q 153 -6 171 -6 q 123 6 135 -6 q 111 36 111 18 l 111 1068 q 123 1102 111 1090 q 157 1115 135 1114 q 288 1117 204 1117 q 426 1118 372 1118 q 657 1048 572 1118 q 742 853 742 978 q 681 693 742 758 q 521 608 619 628 q 692 408 682 551 q 698 308 693 371 q 707 218 703 246 q 730 117 717 153 q 768 63 743 81 m 194 660 l 400 660 q 588 708 518 660 q 658 853 658 756 q 599 989 658 943 q 426 1035 539 1035 q 194 1033 217 1035 l 194 660 z "},"S":{"ha":864,"x_min":110,"x_max":776,"o":"m 439 -15 q 256 33 342 -15 q 115 163 169 81 q 110 186 110 172 q 121 218 110 206 q 149 231 132 231 q 194 203 178 231 q 439 74 278 74 q 622 131 554 74 q 689 275 689 188 q 627 417 689 349 q 443 543 565 486 q 263 642 328 596 q 169 740 199 689 q 140 860 140 792 q 181 997 140 935 q 294 1094 222 1058 q 451 1131 365 1131 q 764 967 653 1131 q 771 943 771 957 q 761 914 771 926 q 736 901 751 901 q 710 909 724 901 q 689 928 697 917 q 451 1043 617 1043 q 289 991 351 1043 q 226 860 226 939 q 282 740 226 792 q 476 625 338 689 q 706 467 636 551 q 776 275 776 383 q 735 124 776 190 q 617 22 693 58 q 439 -15 540 -15 z "},"T":{"ha":883,"x_min":65,"x_max":818,"o":"m 776 1111 q 806 1099 794 1111 q 818 1069 818 1088 q 806 1040 818 1051 q 776 1028 794 1028 l 486 1028 l 486 44 q 474 15 486 28 q 443 3 461 3 q 412 15 425 3 q 399 44 399 28 l 399 1028 l 107 1028 q 77 1040 89 1028 q 65 1069 65 1051 q 77 1099 65 1088 q 107 1111 89 1111 l 776 1111 z "},"U":{"ha":999,"x_min":111,"x_max":888,"o":"m 801 1068 q 814 1098 801 1086 q 844 1110 826 1110 q 875 1098 863 1110 q 888 1068 888 1086 l 888 394 q 841 176 888 271 q 706 28 794 82 q 499 -25 618 -25 q 292 28 381 -25 q 158 177 204 82 q 111 394 111 272 l 111 1081 q 124 1110 111 1099 q 154 1122 136 1122 q 185 1110 172 1122 q 197 1081 197 1099 l 197 394 q 233 222 197 297 q 338 103 269 146 q 499 61 406 61 q 661 103 593 61 q 765 222 729 146 q 801 394 801 297 l 801 1068 z "},"Ú":{"ha":999,"x_min":111,"x_max":888,"o":"m 801 1068 q 814 1098 801 1086 q 844 1110 826 1110 q 875 1098 863 1110 q 888 1068 888 1086 l 888 394 q 841 176 888 271 q 706 28 794 82 q 499 -25 618 -25 q 292 28 381 -25 q 158 177 204 82 q 111 394 111 272 l 111 1081 q 124 1110 111 1099 q 154 1122 136 1122 q 185 1110 172 1122 q 197 1081 197 1099 l 197 394 q 233 222 197 297 q 338 103 269 146 q 499 61 406 61 q 661 103 593 61 q 765 222 729 146 q 801 394 801 297 l 801 1068 m 494 1219 q 480 1226 486 1219 q 474 1239 474 1232 q 485 1274 474 1256 l 588 1411 q 633 1436 607 1436 q 658 1426 647 1436 q 668 1400 668 1415 q 664 1381 668 1390 q 654 1367 660 1371 l 522 1232 q 494 1219 510 1219 z "},"Û":{"ha":999,"x_min":111,"x_max":888,"o":"m 801 1068 q 814 1098 801 1086 q 844 1110 826 1110 q 875 1098 863 1110 q 888 1068 888 1086 l 888 394 q 841 176 888 271 q 706 28 794 82 q 499 -25 618 -25 q 292 28 381 -25 q 158 177 204 82 q 111 394 111 272 l 111 1081 q 124 1110 111 1099 q 154 1122 136 1122 q 185 1110 172 1122 q 197 1081 197 1099 l 197 394 q 233 222 197 297 q 338 103 269 146 q 499 61 406 61 q 661 103 593 61 q 765 222 729 146 q 801 394 801 297 l 801 1068 m 646 1326 q 656 1306 656 1317 q 646 1281 656 1292 q 622 1271 636 1271 q 599 1281 611 1271 l 500 1382 l 401 1281 q 378 1271 389 1271 q 354 1281 364 1271 q 344 1306 344 1292 q 354 1326 344 1317 l 472 1451 q 500 1465 486 1465 q 528 1451 514 1465 l 646 1326 z "},"Ü":{"ha":999,"x_min":111,"x_max":888,"o":"m 801 1068 q 814 1098 801 1086 q 844 1110 826 1110 q 875 1098 863 1110 q 888 1068 888 1086 l 888 394 q 841 176 888 271 q 706 28 794 82 q 499 -25 618 -25 q 292 28 381 -25 q 158 177 204 82 q 111 394 111 272 l 111 1081 q 124 1110 111 1099 q 154 1122 136 1122 q 185 1110 172 1122 q 197 1081 197 1099 l 197 394 q 233 222 197 297 q 338 103 269 146 q 499 61 406 61 q 661 103 593 61 q 765 222 729 146 q 801 394 801 297 l 801 1068 m 386 1282 q 353 1296 367 1282 q 339 1329 339 1310 q 353 1362 339 1349 q 386 1375 367 1375 q 419 1362 406 1375 q 433 1329 433 1349 q 419 1296 433 1310 q 386 1282 406 1282 m 613 1282 q 579 1296 593 1282 q 565 1329 565 1310 q 579 1362 565 1349 q 613 1375 593 1375 q 645 1362 632 1375 q 658 1329 658 1349 q 645 1296 658 1310 q 613 1282 632 1282 z "},"Ù":{"ha":999,"x_min":111,"x_max":888,"o":"m 801 1068 q 814 1098 801 1086 q 844 1110 826 1110 q 875 1098 863 1110 q 888 1068 888 1086 l 888 394 q 841 176 888 271 q 706 28 794 82 q 499 -25 618 -25 q 292 28 381 -25 q 158 177 204 82 q 111 394 111 272 l 111 1081 q 124 1110 111 1099 q 154 1122 136 1122 q 185 1110 172 1122 q 197 1081 197 1099 l 197 394 q 233 222 197 297 q 338 103 269 146 q 499 61 406 61 q 661 103 593 61 q 765 222 729 146 q 801 394 801 297 l 801 1068 m 515 1240 q 488 1253 503 1240 l 356 1388 q 346 1403 350 1393 q 342 1422 342 1414 q 352 1447 342 1436 q 376 1457 363 1457 q 422 1433 403 1457 l 525 1296 q 536 1261 536 1278 q 530 1247 536 1254 q 515 1240 524 1240 z "},"V":{"ha":1136,"x_min":83,"x_max":1053,"o":"m 1010 1117 q 1040 1105 1028 1117 q 1053 1076 1053 1093 q 1050 1060 1053 1071 l 599 15 q 563 -14 585 -14 q 529 17 542 -14 l 86 1067 q 83 1085 83 1072 q 95 1112 83 1100 q 125 1124 107 1124 q 150 1116 139 1124 q 167 1096 161 1108 q 508 282 207 994 l 551 181 q 564 146 554 168 l 574 181 q 971 1093 649 358 q 1010 1117 981 1117 z "},"W":{"ha":1551,"x_min":83,"x_max":1468,"o":"m 1425 1128 q 1453 1117 1442 1128 q 1468 1089 1465 1106 q 1465 1075 1468 1079 l 1144 21 q 1128 -3 1140 6 q 1099 -12 1115 -12 q 1051 22 1065 -12 l 813 636 l 536 19 q 490 -14 521 -14 q 463 -4 475 -14 q 444 21 450 6 l 85 1076 q 83 1088 83 1079 q 97 1116 85 1104 q 126 1128 110 1128 q 150 1119 139 1128 q 167 1097 161 1110 l 490 153 q 494 143 492 149 q 497 131 496 138 l 506 153 l 771 743 l 651 1050 q 643 1090 643 1074 q 653 1117 643 1107 q 679 1126 664 1126 q 724 1094 713 1126 l 1089 157 l 1094 140 l 1097 157 l 1385 1096 q 1425 1128 1397 1128 z "},"Ẃ":{"ha":1551,"x_min":83,"x_max":1468,"o":"m 1425 1128 q 1453 1117 1442 1128 q 1468 1089 1465 1106 q 1465 1075 1468 1079 l 1144 21 q 1128 -3 1140 6 q 1099 -12 1115 -12 q 1051 22 1065 -12 l 813 636 l 536 19 q 490 -14 521 -14 q 463 -4 475 -14 q 444 21 450 6 l 85 1076 q 83 1088 83 1079 q 97 1116 85 1104 q 126 1128 110 1128 q 150 1119 139 1128 q 167 1097 161 1110 l 490 153 q 494 143 492 149 q 497 131 496 138 l 506 153 l 771 743 l 651 1050 q 643 1090 643 1074 q 653 1117 643 1107 q 679 1126 664 1126 q 724 1094 713 1126 l 1089 157 l 1094 140 l 1097 157 l 1385 1096 q 1425 1128 1397 1128 m 769 1219 q 755 1226 761 1219 q 749 1239 749 1232 q 760 1274 749 1256 l 863 1411 q 908 1436 882 1436 q 933 1426 922 1436 q 943 1400 943 1415 q 939 1381 943 1390 q 929 1367 935 1371 l 797 1232 q 769 1219 785 1219 z "},"Ŵ":{"ha":1551,"x_min":83,"x_max":1468,"o":"m 1425 1128 q 1453 1117 1442 1128 q 1468 1089 1465 1106 q 1465 1075 1468 1079 l 1144 21 q 1128 -3 1140 6 q 1099 -12 1115 -12 q 1051 22 1065 -12 l 813 636 l 536 19 q 490 -14 521 -14 q 463 -4 475 -14 q 444 21 450 6 l 85 1076 q 83 1088 83 1079 q 97 1116 85 1104 q 126 1128 110 1128 q 150 1119 139 1128 q 167 1097 161 1110 l 490 153 q 494 143 492 149 q 497 131 496 138 l 506 153 l 771 743 l 651 1050 q 643 1090 643 1074 q 653 1117 643 1107 q 679 1126 664 1126 q 724 1094 713 1126 l 1089 157 l 1094 140 l 1097 157 l 1385 1096 q 1425 1128 1397 1128 m 972 1326 q 982 1306 982 1317 q 972 1281 982 1292 q 949 1271 963 1271 q 925 1281 938 1271 l 826 1382 l 728 1281 q 704 1271 715 1271 q 681 1281 690 1271 q 671 1306 671 1292 q 681 1326 671 1317 l 799 1451 q 826 1465 813 1465 q 854 1451 840 1465 l 972 1326 z "},"Ẅ":{"ha":1551,"x_min":83,"x_max":1468,"o":"m 1425 1128 q 1453 1117 1442 1128 q 1468 1089 1465 1106 q 1465 1075 1468 1079 l 1144 21 q 1128 -3 1140 6 q 1099 -12 1115 -12 q 1051 22 1065 -12 l 813 636 l 536 19 q 490 -14 521 -14 q 463 -4 475 -14 q 444 21 450 6 l 85 1076 q 83 1088 83 1079 q 97 1116 85 1104 q 126 1128 110 1128 q 150 1119 139 1128 q 167 1097 161 1110 l 490 153 q 494 143 492 149 q 497 131 496 138 l 506 153 l 771 743 l 651 1050 q 643 1090 643 1074 q 653 1117 643 1107 q 679 1126 664 1126 q 724 1094 713 1126 l 1089 157 l 1094 140 l 1097 157 l 1385 1096 q 1425 1128 1397 1128 m 664 1282 q 631 1296 644 1282 q 617 1329 617 1310 q 631 1362 617 1349 q 664 1375 644 1375 q 697 1362 683 1375 q 711 1329 711 1349 q 697 1296 711 1310 q 664 1282 683 1282 m 890 1282 q 857 1296 871 1282 q 843 1329 843 1310 q 857 1362 843 1349 q 890 1375 871 1375 q 923 1362 910 1375 q 936 1329 936 1349 q 923 1296 936 1310 q 890 1282 910 1282 z "},"Ẁ":{"ha":1551,"x_min":83,"x_max":1468,"o":"m 1425 1128 q 1453 1117 1442 1128 q 1468 1089 1465 1106 q 1465 1075 1468 1079 l 1144 21 q 1128 -3 1140 6 q 1099 -12 1115 -12 q 1051 22 1065 -12 l 813 636 l 536 19 q 490 -14 521 -14 q 463 -4 475 -14 q 444 21 450 6 l 85 1076 q 83 1088 83 1079 q 97 1116 85 1104 q 126 1128 110 1128 q 150 1119 139 1128 q 167 1097 161 1110 l 490 153 q 494 143 492 149 q 497 131 496 138 l 506 153 l 771 743 l 651 1050 q 643 1090 643 1074 q 653 1117 643 1107 q 679 1126 664 1126 q 724 1094 713 1126 l 1089 157 l 1094 140 l 1097 157 l 1385 1096 q 1425 1128 1397 1128 m 864 1240 q 836 1253 851 1240 l 704 1388 q 694 1403 699 1393 q 690 1422 690 1414 q 701 1447 690 1436 q 725 1457 711 1457 q 771 1433 751 1457 l 874 1296 q 885 1261 885 1278 q 878 1247 885 1254 q 864 1240 872 1240 z "},"X":{"ha":1071,"x_min":83,"x_max":988,"o":"m 979 57 q 988 32 988 47 q 976 2 988 14 q 946 -10 964 -10 q 913 7 924 -10 l 532 504 l 160 8 q 145 -5 154 0 q 125 -10 136 -10 q 95 2 107 -10 q 83 32 83 14 q 92 57 83 47 l 479 574 l 113 1054 q 104 1079 104 1065 q 116 1109 104 1097 q 146 1121 128 1121 q 179 1104 168 1121 l 531 643 l 876 1104 q 892 1116 882 1111 q 911 1121 901 1121 q 941 1109 929 1121 q 953 1079 953 1097 q 944 1054 953 1065 l 585 574 l 979 57 z "},"Y":{"ha":964,"x_min":83,"x_max":881,"o":"m 881 1071 q 874 1047 881 1061 l 522 464 l 522 31 q 510 -3 522 11 q 479 -17 497 -17 q 449 -3 461 -17 q 436 31 436 11 l 436 464 l 90 1056 q 83 1079 83 1067 q 96 1110 85 1097 q 124 1124 107 1124 q 151 1117 138 1124 q 169 1099 164 1110 q 320 831 224 1000 q 475 561 417 661 l 479 546 l 485 561 q 683 900 524 625 q 796 1092 789 1081 q 815 1110 801 1103 q 842 1117 828 1117 q 869 1103 858 1117 q 881 1071 881 1090 z "},"Ý":{"ha":964,"x_min":83,"x_max":881,"o":"m 881 1071 q 874 1047 881 1061 l 522 464 l 522 31 q 510 -3 522 11 q 479 -17 497 -17 q 449 -3 461 -17 q 436 31 436 11 l 436 464 l 90 1056 q 83 1079 83 1067 q 96 1110 85 1097 q 124 1124 107 1124 q 151 1117 138 1124 q 169 1099 164 1110 q 320 831 224 1000 q 475 561 417 661 l 479 546 l 485 561 q 683 900 524 625 q 796 1092 789 1081 q 815 1110 801 1103 q 842 1117 828 1117 q 869 1103 858 1117 q 881 1071 881 1090 m 474 1219 q 459 1226 465 1219 q 453 1239 453 1232 q 464 1274 453 1256 l 567 1411 q 613 1436 586 1436 q 637 1426 626 1436 q 647 1400 647 1415 q 643 1381 647 1390 q 633 1367 639 1371 l 501 1232 q 474 1219 489 1219 z "},"Z":{"ha":1111,"x_min":83,"x_max":1028,"o":"m 986 82 q 1016 69 1004 82 q 1028 40 1028 57 q 1016 10 1028 22 q 986 -1 1004 -1 l 126 -1 q 83 33 83 -1 q 96 61 83 49 l 874 1015 l 892 1029 l 156 1029 q 126 1042 139 1029 q 114 1071 114 1054 q 126 1101 114 1089 q 156 1113 139 1113 l 978 1113 q 1010 1104 999 1113 q 1021 1079 1021 1096 q 1010 1050 1021 1061 l 238 103 l 215 82 l 986 82 z "},"a":{"ha":758,"x_min":85,"x_max":717,"o":"m 675 54 q 717 15 717 47 q 703 -14 717 -1 q 672 -26 690 -26 q 585 2 624 -26 q 538 83 547 31 q 528 225 528 132 q 533 376 528 274 q 379 303 474 335 q 220 234 274 269 q 167 143 167 199 q 197 77 167 103 q 274 51 226 51 q 342 72 307 51 q 404 132 376 93 q 435 144 414 144 q 464 133 453 144 q 475 104 475 121 q 465 76 475 89 q 274 -31 382 -31 q 138 17 192 -31 q 85 139 85 64 q 159 280 85 225 q 358 376 233 335 q 490 430 443 403 q 542 499 536 457 q 543 508 543 501 l 543 510 l 543 522 q 503 606 543 575 q 388 638 464 638 q 274 614 321 638 q 204 544 226 590 q 189 528 199 535 q 168 521 179 521 q 138 533 150 521 q 125 563 125 546 q 166 639 125 603 q 269 697 207 675 q 388 718 331 718 q 561 665 497 718 q 625 521 625 611 l 625 500 q 611 218 611 299 q 619 106 611 158 q 641 69 625 83 q 675 54 657 56 z "},"á":{"ha":758,"x_min":85,"x_max":717,"o":"m 675 54 q 717 15 717 47 q 703 -14 717 -1 q 672 -26 690 -26 q 585 2 624 -26 q 538 83 547 31 q 528 225 528 132 q 533 376 528 274 q 379 303 474 335 q 220 234 274 269 q 167 143 167 199 q 197 77 167 103 q 274 51 226 51 q 342 72 307 51 q 404 132 376 93 q 435 144 414 144 q 464 133 453 144 q 475 104 475 121 q 465 76 475 89 q 274 -31 382 -31 q 138 17 192 -31 q 85 139 85 64 q 159 280 85 225 q 358 376 233 335 q 490 430 443 403 q 542 499 536 457 q 543 508 543 501 l 543 510 l 543 522 q 503 606 543 575 q 388 638 464 638 q 274 614 321 638 q 204 544 226 590 q 189 528 199 535 q 168 521 179 521 q 138 533 150 521 q 125 563 125 546 q 166 639 125 603 q 269 697 207 675 q 388 718 331 718 q 561 665 497 718 q 625 521 625 611 l 625 500 q 611 218 611 299 q 619 106 611 158 q 641 69 625 83 q 675 54 657 56 m 335 831 q 320 837 326 831 q 314 850 314 843 q 325 885 314 867 l 428 1022 q 474 1047 447 1047 q 498 1037 488 1047 q 508 1011 508 1026 q 504 992 508 1001 q 494 978 500 982 l 363 843 q 335 831 350 831 z "},"â":{"ha":758,"x_min":85,"x_max":717,"o":"m 675 54 q 717 15 717 47 q 703 -14 717 -1 q 672 -26 690 -26 q 585 2 624 -26 q 538 83 547 31 q 528 225 528 132 q 533 376 528 274 q 379 303 474 335 q 220 234 274 269 q 167 143 167 199 q 197 77 167 103 q 274 51 226 51 q 342 72 307 51 q 404 132 376 93 q 435 144 414 144 q 464 133 453 144 q 475 104 475 121 q 465 76 475 89 q 274 -31 382 -31 q 138 17 192 -31 q 85 139 85 64 q 159 280 85 225 q 358 376 233 335 q 490 430 443 403 q 542 499 536 457 q 543 508 543 501 l 543 510 l 543 522 q 503 606 543 575 q 388 638 464 638 q 274 614 321 638 q 204 544 226 590 q 189 528 199 535 q 168 521 179 521 q 138 533 150 521 q 125 563 125 546 q 166 639 125 603 q 269 697 207 675 q 388 718 331 718 q 561 665 497 718 q 625 521 625 611 l 625 500 q 611 218 611 299 q 619 106 611 158 q 641 69 625 83 q 675 54 657 56 m 549 938 q 558 917 558 928 q 549 892 558 903 q 525 882 539 882 q 501 892 514 882 l 403 993 l 304 892 q 281 882 292 882 q 257 892 267 882 q 247 917 247 903 q 257 938 247 928 l 375 1063 q 403 1076 389 1076 q 431 1063 417 1076 l 549 938 z "},"ä":{"ha":758,"x_min":85,"x_max":717,"o":"m 675 54 q 717 15 717 47 q 703 -14 717 -1 q 672 -26 690 -26 q 585 2 624 -26 q 538 83 547 31 q 528 225 528 132 q 533 376 528 274 q 379 303 474 335 q 220 234 274 269 q 167 143 167 199 q 197 77 167 103 q 274 51 226 51 q 342 72 307 51 q 404 132 376 93 q 435 144 414 144 q 464 133 453 144 q 475 104 475 121 q 465 76 475 89 q 274 -31 382 -31 q 138 17 192 -31 q 85 139 85 64 q 159 280 85 225 q 358 376 233 335 q 490 430 443 403 q 542 499 536 457 q 543 508 543 501 l 543 510 l 543 522 q 503 606 543 575 q 388 638 464 638 q 274 614 321 638 q 204 544 226 590 q 189 528 199 535 q 168 521 179 521 q 138 533 150 521 q 125 563 125 546 q 166 639 125 603 q 269 697 207 675 q 388 718 331 718 q 561 665 497 718 q 625 521 625 611 l 625 500 q 611 218 611 299 q 619 106 611 158 q 641 69 625 83 q 675 54 657 56 m 275 893 q 242 907 256 893 q 228 940 228 921 q 242 973 228 960 q 275 986 256 986 q 308 973 294 986 q 322 940 322 960 q 308 907 322 921 q 275 893 294 893 m 501 893 q 468 907 482 893 q 454 940 454 921 q 468 973 454 960 q 501 986 482 986 q 534 973 521 986 q 547 940 547 960 q 534 907 547 921 q 501 893 521 893 z "},"à":{"ha":833,"x_min":85,"x_max":717,"o":"m 675 54 q 717 15 717 47 q 703 -14 717 -1 q 672 -26 690 -26 q 585 2 624 -26 q 538 83 547 31 q 528 225 528 132 q 533 376 528 274 q 379 303 474 335 q 220 234 274 269 q 167 143 167 199 q 197 77 167 103 q 274 51 226 51 q 342 72 307 51 q 404 132 376 93 q 435 144 414 144 q 464 133 453 144 q 475 104 475 121 q 465 76 475 89 q 274 -31 382 -31 q 138 17 192 -31 q 85 139 85 64 q 159 280 85 225 q 358 376 233 335 q 490 430 443 403 q 542 499 536 457 q 543 508 543 501 l 543 510 l 543 522 q 503 606 543 575 q 388 638 464 638 q 274 614 321 638 q 204 544 226 590 q 189 528 199 535 q 168 521 179 521 q 138 533 150 521 q 125 563 125 546 q 166 639 125 603 q 269 697 207 675 q 388 718 331 718 q 561 665 497 718 q 625 521 625 611 l 625 500 q 611 218 611 299 q 619 106 611 158 q 641 69 625 83 q 675 54 657 56 m 488 851 q 460 864 475 851 l 328 999 q 318 1015 322 1004 q 314 1033 314 1025 q 324 1058 314 1047 q 349 1068 335 1068 q 394 1044 375 1068 l 497 907 q 508 872 508 889 q 502 858 508 865 q 488 851 496 851 z "},"å":{"ha":758,"x_min":85,"x_max":717,"o":"m 675 54 q 717 15 717 47 q 703 -14 717 -1 q 672 -26 690 -26 q 585 2 624 -26 q 538 83 547 31 q 528 225 528 132 q 533 376 528 274 q 379 303 474 335 q 220 234 274 269 q 167 143 167 199 q 197 77 167 103 q 274 51 226 51 q 342 72 307 51 q 404 132 376 93 q 435 144 414 144 q 464 133 453 144 q 475 104 475 121 q 465 76 475 89 q 274 -31 382 -31 q 138 17 192 -31 q 85 139 85 64 q 159 280 85 225 q 358 376 233 335 q 490 430 443 403 q 542 499 536 457 q 543 508 543 501 l 543 510 l 543 522 q 503 606 543 575 q 388 638 464 638 q 274 614 321 638 q 204 544 226 590 q 189 528 199 535 q 168 521 179 521 q 138 533 150 521 q 125 563 125 546 q 166 639 125 603 q 269 697 207 675 q 388 718 331 718 q 561 665 497 718 q 625 521 625 611 l 625 500 q 611 218 611 299 q 619 106 611 158 q 641 69 625 83 q 675 54 657 56 m 376 854 q 301 885 332 854 q 271 960 271 915 q 301 1035 271 1004 q 376 1065 332 1065 q 451 1035 421 1065 q 482 960 482 1004 q 451 885 482 915 q 376 854 421 854 m 376 901 q 418 918 401 901 q 435 960 435 935 q 418 1001 435 985 q 376 1018 401 1018 q 335 1001 351 1018 q 318 960 318 985 q 335 918 318 935 q 376 901 351 901 z "},"ã":{"ha":833,"x_min":85,"x_max":717,"o":"m 675 54 q 717 15 717 47 q 703 -14 717 -1 q 672 -26 690 -26 q 585 2 624 -26 q 538 83 547 31 q 528 225 528 132 q 533 376 528 274 q 379 303 474 335 q 220 234 274 269 q 167 143 167 199 q 197 77 167 103 q 274 51 226 51 q 342 72 307 51 q 404 132 376 93 q 435 144 414 144 q 464 133 453 144 q 475 104 475 121 q 465 76 475 89 q 274 -31 382 -31 q 138 17 192 -31 q 85 139 85 64 q 159 280 85 225 q 358 376 233 335 q 490 430 443 403 q 542 499 536 457 q 543 508 543 501 l 543 510 l 543 522 q 503 606 543 575 q 388 638 464 638 q 274 614 321 638 q 204 544 226 590 q 189 528 199 535 q 168 521 179 521 q 138 533 150 521 q 125 563 125 546 q 166 639 125 603 q 269 697 207 675 q 388 718 331 718 q 561 665 497 718 q 625 521 625 611 l 625 500 q 611 218 611 299 q 619 106 611 158 q 641 69 625 83 q 675 54 657 56 m 493 1007 q 518 1022 501 1022 q 546 999 546 1022 q 538 978 546 986 q 446 913 497 913 q 413 921 428 913 q 381 946 399 929 q 355 967 365 960 q 332 974 344 974 q 304 963 318 974 q 285 933 290 951 q 274 922 282 926 q 258 918 267 918 q 239 926 246 918 q 232 947 232 933 q 233 958 232 954 q 275 1010 249 990 q 331 1029 301 1029 q 401 996 365 1029 q 443 968 426 968 q 472 978 458 968 q 493 1007 485 989 z "},"æ":{"ha":1165,"x_min":85,"x_max":1099,"o":"m 1057 143 q 1086 132 1074 143 q 1099 104 1099 121 q 1088 74 1099 89 q 977 -1 1050 28 q 828 -31 904 -31 q 606 69 683 -31 q 528 332 528 168 q 529 375 528 361 q 379 303 472 335 q 220 234 274 269 q 167 143 167 199 q 197 77 167 103 q 274 51 226 51 q 406 133 347 51 q 438 147 417 147 q 467 135 454 147 q 479 107 479 124 q 468 79 479 93 q 378 -2 429 26 q 274 -31 328 -31 q 138 17 192 -31 q 85 139 85 64 q 159 281 85 225 q 358 376 233 338 q 543 507 540 432 l 542 507 q 543 524 543 511 q 503 606 543 574 q 388 638 464 638 q 273 614 321 638 q 204 544 225 590 q 189 528 199 535 q 168 521 179 521 q 138 533 150 521 q 125 563 125 546 q 166 639 125 603 q 269 697 207 675 q 388 718 331 718 q 523 688 467 718 q 606 606 579 658 q 838 717 690 717 q 959 689 904 717 q 1045 613 1014 661 q 1076 504 1076 564 q 1045 411 1076 453 q 960 345 1014 369 q 839 321 906 321 q 711 340 768 321 q 617 393 654 360 q 611 326 611 365 q 671 128 611 204 q 828 53 731 53 q 943 74 888 53 q 1025 131 999 96 q 1057 143 1040 143 m 838 633 q 720 592 772 633 q 639 479 668 550 q 728 424 674 446 q 839 403 783 403 q 949 432 904 403 q 993 504 993 461 q 949 597 993 560 q 838 633 904 633 m 546 507 l 551 500 q 554 508 554 506 l 546 507 z "},"b":{"ha":901,"x_min":57,"x_max":835,"o":"m 481 717 q 656 669 575 717 q 786 538 738 622 q 835 350 835 454 q 787 158 835 244 q 657 22 739 71 q 481 -28 575 -28 q 251 54 336 -28 q 159 180 194 101 q 124 347 124 258 q 131 1072 124 739 q 119 1127 132 1099 q 92 1164 107 1156 q 66 1184 75 1175 q 57 1206 57 1193 q 71 1233 57 1224 q 103 1243 85 1243 q 183 1199 151 1243 q 214 1081 214 1154 q 213 890 214 983 q 210 718 211 796 l 207 560 q 323 675 251 633 q 481 717 394 717 m 481 56 q 614 94 551 56 q 714 200 676 132 q 751 350 751 268 q 714 497 751 432 q 615 597 676 561 q 481 633 553 633 q 351 597 411 633 q 256 497 292 561 q 221 350 221 432 q 256 199 221 267 q 351 94 292 132 q 481 56 410 56 z "},"c":{"ha":765,"x_min":67,"x_max":699,"o":"m 411 -28 q 238 21 317 -28 q 113 153 160 69 q 67 336 67 236 q 111 529 67 443 q 233 663 156 615 q 408 711 311 711 q 592 653 518 711 q 674 504 665 596 l 674 497 q 663 462 674 474 q 632 450 651 450 q 606 461 617 450 q 593 496 594 472 q 535 589 588 550 q 408 628 483 628 q 277 590 336 628 q 184 485 218 553 q 150 331 150 418 q 185 192 150 254 q 280 92 219 129 q 411 56 340 56 q 539 78 481 56 q 625 135 597 100 q 640 144 631 140 q 657 149 649 149 q 687 137 675 149 q 699 107 699 125 q 688 79 699 96 q 574 2 651 32 q 411 -28 497 -28 z "},"ç":{"ha":765,"x_min":67,"x_max":699,"o":"m 657 149 q 687 137 675 149 q 699 107 699 125 q 688 79 699 96 q 584 6 654 36 q 433 -28 514 -24 l 418 -65 l 419 -65 q 506 -87 474 -65 q 539 -147 539 -110 q 500 -220 539 -193 q 401 -247 461 -247 q 310 -231 350 -247 q 290 -203 290 -224 q 299 -183 290 -192 q 319 -175 307 -175 q 331 -176 326 -175 q 400 -189 364 -189 q 458 -178 435 -189 q 481 -150 481 -167 q 425 -121 481 -121 l 397 -124 q 374 -126 386 -126 q 355 -118 361 -126 q 349 -99 349 -110 q 354 -74 349 -85 l 372 -25 q 217 35 288 -15 q 107 164 147 85 q 67 336 67 243 q 111 529 67 443 q 233 663 156 615 q 408 711 311 711 q 592 653 518 711 q 674 504 665 596 l 674 497 q 663 462 674 474 q 632 450 651 450 q 606 461 617 450 q 593 496 594 472 q 535 589 588 550 q 408 628 483 628 q 277 590 336 628 q 184 485 218 553 q 150 331 150 418 q 185 192 150 254 q 280 92 219 129 q 411 56 340 56 q 539 78 481 56 q 625 135 597 100 q 640 144 631 140 q 657 149 649 149 z "},"d":{"ha":893,"x_min":67,"x_max":838,"o":"m 801 58 q 828 38 819 47 q 838 17 838 29 q 824 -11 838 -1 q 790 -21 810 -21 q 715 17 746 -21 q 678 122 683 56 q 567 22 633 58 q 421 -14 500 -14 q 239 34 319 -14 q 113 168 158 82 q 67 361 67 254 q 113 547 67 464 q 240 678 160 631 q 421 726 321 726 q 569 690 501 726 q 681 588 636 653 q 689 1196 686 1090 q 701 1226 689 1214 q 729 1238 713 1238 q 760 1226 747 1238 q 772 1196 772 1214 q 761 328 768 1047 l 760 150 q 773 96 760 125 q 801 58 786 67 m 421 69 q 552 107 493 69 q 644 210 611 144 q 678 361 678 276 q 644 506 678 442 q 552 606 611 569 q 421 643 493 643 q 283 606 344 643 q 185 505 221 569 q 150 361 150 440 q 185 210 150 276 q 283 107 221 144 q 421 69 344 69 z "},"ð":{"ha":824,"x_min":67,"x_max":757,"o":"m 597 954 q 713 657 669 810 q 757 388 757 504 q 713 178 757 271 q 589 31 668 85 q 408 -22 510 -22 q 237 27 315 -22 q 113 160 158 76 q 67 344 67 244 q 113 538 67 451 q 238 674 160 625 q 410 722 317 722 q 638 624 546 722 q 524 924 599 776 l 419 881 q 404 878 414 878 q 374 890 388 878 q 361 919 361 903 q 369 942 361 932 q 388 957 376 953 l 485 997 q 361 1169 424 1099 q 351 1197 351 1179 q 363 1228 351 1215 q 393 1240 375 1240 q 411 1235 401 1240 q 426 1225 421 1231 q 560 1029 494 1144 l 678 1078 q 692 1081 682 1081 q 723 1069 710 1081 q 736 1039 736 1057 q 728 1016 736 1026 q 710 1001 721 1006 l 597 954 m 408 61 q 546 103 486 61 q 640 217 606 144 q 674 382 674 290 q 635 510 671 451 q 540 604 599 569 q 410 639 481 639 q 281 601 340 639 q 185 497 221 564 q 150 344 150 429 q 185 202 150 267 q 278 99 219 138 q 408 61 338 61 z "},"e":{"ha":790,"x_min":67,"x_max":724,"o":"m 685 154 q 713 143 703 154 q 724 115 724 132 q 713 85 724 100 q 592 8 672 36 q 419 -21 513 -21 q 239 24 319 -21 q 113 150 158 69 q 67 332 67 231 q 115 526 67 439 q 245 663 163 613 q 429 713 328 713 q 570 685 508 713 q 667 610 632 658 q 701 504 701 563 q 627 372 701 422 q 431 321 553 321 q 276 342 350 321 q 157 399 201 364 q 150 326 150 360 q 185 190 150 250 q 281 96 219 129 q 419 63 342 63 q 561 83 501 63 q 651 142 621 103 q 685 154 664 154 m 429 629 q 282 589 347 629 q 182 476 217 549 q 287 422 221 444 q 431 400 353 400 q 567 428 517 400 q 618 501 618 456 q 565 592 618 556 q 429 629 513 629 z "},"é":{"ha":790,"x_min":67,"x_max":724,"o":"m 685 154 q 713 143 703 154 q 724 115 724 132 q 713 85 724 100 q 592 8 672 36 q 419 -21 513 -21 q 239 24 319 -21 q 113 150 158 69 q 67 332 67 231 q 115 526 67 439 q 245 663 163 613 q 429 713 328 713 q 570 685 508 713 q 667 610 632 658 q 701 504 701 563 q 627 372 701 422 q 431 321 553 321 q 276 342 350 321 q 157 399 201 364 q 150 326 150 360 q 185 190 150 250 q 281 96 219 129 q 419 63 342 63 q 561 83 501 63 q 651 142 621 103 q 685 154 664 154 m 429 629 q 282 589 347 629 q 182 476 217 549 q 287 422 221 444 q 431 400 353 400 q 567 428 517 400 q 618 501 618 456 q 565 592 618 556 q 429 629 513 629 m 335 831 q 320 837 326 831 q 314 850 314 843 q 325 885 314 867 l 428 1022 q 474 1047 447 1047 q 498 1037 488 1047 q 508 1011 508 1026 q 504 992 508 1001 q 494 978 500 982 l 363 843 q 335 831 350 831 z "},"ê":{"ha":790,"x_min":67,"x_max":724,"o":"m 685 154 q 713 143 703 154 q 724 115 724 132 q 713 85 724 100 q 592 8 672 36 q 419 -21 513 -21 q 239 24 319 -21 q 113 150 158 69 q 67 332 67 231 q 115 526 67 439 q 245 663 163 613 q 429 713 328 713 q 570 685 508 713 q 667 610 632 658 q 701 504 701 563 q 627 372 701 422 q 431 321 553 321 q 276 342 350 321 q 157 399 201 364 q 150 326 150 360 q 185 190 150 250 q 281 96 219 129 q 419 63 342 63 q 561 83 501 63 q 651 142 621 103 q 685 154 664 154 m 429 629 q 282 589 347 629 q 182 476 217 549 q 287 422 221 444 q 431 400 353 400 q 567 428 517 400 q 618 501 618 456 q 565 592 618 556 q 429 629 513 629 m 563 938 q 572 917 572 928 q 563 892 572 903 q 539 882 553 882 q 515 892 528 882 l 417 993 l 318 892 q 294 882 306 882 q 271 892 281 882 q 261 917 261 903 q 271 938 261 928 l 389 1063 q 417 1076 403 1076 q 444 1063 431 1076 l 563 938 z "},"ë":{"ha":790,"x_min":67,"x_max":724,"o":"m 685 154 q 713 143 703 154 q 724 115 724 132 q 713 85 724 100 q 592 8 672 36 q 419 -21 513 -21 q 239 24 319 -21 q 113 150 158 69 q 67 332 67 231 q 115 526 67 439 q 245 663 163 613 q 429 713 328 713 q 570 685 508 713 q 667 610 632 658 q 701 504 701 563 q 627 372 701 422 q 431 321 553 321 q 276 342 350 321 q 157 399 201 364 q 150 326 150 360 q 185 190 150 250 q 281 96 219 129 q 419 63 342 63 q 561 83 501 63 q 651 142 621 103 q 685 154 664 154 m 429 629 q 282 589 347 629 q 182 476 217 549 q 287 422 221 444 q 431 400 353 400 q 567 428 517 400 q 618 501 618 456 q 565 592 618 556 q 429 629 513 629 m 286 893 q 253 907 267 893 q 239 940 239 921 q 253 973 239 960 q 286 986 267 986 q 319 973 306 986 q 333 940 333 960 q 319 907 333 921 q 286 893 306 893 m 513 893 q 479 907 493 893 q 465 940 465 921 q 479 973 465 960 q 513 986 493 986 q 545 973 532 986 q 558 940 558 960 q 545 907 558 921 q 513 893 532 893 z "},"è":{"ha":833,"x_min":67,"x_max":724,"o":"m 685 154 q 713 143 703 154 q 724 115 724 132 q 713 85 724 100 q 592 8 672 36 q 419 -21 513 -21 q 239 24 319 -21 q 113 150 158 69 q 67 332 67 231 q 115 526 67 439 q 245 663 163 613 q 429 713 328 713 q 570 685 508 713 q 667 610 632 658 q 701 504 701 563 q 627 372 701 422 q 431 321 553 321 q 276 342 350 321 q 157 399 201 364 q 150 326 150 360 q 185 190 150 250 q 281 96 219 129 q 419 63 342 63 q 561 83 501 63 q 651 142 621 103 q 685 154 664 154 m 429 629 q 282 589 347 629 q 182 476 217 549 q 287 422 221 444 q 431 400 353 400 q 567 428 517 400 q 618 501 618 456 q 565 592 618 556 q 429 629 513 629 m 488 851 q 460 864 475 851 l 328 999 q 318 1015 322 1004 q 314 1033 314 1025 q 324 1058 314 1047 q 349 1068 335 1068 q 394 1044 375 1068 l 497 907 q 508 872 508 889 q 502 858 508 865 q 488 851 496 851 z "},"f":{"ha":507,"x_min":61,"x_max":456,"o":"m 414 703 q 444 690 432 703 q 456 661 456 678 q 444 631 456 643 q 414 619 432 619 l 264 619 l 264 28 q 251 -2 264 10 q 221 -14 239 -14 q 192 -2 204 -14 q 181 28 181 10 l 181 619 l 103 619 q 74 631 86 619 q 61 661 61 643 q 74 690 61 678 q 103 703 86 703 l 181 703 l 181 929 q 236 1134 181 1051 q 383 1233 292 1217 l 389 1233 q 418 1222 406 1233 q 431 1192 431 1210 q 420 1165 431 1176 q 396 1151 410 1153 q 301 1083 338 1144 q 264 929 264 1021 l 264 703 l 414 703 z "},"g":{"ha":810,"x_min":53,"x_max":782,"o":"m 749 693 q 772 678 763 690 q 782 650 782 667 q 772 623 782 633 q 746 613 763 613 q 732 615 738 613 q 708 617 729 617 q 633 583 665 615 q 676 433 676 517 q 640 294 676 357 q 538 194 603 232 q 393 154 474 157 q 327 133 356 154 q 299 88 299 111 q 326 49 299 65 q 406 25 353 32 q 578 -10 515 11 q 669 -69 640 -32 q 697 -168 697 -107 q 655 -290 697 -237 q 540 -372 613 -343 q 376 -400 467 -400 q 190 -356 275 -400 q 58 -233 106 -312 q 53 -211 53 -226 q 65 -183 53 -194 q 94 -172 76 -172 q 113 -178 104 -172 q 126 -190 122 -183 q 229 -282 160 -246 q 379 -318 299 -318 q 549 -278 481 -318 q 618 -169 618 -237 q 597 -110 618 -132 q 531 -76 575 -89 q 406 -51 488 -64 q 256 -2 304 -35 q 208 82 208 31 q 271 172 208 139 q 131 271 183 200 q 79 433 79 342 q 118 578 79 513 q 226 680 157 643 q 379 717 294 717 q 491 697 439 717 q 583 643 543 678 q 644 684 610 669 q 714 699 679 699 q 749 693 726 699 m 379 236 q 488 262 439 236 q 565 333 538 288 q 593 433 593 378 q 565 535 593 489 q 488 608 538 582 q 379 635 439 635 q 268 608 318 635 q 190 536 218 582 q 163 433 163 490 q 190 333 163 378 q 268 262 218 288 q 379 236 318 236 z "},"h":{"ha":833,"x_min":85,"x_max":778,"o":"m 743 58 q 769 38 760 47 q 778 17 778 29 q 764 -11 778 -1 q 731 -21 750 -21 q 651 23 682 -21 q 619 142 619 67 l 621 436 q 571 578 621 526 q 435 631 521 631 q 300 576 351 631 q 236 432 249 521 l 231 31 q 218 1 231 14 q 189 -11 206 -11 q 159 1 171 -11 q 147 31 147 14 l 161 1072 q 148 1127 161 1099 q 119 1164 135 1156 q 94 1184 103 1175 q 85 1206 85 1193 q 99 1233 85 1224 q 131 1243 113 1243 q 212 1198 179 1243 q 244 1076 244 1153 q 242 838 244 1018 q 239 607 239 690 q 326 684 275 657 q 435 711 378 711 q 631 639 557 711 q 704 449 704 567 l 703 147 q 715 94 703 121 q 743 58 728 67 z "},"i":{"ha":400,"x_min":106,"x_max":272,"o":"m 213 924 q 167 942 185 924 q 149 986 149 960 q 167 1029 149 1011 q 213 1047 186 1047 q 255 1030 238 1047 q 272 986 272 1013 q 255 942 272 960 q 213 924 238 924 m 213 -17 q 183 -5 196 -17 q 171 24 171 7 l 175 310 l 179 544 q 168 599 181 571 q 140 636 156 628 q 115 656 124 647 q 106 676 106 664 q 119 705 106 694 q 151 715 133 715 q 231 672 200 715 q 263 554 263 628 q 260 350 263 479 q 257 153 258 221 l 254 24 q 242 -6 254 6 q 213 -17 229 -17 z "},"ı":{"ha":382,"x_min":96,"x_max":256,"o":"m 203 -17 q 175 -5 188 -17 q 163 24 163 7 l 167 310 l 171 544 q 158 599 171 571 q 132 636 146 628 q 105 656 114 647 q 96 676 96 664 q 110 705 96 694 q 142 715 124 715 q 224 669 192 715 q 254 546 256 624 q 246 24 246 179 q 233 -6 246 6 q 203 -17 219 -17 z "},"í":{"ha":436,"x_min":114,"x_max":311,"o":"m 138 831 q 123 837 129 831 q 117 850 117 843 q 128 885 117 867 l 231 1022 q 276 1047 250 1047 q 301 1037 290 1047 q 311 1011 311 1026 q 307 992 311 1001 q 297 978 303 982 l 165 843 q 138 831 153 831 m 221 -17 q 193 -5 206 -17 q 181 24 181 7 l 185 310 l 189 544 q 176 599 189 571 q 150 636 164 628 q 123 656 132 647 q 114 676 114 664 q 128 705 114 694 q 160 715 142 715 q 242 669 210 715 q 272 546 274 624 q 264 24 264 179 q 251 -6 264 6 q 221 -17 238 -17 z "},"î":{"ha":451,"x_min":69,"x_max":381,"o":"m 371 938 q 381 917 381 928 q 371 892 381 903 q 347 882 361 882 q 324 892 336 882 l 225 993 l 126 892 q 103 882 114 882 q 79 892 89 882 q 69 917 69 903 q 79 938 69 928 l 197 1063 q 225 1076 211 1076 q 253 1063 239 1076 l 371 938 m 224 -17 q 196 -5 208 -17 q 183 24 183 7 l 188 310 l 192 544 q 179 599 192 571 q 153 636 167 628 q 126 656 135 647 q 117 676 117 664 q 131 705 117 694 q 163 715 144 715 q 244 669 213 715 q 275 546 276 624 q 267 24 267 179 q 253 -6 267 6 q 224 -17 240 -17 z "},"ï":{"ha":421,"x_min":50,"x_max":369,"o":"m 97 893 q 64 907 78 893 q 50 940 50 921 q 64 973 50 960 q 97 986 78 986 q 131 973 117 986 q 144 940 144 960 q 131 907 144 921 q 97 893 117 893 m 324 893 q 290 907 304 893 q 276 940 276 921 q 290 973 276 960 q 324 986 304 986 q 356 973 343 986 q 369 940 369 960 q 356 907 369 921 q 324 893 343 893 m 210 -17 q 182 -5 194 -17 q 169 24 169 7 l 174 310 l 178 544 q 165 599 178 571 q 139 636 153 628 q 112 656 121 647 q 103 676 103 664 q 117 705 103 694 q 149 715 131 715 q 231 669 199 715 q 261 546 263 624 q 253 24 253 179 q 240 -6 253 6 q 210 -17 226 -17 z "},"ì":{"ha":446,"x_min":104,"x_max":319,"o":"m 211 -17 q 183 -5 196 -17 q 171 24 171 7 l 175 310 l 179 544 q 167 599 179 571 q 140 636 154 628 q 113 656 122 647 q 104 676 104 664 q 118 705 104 694 q 150 715 132 715 q 232 669 200 715 q 263 546 264 624 q 254 24 254 179 q 241 -6 254 6 q 211 -17 228 -17 m 299 853 q 271 865 286 853 l 139 1000 q 129 1016 133 1006 q 125 1035 125 1026 q 135 1059 125 1049 q 160 1069 146 1069 q 206 1046 186 1069 l 308 908 q 319 874 319 890 q 313 860 319 867 q 299 853 307 853 z "},"j":{"ha":397,"x_min":32,"x_max":272,"o":"m 214 924 q 172 940 189 924 q 154 983 154 957 q 172 1024 154 1007 q 214 1042 189 1042 q 256 1025 239 1042 q 272 983 272 1008 q 256 941 272 958 q 214 924 239 924 m 72 -378 q 43 -366 54 -378 q 32 -337 32 -354 q 50 -303 32 -314 q 137 -174 104 -268 q 169 61 169 -79 l 171 550 q 158 603 171 576 q 129 639 144 631 q 103 659 113 650 q 94 681 94 668 q 108 708 94 699 q 142 718 122 718 q 222 673 190 718 q 254 551 254 628 l 253 36 q 212 -218 253 -115 q 97 -371 171 -321 q 72 -378 89 -378 z "},"k":{"ha":788,"x_min":85,"x_max":729,"o":"m 717 64 q 729 33 729 54 q 717 3 729 15 q 688 -8 706 -8 q 658 4 671 -8 l 236 379 l 233 36 q 220 6 233 18 q 190 -6 207 -6 q 161 6 172 -6 q 150 36 150 18 q 153 529 150 188 q 160 1072 156 871 q 147 1127 160 1099 q 119 1164 135 1156 q 94 1184 103 1175 q 85 1206 85 1193 q 99 1233 85 1224 q 131 1243 113 1243 q 211 1198 179 1243 q 243 1076 243 1153 q 240 782 243 1004 q 238 661 239 735 q 236 488 236 588 l 656 713 q 676 718 663 718 q 706 706 693 718 q 718 676 718 694 q 713 656 718 665 q 697 642 707 646 l 301 431 l 717 64 z "},"l":{"ha":346,"x_min":117,"x_max":276,"o":"m 211 1190 q 200 150 208 1100 q 213 95 200 124 q 242 58 226 67 q 267 38 258 47 q 276 17 276 29 q 263 -11 276 -1 q 231 -21 249 -21 q 149 24 182 -21 q 117 144 117 68 q 121 758 117 367 q 128 1190 125 1150 q 140 1224 129 1211 q 168 1236 150 1236 q 200 1222 189 1236 q 211 1190 211 1208 z "},"m":{"ha":1286,"x_min":85,"x_max":1231,"o":"m 1194 54 q 1221 35 1211 44 q 1231 14 1231 26 q 1217 -14 1231 -4 q 1183 -24 1203 -24 q 1101 22 1133 -24 q 1071 146 1069 68 l 1074 426 q 1030 578 1074 525 q 900 631 986 631 q 760 575 813 631 q 699 433 707 519 q 697 210 699 360 q 694 35 696 61 q 681 8 693 18 q 651 -3 668 -3 q 622 8 633 -3 q 611 35 611 19 q 614 226 613 78 q 615 443 615 375 q 570 580 615 528 q 451 632 525 632 q 310 579 367 632 q 242 446 253 526 l 233 35 q 221 6 233 17 q 190 -6 208 -6 q 162 6 174 -6 q 150 35 150 18 l 160 544 q 147 599 160 571 q 119 636 135 628 q 94 656 103 647 q 85 678 85 665 q 99 706 85 696 q 131 715 113 715 q 200 684 171 715 q 239 597 229 653 q 335 682 278 653 q 456 711 393 711 q 588 671 529 711 q 674 561 646 631 q 771 672 710 633 q 904 711 832 711 q 1091 637 1025 711 q 1157 429 1157 563 l 1154 147 q 1167 92 1154 121 q 1194 54 1179 63 z "},"n":{"ha":839,"x_min":85,"x_max":782,"o":"m 747 58 q 773 38 764 47 q 782 17 782 29 q 768 -11 782 -1 q 736 -21 754 -21 q 656 24 688 -21 q 624 146 624 69 l 625 328 q 626 436 626 371 q 576 578 626 526 q 439 631 525 631 q 300 571 353 631 q 240 419 247 511 l 240 421 q 233 36 233 150 q 221 6 233 17 q 193 -6 208 -6 q 163 6 176 -6 q 150 36 150 17 l 154 317 l 158 544 q 147 599 160 571 q 119 636 135 628 q 94 656 103 647 q 85 678 85 665 q 99 706 85 696 q 131 715 113 715 q 200 685 171 715 q 238 599 229 654 q 328 682 275 653 q 439 711 381 711 q 635 639 561 711 q 710 449 710 567 l 707 150 q 719 95 707 124 q 747 58 732 67 z "},"ñ":{"ha":833,"x_min":85,"x_max":782,"o":"m 747 58 q 773 38 764 47 q 782 17 782 29 q 768 -11 782 -1 q 736 -21 754 -21 q 656 24 688 -21 q 624 146 624 69 l 625 328 q 626 436 626 371 q 576 578 626 526 q 439 631 525 631 q 300 571 353 631 q 240 419 247 511 l 240 421 q 233 36 233 150 q 221 6 233 17 q 193 -6 208 -6 q 163 6 176 -6 q 150 36 150 17 l 154 317 l 158 544 q 147 599 160 571 q 119 636 135 628 q 94 656 103 647 q 85 678 85 665 q 99 706 85 696 q 131 715 113 715 q 200 685 171 715 q 238 599 229 654 q 328 682 275 653 q 439 711 381 711 q 635 639 561 711 q 710 449 710 567 l 707 150 q 719 95 707 124 q 747 58 732 67 m 531 1007 q 556 1022 539 1022 q 583 999 583 1022 q 575 978 583 986 q 483 913 535 913 q 451 921 465 913 q 418 946 436 929 q 392 967 403 960 q 369 974 382 974 q 342 963 356 974 q 322 933 328 951 q 312 922 319 926 q 296 918 304 918 q 276 926 283 918 q 269 947 269 933 q 271 958 269 954 q 313 1010 286 990 q 368 1029 339 1029 q 439 996 403 1029 q 481 968 464 968 q 509 978 496 968 q 531 1007 522 989 z "},"o":{"ha":814,"x_min":67,"x_max":747,"o":"m 408 -18 q 231 30 308 -18 q 110 162 153 78 q 67 350 67 246 q 110 538 67 454 q 231 669 153 621 q 408 717 308 717 q 584 669 507 717 q 704 538 661 621 q 747 350 747 454 q 704 162 747 246 q 584 30 661 78 q 408 -18 507 -18 m 408 65 q 542 102 483 65 q 632 203 600 139 q 664 350 664 268 q 632 495 664 431 q 542 597 600 560 q 408 633 483 633 q 273 597 332 633 q 182 495 214 560 q 150 350 150 431 q 182 203 150 268 q 273 102 214 139 q 408 65 332 65 z "},"ó":{"ha":814,"x_min":67,"x_max":747,"o":"m 408 -18 q 231 30 308 -18 q 110 162 153 78 q 67 350 67 246 q 110 538 67 454 q 231 669 153 621 q 408 717 308 717 q 584 669 507 717 q 704 538 661 621 q 747 350 747 454 q 704 162 747 246 q 584 30 661 78 q 408 -18 507 -18 m 408 65 q 542 102 483 65 q 632 203 600 139 q 664 350 664 268 q 632 495 664 431 q 542 597 600 560 q 408 633 483 633 q 273 597 332 633 q 182 495 214 560 q 150 350 150 431 q 182 203 150 268 q 273 102 214 139 q 408 65 332 65 m 382 831 q 367 837 374 831 q 361 850 361 843 q 372 885 361 867 l 475 1022 q 521 1047 494 1047 q 545 1037 535 1047 q 556 1011 556 1026 q 551 992 556 1001 q 542 978 547 982 l 410 843 q 382 831 397 831 z "},"ô":{"ha":814,"x_min":67,"x_max":747,"o":"m 408 -18 q 231 30 308 -18 q 110 162 153 78 q 67 350 67 246 q 110 538 67 454 q 231 669 153 621 q 408 717 308 717 q 584 669 507 717 q 704 538 661 621 q 747 350 747 454 q 704 162 747 246 q 584 30 661 78 q 408 -18 507 -18 m 408 65 q 542 102 483 65 q 632 203 600 139 q 664 350 664 268 q 632 495 664 431 q 542 597 600 560 q 408 633 483 633 q 273 597 332 633 q 182 495 214 560 q 150 350 150 431 q 182 203 150 268 q 273 102 214 139 q 408 65 332 65 m 556 938 q 565 917 565 928 q 556 892 565 903 q 532 882 546 882 q 508 892 521 882 l 410 993 l 311 892 q 288 882 299 882 q 264 892 274 882 q 254 917 254 903 q 264 938 254 928 l 382 1063 q 410 1076 396 1076 q 438 1063 424 1076 l 556 938 z "},"ö":{"ha":814,"x_min":67,"x_max":747,"o":"m 408 -18 q 231 30 308 -18 q 110 162 153 78 q 67 350 67 246 q 110 538 67 454 q 231 669 153 621 q 408 717 308 717 q 584 669 507 717 q 704 538 661 621 q 747 350 747 454 q 704 162 747 246 q 584 30 661 78 q 408 -18 507 -18 m 408 65 q 542 102 483 65 q 632 203 600 139 q 664 350 664 268 q 632 495 664 431 q 542 597 600 560 q 408 633 483 633 q 273 597 332 633 q 182 495 214 560 q 150 350 150 431 q 182 203 150 268 q 273 102 214 139 q 408 65 332 65 m 303 893 q 269 907 283 893 q 256 940 256 921 q 269 973 256 960 q 303 986 283 986 q 336 973 322 986 q 350 940 350 960 q 336 907 350 921 q 303 893 322 893 m 529 893 q 496 907 510 893 q 482 940 482 921 q 496 973 482 960 q 529 986 510 986 q 562 973 549 986 q 575 940 575 960 q 562 907 575 921 q 529 893 549 893 z "},"ò":{"ha":833,"x_min":67,"x_max":747,"o":"m 408 -18 q 231 30 308 -18 q 110 162 153 78 q 67 350 67 246 q 110 538 67 454 q 231 669 153 621 q 408 717 308 717 q 584 669 507 717 q 704 538 661 621 q 747 350 747 454 q 704 162 747 246 q 584 30 661 78 q 408 -18 507 -18 m 408 65 q 542 102 483 65 q 632 203 600 139 q 664 350 664 268 q 632 495 664 431 q 542 597 600 560 q 408 633 483 633 q 273 597 332 633 q 182 495 214 560 q 150 350 150 431 q 182 203 150 268 q 273 102 214 139 q 408 65 332 65 m 446 851 q 418 864 433 851 l 286 999 q 276 1015 281 1004 q 272 1033 272 1025 q 283 1058 272 1047 q 307 1068 293 1068 q 353 1044 333 1068 l 456 907 q 467 872 467 889 q 460 858 467 865 q 446 851 454 851 z "},"ø":{"ha":804,"x_min":67,"x_max":747,"o":"m 643 622 q 720 501 693 571 q 747 350 747 431 q 704 162 747 246 q 584 30 661 78 q 408 -18 507 -18 q 221 36 301 -18 l 172 -31 q 142 -47 163 -47 q 118 -35 128 -46 q 108 -11 108 -25 q 115 10 108 1 l 167 81 q 92 200 118 131 q 67 350 67 269 q 110 538 67 454 q 231 669 153 621 q 408 717 308 717 q 589 665 510 717 l 643 740 q 672 756 653 756 q 697 746 686 756 q 707 722 707 736 q 700 700 707 711 l 643 622 m 150 350 q 217 150 150 229 l 540 597 q 408 633 483 633 q 273 597 332 633 q 182 495 214 560 q 150 350 150 431 m 408 65 q 542 102 483 65 q 632 203 600 139 q 664 350 664 268 q 646 462 664 410 q 593 553 628 514 l 269 104 q 408 65 331 65 z "},"õ":{"ha":833,"x_min":67,"x_max":747,"o":"m 408 -18 q 231 30 308 -18 q 110 162 153 78 q 67 350 67 246 q 110 538 67 454 q 231 669 153 621 q 408 717 308 717 q 584 669 507 717 q 704 538 661 621 q 747 350 747 454 q 704 162 747 246 q 584 30 661 78 q 408 -18 507 -18 m 408 65 q 542 102 483 65 q 632 203 600 139 q 664 350 664 268 q 632 495 664 431 q 542 597 600 560 q 408 633 483 633 q 273 597 332 633 q 182 495 214 560 q 150 350 150 431 q 182 203 150 268 q 273 102 214 139 q 408 65 332 65 m 506 1007 q 531 1022 514 1022 q 558 999 558 1022 q 550 978 558 986 q 458 913 510 913 q 426 921 440 913 q 393 946 411 929 q 367 967 378 960 q 344 974 357 974 q 317 963 331 974 q 297 933 303 951 q 287 922 294 926 q 271 918 279 918 q 251 926 258 918 q 244 947 244 933 q 246 958 244 954 q 288 1010 261 990 q 343 1029 314 1029 q 414 996 378 1029 q 456 968 439 968 q 484 978 471 968 q 506 1007 497 989 z "},"œ":{"ha":1240,"x_min":67,"x_max":1174,"o":"m 1132 143 q 1162 132 1150 143 q 1174 104 1174 121 q 1163 74 1174 90 q 1051 -1 1126 28 q 900 -31 976 -31 q 732 19 808 -31 q 615 157 656 69 q 507 28 576 75 q 353 -18 438 -18 q 207 30 272 -18 q 104 162 142 78 q 67 350 67 246 q 104 537 67 453 q 207 669 142 621 q 353 717 272 717 q 512 666 440 717 q 622 529 583 615 q 740 667 665 617 q 910 717 815 717 q 1033 689 978 717 q 1119 613 1088 661 q 1151 504 1151 564 q 1120 411 1151 453 q 1034 345 1089 369 q 911 321 979 321 q 775 342 840 321 q 667 396 710 363 q 661 326 661 367 q 692 188 661 250 q 778 89 724 125 q 900 53 833 53 q 1018 75 961 53 q 1101 131 1075 97 q 1116 140 1107 136 q 1132 143 1125 143 m 353 65 q 466 103 415 65 q 546 205 517 140 q 575 350 575 269 q 546 494 575 429 q 466 596 517 558 q 353 633 415 633 q 249 597 296 633 q 176 495 203 560 q 150 350 150 431 q 176 205 150 269 q 249 103 203 140 q 353 65 296 65 m 910 633 q 781 592 839 633 q 692 478 724 550 q 788 424 728 444 q 911 403 847 403 q 1023 432 978 403 q 1068 504 1068 461 q 1023 597 1068 560 q 910 633 978 633 z "},"p":{"ha":919,"x_min":85,"x_max":853,"o":"m 501 726 q 681 678 600 726 q 807 547 761 631 q 853 361 853 464 q 807 167 853 254 q 681 31 761 81 q 500 -18 600 -18 q 352 23 419 -18 q 240 135 285 64 q 233 -347 235 -306 q 222 -376 233 -364 q 190 -389 210 -389 q 162 -376 174 -389 q 150 -347 150 -364 l 161 544 q 148 599 161 571 q 119 636 135 628 q 94 656 103 647 q 85 678 85 665 q 99 706 85 696 q 131 715 113 715 q 205 680 174 715 q 243 582 236 644 q 355 688 288 649 q 501 726 422 726 m 500 65 q 638 104 576 65 q 734 210 699 143 q 769 361 769 278 q 734 506 769 442 q 638 606 699 569 q 500 643 576 643 q 368 606 426 643 q 276 506 310 569 q 243 361 243 442 q 276 209 243 276 q 368 103 310 142 q 500 65 426 65 z "},"þ":{"ha":856,"x_min":85,"x_max":789,"o":"m 436 726 q 616 678 535 726 q 743 547 697 631 q 789 361 789 464 q 743 167 789 254 q 617 31 697 81 q 436 -18 536 -18 q 286 21 354 -18 q 174 128 218 60 l 168 -347 q 155 -377 167 -365 q 126 -389 143 -389 q 97 -377 108 -389 q 85 -347 85 -365 l 92 503 q 97 1065 97 1003 q 109 1104 97 1089 q 139 1119 121 1119 q 168 1104 156 1119 q 181 1065 181 1089 l 178 592 q 289 691 222 656 q 436 726 356 726 m 436 65 q 574 104 513 65 q 670 210 635 143 q 706 361 706 278 q 670 506 706 442 q 574 606 635 569 q 436 643 513 643 q 305 606 364 643 q 212 506 246 569 q 178 361 178 442 q 211 209 178 276 q 303 103 244 142 q 436 65 363 65 z "},"q":{"ha":872,"x_min":67,"x_max":764,"o":"m 722 706 q 752 693 740 706 q 764 658 764 681 l 753 -347 q 741 -377 753 -365 q 711 -389 729 -389 q 682 -377 694 -389 q 669 -347 669 -365 l 675 126 q 567 20 632 58 q 421 -18 501 -18 q 240 31 321 -18 q 113 167 158 81 q 67 361 67 254 q 113 547 67 464 q 240 678 160 631 q 421 726 321 726 q 571 687 504 726 q 679 576 638 647 l 681 661 q 694 692 682 679 q 722 706 706 706 m 421 65 q 546 100 489 65 q 638 196 603 135 q 676 335 672 257 l 678 378 q 640 515 674 454 q 548 609 606 575 q 421 643 490 643 q 283 606 344 643 q 185 506 221 569 q 150 361 150 442 q 185 210 150 278 q 283 103 221 142 q 421 65 344 65 z "},"r":{"ha":647,"x_min":85,"x_max":592,"o":"m 421 703 q 542 660 492 703 q 592 550 592 617 q 560 460 592 501 q 479 399 528 419 q 463 396 468 396 q 433 408 446 396 q 421 436 421 419 q 428 460 421 450 q 447 476 436 471 q 490 506 471 485 q 508 550 508 528 q 483 603 508 583 q 421 624 457 624 l 228 624 q 246 539 246 583 l 242 358 q 235 22 235 29 q 222 -7 233 6 q 193 -19 210 -19 q 163 -7 175 -19 q 151 22 151 6 q 158 357 151 31 l 163 538 q 149 592 163 567 q 118 625 136 617 q 85 668 85 647 q 96 693 85 683 q 124 703 107 703 l 421 703 z "},"s":{"ha":696,"x_min":67,"x_max":626,"o":"m 356 -15 q 195 27 278 -15 q 72 133 113 69 q 67 154 67 143 q 78 184 67 172 q 108 196 90 196 q 143 176 132 196 q 231 97 169 128 q 356 65 293 65 q 492 92 442 65 q 543 168 543 119 q 500 247 543 214 q 350 319 457 281 q 176 405 243 358 q 108 532 108 451 q 142 627 108 585 q 234 694 176 669 q 361 718 292 718 q 524 677 453 718 q 624 569 596 636 q 626 551 626 564 q 615 521 626 532 q 586 510 604 510 q 565 516 575 510 q 547 533 554 522 q 475 608 526 579 q 358 638 424 638 q 239 608 286 638 q 192 532 192 578 q 244 453 192 486 q 385 393 296 421 q 570 301 514 351 q 626 168 626 251 q 554 33 626 82 q 356 -15 482 -15 z "},"ß":{"ha":789,"x_min":85,"x_max":722,"o":"m 479 607 q 658 499 594 582 q 722 303 722 417 q 675 133 722 206 q 540 20 628 60 q 332 -19 451 -19 q 300 -7 314 -19 q 286 22 286 6 q 298 51 286 39 q 326 64 310 63 q 492 94 421 64 q 601 179 563 125 q 639 304 639 233 q 603 433 639 374 q 503 528 568 492 q 353 567 439 564 q 324 579 338 567 q 311 608 311 592 q 322 636 311 625 q 349 650 332 647 q 458 698 410 658 q 532 797 506 738 q 558 922 558 857 q 503 1078 558 1019 q 361 1136 449 1136 q 220 1057 272 1136 q 168 817 168 978 l 168 36 q 156 6 168 18 q 126 -6 143 -6 q 97 6 108 -6 q 85 36 85 18 l 85 817 q 160 1117 85 1014 q 361 1219 235 1219 q 506 1183 442 1219 q 606 1078 569 1146 q 642 922 642 1010 q 595 735 642 822 q 474 617 549 649 q 458 611 467 614 l 479 607 z "},"t":{"ha":506,"x_min":61,"x_max":454,"o":"m 413 696 q 442 684 431 696 q 454 654 454 672 q 442 625 454 638 q 413 613 431 613 l 263 613 q 264 188 263 236 q 290 113 265 135 q 353 81 314 90 q 382 63 371 76 q 393 32 393 50 q 380 3 393 14 q 349 -8 367 -8 q 267 13 306 -8 q 204 75 228 35 q 181 168 181 115 q 179 613 181 428 l 103 613 q 74 625 86 613 q 61 654 61 638 q 74 684 61 672 q 103 696 86 696 l 179 696 l 179 942 q 191 971 179 958 q 221 983 203 983 q 250 971 238 983 q 263 942 263 958 l 263 696 l 413 696 z "},"u":{"ha":846,"x_min":85,"x_max":789,"o":"m 754 57 q 789 15 789 39 q 775 -12 789 -3 q 743 -21 761 -21 q 669 15 700 -21 q 631 114 638 51 q 534 22 592 57 q 403 -14 476 -14 q 278 17 333 -14 q 190 104 222 49 q 158 231 158 160 q 160 544 158 426 q 147 599 160 571 q 119 636 135 628 q 94 656 103 647 q 85 678 85 665 q 99 706 85 696 q 131 715 113 715 q 211 670 179 715 q 243 549 243 625 l 242 239 q 289 117 242 165 q 406 69 336 69 q 510 101 458 69 q 594 183 561 132 q 632 288 628 233 l 639 665 q 652 693 640 682 q 681 704 664 704 q 710 692 697 704 q 722 664 722 681 l 714 150 q 726 95 713 125 q 754 57 739 65 z "},"ú":{"ha":846,"x_min":85,"x_max":789,"o":"m 754 57 q 789 15 789 39 q 775 -12 789 -3 q 743 -21 761 -21 q 669 15 700 -21 q 631 114 638 51 q 534 22 592 57 q 403 -14 476 -14 q 278 17 333 -14 q 190 104 222 49 q 158 231 158 160 q 160 544 158 426 q 147 599 160 571 q 119 636 135 628 q 94 656 103 647 q 85 678 85 665 q 99 706 85 696 q 131 715 113 715 q 211 670 179 715 q 243 549 243 625 l 242 239 q 289 117 242 165 q 406 69 336 69 q 510 101 458 69 q 594 183 561 132 q 632 288 628 233 l 639 665 q 652 693 640 682 q 681 704 664 704 q 710 692 697 704 q 722 664 722 681 l 714 150 q 726 95 713 125 q 754 57 739 65 m 350 831 q 335 837 342 831 q 329 850 329 843 q 340 885 329 867 l 443 1022 q 489 1047 463 1047 q 513 1037 503 1047 q 524 1011 524 1026 q 519 992 524 1001 q 510 978 515 982 l 378 843 q 350 831 365 831 z "},"û":{"ha":846,"x_min":85,"x_max":789,"o":"m 754 57 q 789 15 789 39 q 775 -12 789 -3 q 743 -21 761 -21 q 669 15 700 -21 q 631 114 638 51 q 534 22 592 57 q 403 -14 476 -14 q 278 17 333 -14 q 190 104 222 49 q 158 231 158 160 q 160 544 158 426 q 147 599 160 571 q 119 636 135 628 q 94 656 103 647 q 85 678 85 665 q 99 706 85 696 q 131 715 113 715 q 211 670 179 715 q 243 549 243 625 l 242 239 q 289 117 242 165 q 406 69 336 69 q 510 101 458 69 q 594 183 561 132 q 632 288 628 233 l 639 665 q 652 693 640 682 q 681 704 664 704 q 710 692 697 704 q 722 664 722 681 l 714 150 q 726 95 713 125 q 754 57 739 65 m 564 938 q 574 917 574 928 q 564 892 574 903 q 540 882 554 882 q 517 892 529 882 l 418 993 l 319 892 q 296 882 307 882 q 272 892 282 882 q 263 917 263 903 q 272 938 263 928 l 390 1063 q 418 1076 404 1076 q 446 1063 432 1076 l 564 938 z "},"ü":{"ha":846,"x_min":85,"x_max":789,"o":"m 754 57 q 789 15 789 39 q 775 -12 789 -3 q 743 -21 761 -21 q 669 15 700 -21 q 631 114 638 51 q 534 22 592 57 q 403 -14 476 -14 q 278 17 333 -14 q 190 104 222 49 q 158 231 158 160 q 160 544 158 426 q 147 599 160 571 q 119 636 135 628 q 94 656 103 647 q 85 678 85 665 q 99 706 85 696 q 131 715 113 715 q 211 670 179 715 q 243 549 243 625 l 242 239 q 289 117 242 165 q 406 69 336 69 q 510 101 458 69 q 594 183 561 132 q 632 288 628 233 l 639 665 q 652 693 640 682 q 681 704 664 704 q 710 692 697 704 q 722 664 722 681 l 714 150 q 726 95 713 125 q 754 57 739 65 m 296 893 q 263 907 276 893 q 249 940 249 921 q 263 973 249 960 q 296 986 276 986 q 329 973 315 986 q 343 940 343 960 q 329 907 343 921 q 296 893 315 893 m 522 893 q 489 907 503 893 q 475 940 475 921 q 489 973 475 960 q 522 986 503 986 q 555 973 542 986 q 568 940 568 960 q 555 907 568 921 q 522 893 542 893 z "},"ù":{"ha":846,"x_min":85,"x_max":789,"o":"m 754 57 q 789 15 789 39 q 775 -12 789 -3 q 743 -21 761 -21 q 669 15 700 -21 q 631 114 638 51 q 534 22 592 57 q 403 -14 476 -14 q 278 17 333 -14 q 190 104 222 49 q 158 231 158 160 q 160 544 158 426 q 147 599 160 571 q 119 636 135 628 q 94 656 103 647 q 85 678 85 665 q 99 706 85 696 q 131 715 113 715 q 211 670 179 715 q 243 549 243 625 l 242 239 q 289 117 242 165 q 406 69 336 69 q 510 101 458 69 q 594 183 561 132 q 632 288 628 233 l 639 665 q 652 693 640 682 q 681 704 664 704 q 710 692 697 704 q 722 664 722 681 l 714 150 q 726 95 713 125 q 754 57 739 65 m 451 851 q 424 864 439 851 l 292 999 q 282 1015 286 1004 q 278 1033 278 1025 q 288 1058 278 1047 q 313 1068 299 1068 q 358 1044 339 1068 l 461 907 q 472 872 472 889 q 466 858 472 865 q 451 851 460 851 z "},"v":{"ha":801,"x_min":67,"x_max":735,"o":"m 693 710 q 722 698 710 710 q 735 669 733 686 q 731 651 735 660 l 432 1 q 397 -26 419 -26 q 378 -19 388 -26 q 363 3 368 -11 l 71 650 q 67 668 67 658 q 80 697 68 685 q 108 708 92 708 q 146 683 135 708 l 401 113 l 656 685 q 693 710 667 710 z "},"w":{"ha":1143,"x_min":67,"x_max":1076,"o":"m 1036 708 q 1065 697 1053 708 q 1076 669 1076 686 q 1074 650 1076 656 l 807 10 q 772 -18 794 -18 q 736 11 751 -18 l 576 336 l 401 10 q 386 -12 394 -6 q 365 -18 378 -18 q 332 11 346 -18 l 69 649 q 67 665 67 654 q 78 694 67 682 q 107 707 90 707 q 144 682 133 707 l 374 119 l 532 424 l 431 631 q 428 650 428 638 q 440 678 428 665 q 469 690 453 690 q 491 683 481 690 q 507 665 501 676 l 771 125 l 999 683 q 1036 708 1010 708 z "},"ẃ":{"ha":1143,"x_min":67,"x_max":1076,"o":"m 1036 708 q 1065 697 1053 708 q 1076 669 1076 686 q 1074 650 1076 656 l 807 10 q 772 -18 794 -18 q 736 11 751 -18 l 576 336 l 401 10 q 386 -12 394 -6 q 365 -18 378 -18 q 332 11 346 -18 l 69 649 q 67 665 67 654 q 78 694 67 682 q 107 707 90 707 q 144 682 133 707 l 374 119 l 532 424 l 431 631 q 428 650 428 638 q 440 678 428 665 q 469 690 453 690 q 491 683 481 690 q 507 665 501 676 l 771 125 l 999 683 q 1036 708 1010 708 m 540 831 q 526 837 532 831 q 519 850 519 843 q 531 885 519 867 l 633 1022 q 679 1047 653 1047 q 703 1037 693 1047 q 714 1011 714 1026 q 710 992 714 1001 q 700 978 706 982 l 568 843 q 540 831 556 831 z "},"ŵ":{"ha":1143,"x_min":67,"x_max":1076,"o":"m 1036 708 q 1065 697 1053 708 q 1076 669 1076 686 q 1074 650 1076 656 l 807 10 q 772 -18 794 -18 q 736 11 751 -18 l 576 336 l 401 10 q 386 -12 394 -6 q 365 -18 378 -18 q 332 11 346 -18 l 69 649 q 67 665 67 654 q 78 694 67 682 q 107 707 90 707 q 144 682 133 707 l 374 119 l 532 424 l 431 631 q 428 650 428 638 q 440 678 428 665 q 469 690 453 690 q 491 683 481 690 q 507 665 501 676 l 771 125 l 999 683 q 1036 708 1010 708 m 719 938 q 729 917 729 928 q 719 892 729 903 q 696 882 710 882 q 672 892 685 882 l 574 993 l 475 892 q 451 882 463 882 q 428 892 438 882 q 418 917 418 903 q 428 938 418 928 l 546 1063 q 574 1076 560 1076 q 601 1063 588 1076 l 719 938 z "},"ẅ":{"ha":1143,"x_min":67,"x_max":1076,"o":"m 1036 708 q 1065 697 1053 708 q 1076 669 1076 686 q 1074 650 1076 656 l 807 10 q 772 -18 794 -18 q 736 11 751 -18 l 576 336 l 401 10 q 386 -12 394 -6 q 365 -18 378 -18 q 332 11 346 -18 l 69 649 q 67 665 67 654 q 78 694 67 682 q 107 707 90 707 q 144 682 133 707 l 374 119 l 532 424 l 431 631 q 428 650 428 638 q 440 678 428 665 q 469 690 453 690 q 491 683 481 690 q 507 665 501 676 l 771 125 l 999 683 q 1036 708 1010 708 m 468 893 q 435 907 449 893 q 421 940 421 921 q 435 973 421 960 q 468 986 449 986 q 501 973 488 986 q 515 940 515 960 q 501 907 515 921 q 468 893 488 893 m 694 893 q 661 907 675 893 q 647 940 647 921 q 661 973 647 960 q 694 986 675 986 q 727 973 714 986 q 740 940 740 960 q 727 907 740 921 q 694 893 714 893 z "},"ẁ":{"ha":1143,"x_min":67,"x_max":1076,"o":"m 1036 708 q 1065 697 1053 708 q 1076 669 1076 686 q 1074 650 1076 656 l 807 10 q 772 -18 794 -18 q 736 11 751 -18 l 576 336 l 401 10 q 386 -12 394 -6 q 365 -18 378 -18 q 332 11 346 -18 l 69 649 q 67 665 67 654 q 78 694 67 682 q 107 707 90 707 q 144 682 133 707 l 374 119 l 532 424 l 431 631 q 428 650 428 638 q 440 678 428 665 q 469 690 453 690 q 491 683 481 690 q 507 665 501 676 l 771 125 l 999 683 q 1036 708 1010 708 m 631 851 q 603 864 618 851 l 471 999 q 461 1015 465 1004 q 457 1033 457 1025 q 467 1058 457 1047 q 492 1068 478 1068 q 538 1044 518 1068 l 640 907 q 651 872 651 889 q 645 858 651 865 q 631 851 639 851 z "},"x":{"ha":733,"x_min":65,"x_max":668,"o":"m 426 353 l 660 56 q 668 29 668 46 q 656 0 668 13 q 626 -12 644 -12 q 608 -8 618 -12 q 593 4 599 -3 l 371 286 l 140 3 q 107 -14 124 -14 q 77 -1 89 -14 q 65 28 65 11 q 74 53 65 44 l 319 354 l 92 643 q 83 668 83 654 q 95 698 83 686 q 125 710 107 710 q 158 694 143 710 l 374 421 l 593 690 q 626 707 608 707 q 656 695 644 707 q 668 665 668 683 q 660 640 668 651 l 426 353 z "},"y":{"ha":793,"x_min":71,"x_max":728,"o":"m 685 713 q 714 700 701 713 q 728 671 726 688 q 725 653 728 658 l 371 -111 q 255 -313 308 -249 q 124 -397 201 -378 q 113 -399 119 -399 q 84 -386 96 -399 q 72 -356 72 -374 q 81 -330 72 -342 q 104 -315 90 -318 q 202 -249 161 -301 q 294 -82 243 -196 l 329 -6 l 74 651 q 71 669 71 663 q 83 697 71 685 q 113 708 96 708 q 135 701 125 708 q 151 681 146 693 l 376 97 l 646 686 q 662 705 651 697 q 685 713 672 713 z "},"ý":{"ha":793,"x_min":71,"x_max":728,"o":"m 685 713 q 714 700 701 713 q 728 671 726 688 q 725 653 728 658 l 371 -111 q 255 -313 308 -249 q 124 -397 201 -378 q 113 -399 119 -399 q 84 -386 96 -399 q 72 -356 72 -374 q 81 -330 72 -342 q 104 -315 90 -318 q 202 -249 161 -301 q 294 -82 243 -196 l 329 -6 l 74 651 q 71 669 71 663 q 83 697 71 685 q 113 708 96 708 q 135 701 125 708 q 151 681 146 693 l 376 97 l 646 686 q 662 705 651 697 q 685 713 672 713 m 335 831 q 320 837 326 831 q 314 850 314 843 q 325 885 314 867 l 428 1022 q 474 1047 447 1047 q 498 1037 488 1047 q 508 1011 508 1026 q 504 992 508 1001 q 494 978 500 982 l 363 843 q 335 831 350 831 z "},"ÿ":{"ha":793,"x_min":71,"x_max":728,"o":"m 685 713 q 714 700 701 713 q 728 671 726 688 q 725 653 728 658 l 371 -111 q 255 -313 308 -249 q 124 -397 201 -378 q 113 -399 119 -399 q 84 -386 96 -399 q 72 -356 72 -374 q 81 -330 72 -342 q 104 -315 90 -318 q 202 -249 161 -301 q 294 -82 243 -196 l 329 -6 l 74 651 q 71 669 71 663 q 83 697 71 685 q 113 708 96 708 q 135 701 125 708 q 151 681 146 693 l 376 97 l 646 686 q 662 705 651 697 q 685 713 672 713 m 278 893 q 244 907 258 893 q 231 940 231 921 q 244 973 231 960 q 278 986 258 986 q 311 973 297 986 q 325 940 325 960 q 311 907 325 921 q 278 893 297 893 m 504 893 q 471 907 485 893 q 457 940 457 921 q 471 973 457 960 q 504 986 485 986 q 537 973 524 986 q 550 940 550 960 q 537 907 550 921 q 504 893 524 893 z "},"z":{"ha":758,"x_min":69,"x_max":689,"o":"m 647 83 q 676 71 664 83 q 689 42 689 58 q 676 12 689 24 q 647 0 664 0 l 113 0 q 81 10 92 0 q 69 35 69 19 q 81 63 69 47 l 524 614 l 126 614 q 97 626 108 614 q 85 656 85 639 q 97 685 85 674 q 126 697 108 697 l 619 697 q 649 689 638 697 q 661 668 661 681 q 650 635 661 651 l 207 83 l 647 83 z "},"ª":{"ha":747,"x_min":108,"x_max":604,"o":"m 571 665 q 604 629 604 656 q 592 604 604 615 q 565 593 581 593 q 481 628 511 593 q 451 722 451 664 q 457 900 451 815 q 340 847 411 869 q 219 794 260 821 q 179 726 179 768 q 201 678 179 697 q 256 658 222 658 q 299 672 281 658 q 344 721 317 686 q 371 735 358 735 q 393 726 385 735 q 401 701 401 717 q 397 684 401 692 q 386 669 393 676 q 257 589 324 589 q 151 627 193 589 q 108 724 108 665 q 167 838 108 793 q 322 911 225 882 q 426 956 389 932 q 464 1011 464 981 l 464 1018 q 433 1081 464 1058 q 346 1103 403 1103 q 258 1085 294 1103 q 208 1035 222 1067 q 195 1019 204 1025 q 176 1014 186 1014 q 150 1025 161 1014 q 139 1051 139 1036 q 172 1113 139 1083 q 253 1159 204 1142 q 346 1176 301 1176 q 483 1132 432 1176 q 533 1015 533 1088 l 533 1003 q 526 857 529 935 q 522 728 522 779 q 536 684 522 699 q 571 665 550 669 z "},"º":{"ha":683,"x_min":74,"x_max":610,"o":"m 343 624 q 204 661 265 624 q 108 765 143 699 q 74 913 74 831 q 108 1060 74 994 q 204 1163 143 1126 q 343 1200 265 1200 q 480 1163 419 1200 q 575 1060 540 1125 q 610 913 610 994 q 575 763 610 829 q 480 660 540 697 q 343 624 419 624 m 343 700 q 481 759 428 700 q 533 913 533 818 q 481 1065 533 1006 q 343 1124 428 1124 q 203 1065 257 1124 q 150 913 150 1007 q 203 759 150 818 q 343 700 257 700 z "},"あ":{"ha":1389,"x_min":274,"x_max":1182,"o":"m 822 782 q 1005 737 922 782 q 1135 614 1088 692 q 1182 442 1182 536 q 1112 196 1182 313 q 930 8 1042 79 q 701 -62 818 -62 q 674 -49 686 -62 q 663 -18 663 -36 q 672 8 663 -4 q 697 21 681 19 q 899 94 808 32 q 1042 249 990 156 q 1094 442 1094 342 q 1059 573 1094 514 q 961 666 1024 632 q 822 700 899 700 q 649 671 743 700 q 658 489 651 558 q 706 593 692 546 q 719 611 708 604 q 743 618 729 618 q 772 607 761 618 q 783 578 783 596 q 754 488 783 543 q 676 374 725 432 q 690 332 683 347 q 697 306 697 315 q 685 274 697 288 q 654 261 672 261 q 630 267 642 261 q 614 286 618 274 q 608 299 611 294 q 499 212 553 244 q 404 179 446 179 q 307 224 340 179 q 274 357 274 269 q 308 497 274 426 q 408 629 343 568 q 561 729 472 690 q 564 846 561 765 l 549 846 q 376 897 435 846 q 363 929 363 910 q 372 956 363 943 q 406 971 386 971 q 428 964 421 971 q 547 932 471 932 l 569 932 q 579 1068 575 1021 q 594 1099 582 1089 q 625 1110 607 1110 q 653 1101 642 1110 q 665 1076 665 1092 q 661 1006 665 1054 q 658 949 661 985 q 744 989 707 963 q 767 994 754 994 q 797 983 783 994 q 810 954 810 971 q 790 919 810 932 q 653 858 735 878 q 650 760 650 800 q 822 782 735 782 m 585 389 q 561 633 565 481 q 415 517 471 586 q 360 365 360 447 q 375 285 360 303 q 414 267 390 267 q 490 301 443 267 q 585 389 536 335 z "},"ぁ":{"ha":1389,"x_min":368,"x_max":1076,"o":"m 793 593 q 937 560 872 593 q 1039 467 1001 526 q 1076 333 1076 407 q 1030 157 1076 240 q 898 14 983 74 q 701 -69 813 -46 q 692 -71 700 -71 q 669 -59 679 -69 q 658 -35 658 -49 q 694 8 658 -3 q 851 77 783 29 q 958 192 919 125 q 996 333 996 258 q 967 428 996 386 q 891 493 939 469 q 788 517 843 517 q 668 499 733 517 q 674 382 668 428 q 697 432 689 410 q 740 464 711 464 q 764 454 754 464 q 774 431 774 444 q 767 403 774 421 q 690 272 742 338 l 703 235 q 706 217 706 229 q 694 190 706 200 q 665 179 683 179 q 642 186 653 179 q 628 203 632 193 q 547 142 588 164 q 475 119 507 119 q 396 155 424 119 q 368 263 368 190 q 428 426 368 346 q 589 551 488 507 l 590 631 l 585 631 q 453 669 501 631 q 436 701 436 682 q 447 728 436 717 q 474 740 458 740 q 492 732 486 740 q 585 707 525 707 l 594 707 q 601 804 596 736 q 616 833 603 822 q 646 843 629 843 q 672 832 663 843 q 682 804 682 821 l 682 797 q 676 722 679 772 q 738 751 713 735 q 757 757 744 757 q 782 747 771 757 q 794 722 793 738 q 789 703 794 713 q 774 688 783 693 q 671 643 724 657 l 669 579 q 793 593 732 593 m 607 289 q 590 467 593 365 q 484 382 524 432 q 444 271 444 332 q 456 211 444 225 q 485 197 467 197 q 536 223 501 197 q 607 289 571 249 z "},"い":{"ha":1389,"x_min":156,"x_max":1275,"o":"m 963 832 q 1111 747 1039 804 q 1229 613 1183 690 q 1275 449 1275 535 q 1263 417 1275 431 q 1232 403 1250 403 q 1201 414 1215 403 q 1185 442 1186 425 q 1102 637 1174 558 q 931 751 1031 715 q 903 793 903 764 q 916 824 903 813 q 946 835 929 835 q 963 832 954 835 m 540 497 q 567 487 557 497 q 576 463 576 476 q 572 444 576 461 q 519 215 519 300 q 531 151 519 172 q 536 124 536 140 q 524 101 536 110 q 494 92 513 92 q 400 136 451 92 q 197 544 254 261 q 158 749 186 597 l 156 771 q 168 799 156 788 q 199 810 181 810 q 228 801 215 810 q 243 778 242 793 q 262 671 251 729 q 282 569 272 613 q 342 372 304 460 q 440 215 379 285 q 465 363 442 286 q 508 478 488 440 q 540 497 518 497 z "},"ぃ":{"ha":1389,"x_min":268,"x_max":1140,"o":"m 894 593 q 1066 479 992 558 q 1140 296 1140 400 q 1128 266 1140 279 q 1099 253 1115 253 q 1071 263 1083 253 q 1057 288 1058 272 q 995 432 1049 374 q 864 521 942 490 q 844 535 850 526 q 838 560 838 544 q 849 585 838 575 q 875 596 861 596 q 894 593 890 596 m 575 333 q 594 325 588 333 q 601 304 601 317 q 596 278 601 292 q 557 106 557 174 q 565 63 557 79 q 569 43 569 53 q 560 21 569 29 q 535 13 550 13 q 458 47 497 13 q 362 177 400 99 q 297 361 324 256 q 268 531 268 493 q 278 565 268 550 q 304 579 288 579 q 346 544 340 579 q 372 401 350 506 q 492 128 413 222 q 508 228 494 178 q 538 306 522 278 q 554 326 546 319 q 575 333 563 333 z "},"う":{"ha":1389,"x_min":364,"x_max":914,"o":"m 586 1068 q 574 1100 574 1083 q 587 1128 575 1117 q 614 1140 599 1140 q 642 1129 631 1140 q 878 992 754 1013 q 914 950 914 985 q 903 922 914 935 q 878 910 893 910 q 861 911 867 910 q 715 963 782 925 q 586 1068 647 1001 m 611 -93 q 579 -81 592 -93 q 567 -49 567 -69 q 588 -10 567 -24 q 770 203 724 85 q 817 417 817 321 q 792 591 817 529 q 706 653 768 653 q 576 603 653 653 q 460 558 507 558 q 412 570 436 558 q 374 600 388 582 q 364 632 364 611 q 375 661 364 650 q 401 672 386 672 q 428 663 418 672 q 463 647 446 647 q 500 655 481 647 q 535 674 519 663 q 625 722 579 704 q 708 740 671 740 q 856 653 808 740 q 904 419 904 565 q 884 268 904 354 q 804 85 864 182 q 636 -83 744 -11 q 625 -90 632 -87 q 611 -93 618 -93 z "},"ぅ":{"ha":1389,"x_min":421,"x_max":860,"o":"m 813 661 q 704 698 767 661 q 588 792 642 735 q 578 817 578 804 q 590 846 578 835 q 618 857 601 857 q 647 844 635 857 q 825 738 726 765 q 860 694 860 729 q 847 669 860 678 q 813 661 833 661 m 618 -118 q 588 -106 599 -118 q 578 -76 578 -93 q 594 -46 578 -58 q 732 122 696 25 q 768 289 768 218 q 751 415 768 371 q 690 458 735 458 q 645 449 671 458 q 596 424 619 439 q 501 386 535 386 q 446 405 471 386 q 421 450 421 424 q 432 477 421 467 q 458 488 443 488 q 482 478 474 488 q 503 469 490 469 q 554 488 528 469 q 625 526 588 513 q 693 539 663 539 q 849 290 849 539 q 803 81 849 196 q 640 -111 757 -33 q 618 -118 631 -118 z "},"え":{"ha":1389,"x_min":319,"x_max":1174,"o":"m 604 989 q 572 1033 572 994 q 584 1059 572 1049 q 611 1071 596 1069 q 624 1069 619 1071 q 785 996 719 1044 q 850 896 850 947 q 836 862 850 874 q 803 850 822 850 q 733 842 768 850 q 675 824 697 835 q 647 817 661 817 q 622 826 632 817 q 613 851 613 835 q 628 878 613 871 q 684 904 647 893 q 751 917 721 915 q 604 989 708 961 m 1131 79 q 1161 69 1149 79 q 1174 39 1174 58 q 1144 -6 1174 6 q 1036 -32 1101 -22 q 906 -42 971 -42 q 794 -28 836 -42 q 720 17 751 -14 q 653 111 689 49 q 563 200 599 200 q 508 180 532 200 q 454 110 483 160 l 401 11 q 385 -4 397 3 q 360 -11 372 -11 q 330 1 340 -10 q 319 28 319 13 q 324 50 319 42 q 396 172 338 79 q 552 396 460 268 q 700 594 644 524 q 706 603 703 599 q 714 613 710 608 l 685 601 l 578 558 q 460 536 518 536 q 394 550 417 536 q 378 566 385 556 q 372 589 372 576 q 383 619 372 607 q 413 632 394 632 q 428 628 421 632 q 463 622 439 622 q 549 638 511 622 q 681 682 639 671 q 751 693 724 693 q 790 678 774 693 q 806 643 806 663 q 769 567 806 617 q 567 276 679 444 q 581 278 571 278 q 657 247 625 278 q 718 160 689 217 q 792 71 756 94 q 897 47 828 47 q 1011 53 961 47 q 1110 76 1061 60 l 1131 79 z "},"ぇ":{"ha":1389,"x_min":411,"x_max":1082,"o":"m 635 725 q 611 739 619 728 q 603 763 603 750 q 615 788 603 778 q 642 797 626 797 q 654 796 650 797 q 780 740 728 779 q 832 657 832 700 q 819 624 832 635 q 783 613 806 613 q 696 597 725 613 q 665 589 682 589 q 644 597 653 589 q 635 617 635 606 q 650 644 635 633 q 692 662 665 656 q 743 669 718 668 q 635 725 710 704 m 1046 33 q 1071 22 1060 33 q 1082 -6 1082 11 q 1076 -29 1082 -18 q 1058 -44 1069 -40 q 871 -74 992 -74 q 755 -36 808 -74 q 678 47 701 1 q 644 102 657 85 q 619 119 632 119 q 576 102 594 119 q 531 43 557 85 q 485 -32 519 25 q 450 -51 472 -51 q 422 -37 432 -50 q 411 -10 411 -24 q 417 8 411 1 q 611 294 488 119 q 703 425 628 319 q 529 375 606 375 q 472 386 494 375 q 451 421 451 396 q 463 446 453 436 q 486 456 472 456 q 506 453 494 456 q 531 449 518 449 q 590 460 561 449 q 688 494 656 485 q 736 504 719 504 q 775 490 758 504 q 792 456 792 476 q 779 417 792 436 q 622 183 704 307 l 625 183 q 683 159 658 183 q 735 89 708 135 q 790 28 754 56 q 860 1 825 1 q 1029 31 944 1 q 1046 33 1035 33 z "},"お":{"ha":1389,"x_min":111,"x_max":1294,"o":"m 932 596 q 1096 544 1036 596 q 1156 404 1156 493 q 1093 233 1156 313 q 926 106 1031 153 q 700 58 821 58 q 667 72 679 58 q 654 104 654 85 q 667 134 654 121 q 700 147 681 147 q 881 182 796 147 q 1017 276 967 217 q 1068 403 1068 335 q 1029 481 1068 451 q 924 510 990 510 q 758 462 860 510 q 539 329 657 414 q 528 39 538 181 q 507 1 526 15 q 464 -14 488 -14 q 417 3 440 -14 q 357 58 394 19 q 258 140 303 118 q 163 107 196 107 q 126 119 142 107 q 111 150 111 131 q 122 184 111 171 q 149 200 132 197 q 272 256 188 208 q 453 368 357 304 l 453 451 q 451 613 453 560 q 267 586 350 586 q 171 594 207 586 q 147 611 156 599 q 139 640 139 624 q 153 669 139 657 q 182 681 167 681 q 219 678 192 681 q 265 676 233 676 q 449 704 349 676 q 425 985 442 871 q 421 1035 421 1010 q 433 1063 421 1051 q 461 1074 444 1074 q 493 1064 479 1074 q 510 1035 507 1054 q 535 731 529 910 l 592 754 q 611 758 600 758 q 640 747 628 758 q 654 717 653 735 q 628 675 654 689 q 539 639 569 650 q 540 501 540 594 l 540 426 q 932 596 804 596 m 1071 815 q 1178 783 1126 815 q 1263 699 1231 751 q 1294 586 1294 646 q 1281 555 1294 568 q 1251 542 1268 542 q 1223 556 1235 542 q 1210 590 1211 571 q 1167 688 1210 649 q 1064 735 1124 726 q 1038 749 1047 738 q 1028 778 1028 761 q 1041 805 1028 794 q 1071 815 1054 815 m 329 182 q 443 88 385 146 q 450 265 449 192 q 329 182 385 215 z "},"ぉ":{"ha":1389,"x_min":242,"x_max":1168,"o":"m 875 431 q 1007 389 958 431 q 1056 275 1056 347 q 1007 142 1056 204 q 876 40 958 79 q 700 1 794 1 q 674 13 685 1 q 663 42 663 25 q 673 67 663 57 q 700 78 683 78 q 836 106 771 78 q 941 178 901 133 q 981 272 981 224 q 953 331 981 310 q 874 351 925 351 q 747 315 829 351 q 583 221 664 278 q 572 1 583 97 q 555 -40 571 -26 q 517 -53 539 -53 q 432 3 483 -53 q 361 65 397 40 q 288 39 317 39 q 256 49 269 39 q 242 78 242 60 q 276 125 242 115 q 372 170 304 132 q 507 254 439 208 l 507 306 q 506 429 507 389 q 364 408 419 408 q 290 417 317 408 q 268 433 275 421 q 261 460 261 444 q 273 485 261 475 q 300 496 285 496 q 319 494 314 496 q 363 490 342 490 q 501 510 426 490 q 482 740 494 639 q 481 760 481 746 q 491 788 481 776 q 517 799 501 799 q 545 790 535 799 q 558 765 556 781 q 581 539 574 681 q 610 553 600 547 q 642 563 626 563 q 667 553 656 563 q 678 526 678 544 q 646 483 678 500 q 621 472 639 481 q 583 456 603 463 q 585 342 585 418 l 585 303 q 755 398 685 365 q 875 431 825 431 m 988 604 q 1078 578 1036 604 q 1144 511 1119 553 q 1168 424 1168 469 q 1158 397 1168 408 q 1129 385 1147 385 q 1104 397 1114 385 q 1092 425 1094 408 q 1058 494 1090 464 q 982 531 1025 525 q 959 544 968 533 q 950 569 950 556 q 962 594 950 585 q 988 604 974 604 m 422 104 q 497 39 463 76 q 504 169 503 113 q 422 104 461 133 z "},"か":{"ha":1389,"x_min":135,"x_max":1263,"o":"m 611 749 q 745 681 703 749 q 788 482 788 614 q 758 321 788 400 q 677 191 728 242 q 565 140 626 140 q 478 181 510 140 q 385 253 436 232 l 381 256 q 265 85 325 160 q 229 68 253 68 q 197 81 208 68 q 186 111 186 93 q 194 139 186 126 q 460 635 356 364 l 397 611 q 326 588 368 597 q 239 578 283 578 q 158 592 192 578 q 142 609 149 597 q 135 633 135 621 q 147 661 136 651 q 175 671 158 671 q 193 669 186 671 q 242 663 217 663 q 358 686 297 663 q 494 732 433 717 l 508 778 q 522 879 522 832 q 476 979 522 946 q 460 1014 460 990 q 473 1042 461 1031 q 501 1054 485 1054 q 525 1049 511 1054 q 611 888 611 1003 q 592 765 611 832 q 589 757 590 761 q 586 747 588 753 q 611 749 594 749 m 961 839 q 1132 801 1064 839 q 1231 712 1200 764 q 1263 613 1263 660 q 1247 578 1263 592 q 1217 565 1232 565 q 1179 588 1194 565 q 1090 621 1164 621 q 1063 631 1075 622 q 1051 651 1051 639 q 1060 673 1051 664 q 1081 685 1068 682 q 1124 689 1100 689 q 1151 686 1132 689 q 958 757 1086 756 q 931 771 942 758 q 919 800 919 783 q 932 827 919 815 q 961 839 944 839 m 568 226 q 630 269 600 226 q 679 372 660 311 q 699 479 699 432 q 679 619 699 571 q 608 668 660 668 q 560 664 585 668 q 413 314 493 465 q 468 286 438 307 q 515 249 499 265 q 568 226 540 226 z "},"が":{"ha":1389,"x_min":135,"x_max":1392,"o":"m 611 679 q 745 612 703 679 q 788 413 788 544 q 758 251 788 331 q 677 122 728 172 q 565 71 626 71 q 478 111 510 71 q 385 183 436 163 l 381 186 q 265 15 325 90 q 229 -1 253 -1 q 197 11 208 -1 q 186 42 186 24 q 194 69 186 57 q 460 565 356 294 l 397 542 q 326 518 368 528 q 239 508 283 508 q 158 522 192 508 q 142 540 149 528 q 135 564 135 551 q 147 592 136 582 q 175 601 158 601 q 193 600 186 601 q 242 593 217 593 q 358 617 297 593 q 494 663 433 647 l 508 708 q 522 810 522 763 q 476 910 522 876 q 460 944 460 921 q 473 973 461 961 q 501 985 485 985 q 525 979 511 985 q 611 818 611 933 q 592 696 611 763 q 589 688 590 692 q 586 678 588 683 q 611 679 594 679 m 961 769 q 1132 732 1064 769 q 1231 642 1200 694 q 1263 543 1263 590 q 1247 509 1263 522 q 1217 496 1232 496 q 1179 518 1194 496 q 1090 551 1164 551 q 1063 561 1075 553 q 1051 582 1051 569 q 1060 603 1051 594 q 1081 615 1068 613 q 1124 619 1100 619 q 1151 617 1132 619 q 958 688 1086 686 q 931 701 942 689 q 919 731 919 714 q 932 758 919 746 q 961 769 944 769 m 568 157 q 630 199 600 157 q 679 302 660 242 q 699 410 699 363 q 679 550 699 501 q 608 599 660 599 q 560 594 585 599 q 413 244 493 396 q 468 217 438 238 q 515 179 499 196 q 568 157 540 157 m 1358 871 q 1332 883 1340 871 q 1266 940 1307 914 q 1192 975 1225 965 q 1165 1011 1165 983 q 1175 1029 1165 1021 q 1197 1039 1185 1038 q 1208 1038 1206 1039 q 1301 994 1253 1024 q 1383 926 1350 964 q 1392 904 1389 919 q 1381 880 1392 889 q 1358 871 1371 871 m 1211 788 q 1193 792 1201 788 q 1181 807 1185 797 q 1128 865 1164 838 q 1058 908 1093 893 q 1038 922 1044 914 q 1032 943 1032 929 q 1043 963 1032 954 q 1067 971 1054 971 q 1083 967 1071 971 q 1171 919 1128 953 q 1239 843 1214 886 q 1244 822 1244 832 q 1235 797 1244 807 q 1211 788 1225 788 z "},"き":{"ha":1389,"x_min":363,"x_max":1044,"o":"m 1001 536 q 935 540 968 540 l 926 540 q 1018 333 1018 378 q 1006 304 1018 315 q 976 293 993 293 q 950 300 961 293 q 891 318 932 311 q 801 328 850 325 q 777 338 786 329 q 768 360 768 346 q 778 383 768 374 q 803 392 788 392 q 913 385 865 392 q 832 533 882 446 q 428 390 639 508 q 406 385 421 385 q 374 395 386 385 q 363 425 363 406 q 385 464 363 450 q 786 610 590 576 q 699 753 750 671 q 553 735 619 735 q 460 746 492 735 q 431 793 431 758 q 444 818 431 808 q 476 828 458 828 q 486 826 483 828 q 546 819 511 819 q 650 829 588 819 l 592 918 q 513 999 561 964 q 410 1051 465 1033 q 385 1069 393 1057 q 376 1099 376 1082 q 388 1125 376 1115 q 418 1135 400 1135 q 431 1133 428 1135 q 561 1071 499 1117 q 667 960 624 1025 q 736 851 708 899 q 783 874 767 863 q 804 879 793 879 q 840 860 825 879 q 847 840 846 850 q 828 803 847 814 q 782 779 807 789 q 879 621 835 696 q 939 624 921 624 q 1006 621 961 624 q 1033 606 1022 618 q 1044 576 1044 594 q 1034 549 1044 560 q 1008 536 1024 539 l 1001 536 m 835 72 q 863 61 850 72 q 876 33 876 50 q 867 3 876 15 q 840 -12 857 -10 q 736 -21 789 -21 q 598 -1 661 -21 q 490 57 535 19 q 414 207 414 121 q 426 239 414 226 q 454 251 439 251 q 483 240 471 251 q 497 213 494 228 q 513 160 500 185 q 549 118 526 136 q 731 63 617 63 q 826 72 778 63 l 835 72 z "},"ぎ":{"ha":1389,"x_min":363,"x_max":1321,"o":"m 1288 950 q 1261 963 1269 950 q 1195 1019 1236 993 q 1121 1054 1154 1044 q 1094 1090 1094 1063 q 1104 1108 1094 1100 q 1126 1118 1114 1117 q 1138 1117 1135 1118 q 1231 1073 1182 1103 q 1313 1006 1279 1043 q 1321 983 1318 999 q 1310 959 1321 968 q 1288 950 1300 950 m 1140 867 q 1122 872 1131 867 q 1110 886 1114 876 q 1058 944 1093 917 q 988 988 1022 972 q 967 1001 974 993 q 961 1022 961 1008 q 972 1042 961 1033 q 996 1050 983 1050 q 1013 1046 1000 1050 q 1100 999 1057 1032 q 1168 922 1143 965 q 1174 901 1174 911 q 1164 876 1174 886 q 1140 867 1154 867 m 1001 536 q 935 540 968 540 l 926 540 q 1018 333 1018 378 q 1006 304 1018 315 q 976 293 993 293 q 950 300 961 293 q 891 318 932 311 q 801 328 850 325 q 777 338 786 329 q 768 360 768 346 q 778 383 768 374 q 803 392 788 392 q 913 385 865 392 q 832 533 882 446 q 428 390 639 508 q 406 385 421 385 q 374 395 386 385 q 363 425 363 406 q 385 464 363 450 q 786 610 590 576 q 699 753 750 671 q 553 735 619 735 q 460 746 492 735 q 431 793 431 758 q 444 818 431 808 q 476 828 458 828 q 486 826 483 828 q 546 819 511 819 q 650 829 588 819 l 592 918 q 513 999 561 964 q 410 1051 465 1033 q 385 1069 393 1057 q 376 1099 376 1082 q 388 1125 376 1115 q 418 1135 400 1135 q 431 1133 428 1135 q 561 1071 499 1117 q 667 960 624 1025 q 736 851 708 899 q 783 874 767 863 q 804 879 793 879 q 840 860 825 879 q 847 840 846 850 q 828 803 847 814 q 782 779 807 789 q 879 621 835 696 q 939 624 921 624 q 1006 621 961 624 q 1033 606 1022 618 q 1044 576 1044 594 q 1034 549 1044 560 q 1008 536 1024 539 l 1001 536 m 835 72 q 863 61 850 72 q 876 33 876 50 q 867 3 876 15 q 840 -12 857 -10 q 736 -21 789 -21 q 598 -1 661 -21 q 490 57 535 19 q 414 207 414 121 q 426 239 414 226 q 454 251 439 251 q 483 240 471 251 q 497 213 494 228 q 513 160 500 185 q 549 118 526 136 q 731 63 617 63 q 826 72 778 63 l 835 72 z "},"く":{"ha":1389,"x_min":457,"x_max":890,"o":"m 847 -110 q 815 -98 826 -110 q 801 -68 803 -86 q 601 279 799 44 q 494 424 531 364 q 457 532 457 483 q 489 640 457 576 q 585 796 521 704 q 676 951 633 868 q 733 1086 719 1035 q 782 1124 744 1124 q 812 1110 800 1124 q 824 1079 824 1097 q 822 1067 824 1071 q 765 922 808 1007 q 665 757 721 838 q 579 622 604 671 q 554 526 554 574 q 589 447 554 501 q 675 331 624 393 q 834 109 778 201 q 890 -62 890 17 q 877 -97 890 -83 q 847 -110 864 -110 z "},"ぐ":{"ha":1389,"x_min":415,"x_max":1282,"o":"m 1249 956 q 1222 968 1231 956 q 1156 1024 1197 999 q 1082 1060 1115 1050 q 1056 1096 1056 1068 q 1065 1114 1056 1106 q 1088 1124 1075 1122 q 1099 1122 1096 1124 q 1192 1078 1143 1108 q 1274 1011 1240 1049 q 1282 989 1279 1004 q 1272 965 1282 974 q 1249 956 1261 956 m 1101 872 q 1083 877 1092 872 q 1071 892 1075 882 q 1019 950 1054 922 q 949 993 983 978 q 928 1006 935 999 q 922 1028 922 1014 q 933 1047 922 1039 q 957 1056 944 1056 q 974 1051 961 1056 q 1061 1004 1018 1038 q 1129 928 1104 971 q 1135 907 1135 917 q 1125 882 1135 892 q 1101 872 1115 872 m 806 -110 q 773 -98 785 -110 q 760 -68 761 -86 q 560 279 757 44 q 452 424 489 364 q 415 532 415 483 q 447 640 415 576 q 543 796 479 704 q 635 951 592 868 q 692 1086 678 1035 q 740 1124 703 1124 q 770 1110 758 1124 q 782 1079 782 1097 q 781 1067 782 1071 q 723 922 767 1007 q 624 757 679 838 q 538 622 563 671 q 513 526 513 574 q 547 447 513 501 q 633 331 582 393 q 792 109 736 201 q 849 -62 849 17 q 835 -97 849 -83 q 806 -110 822 -110 z "},"け":{"ha":1389,"x_min":303,"x_max":1146,"o":"m 1106 969 q 1135 959 1124 969 q 1146 932 1146 949 q 1124 890 1146 903 q 946 838 1051 853 q 967 458 967 622 q 879 177 967 315 q 633 -67 792 39 q 603 -75 621 -75 q 573 -61 586 -75 q 560 -29 560 -47 q 582 8 560 -6 q 801 218 724 99 q 879 465 879 338 q 858 829 879 624 l 840 829 q 678 860 742 829 q 654 900 654 869 q 666 929 654 918 q 697 942 678 940 q 711 939 703 942 q 844 917 767 917 l 849 917 q 825 1072 838 1008 l 825 1082 q 837 1111 825 1099 q 865 1124 849 1124 q 896 1115 883 1124 q 913 1088 908 1106 q 936 924 926 1022 q 1085 965 1029 938 q 1106 969 1096 969 m 476 579 q 499 571 492 579 q 508 551 507 563 q 504 531 508 538 q 463 410 475 456 q 444 292 450 364 q 430 267 443 276 q 403 257 417 257 q 382 261 393 257 q 364 274 371 265 q 303 513 303 340 q 322 722 303 597 q 335 858 335 808 q 310 979 335 935 q 306 1001 306 990 q 318 1030 307 1018 q 346 1043 329 1042 q 371 1037 358 1043 q 389 1021 383 1031 q 421 875 421 964 q 406 711 421 814 q 388 503 388 590 q 392 415 388 457 q 443 558 408 481 q 476 579 457 579 z "},"げ":{"ha":1389,"x_min":300,"x_max":1392,"o":"m 1358 1053 q 1332 1065 1340 1053 q 1266 1122 1307 1096 q 1192 1157 1225 1147 q 1165 1193 1165 1165 q 1175 1211 1165 1203 q 1197 1221 1185 1219 q 1208 1219 1206 1221 q 1301 1176 1253 1206 q 1383 1108 1350 1146 q 1392 1086 1389 1101 q 1381 1062 1392 1071 q 1358 1053 1371 1053 m 1211 969 q 1193 974 1201 969 q 1181 989 1185 979 q 1128 1047 1164 1019 q 1058 1090 1093 1075 q 1038 1103 1044 1096 q 1032 1125 1032 1111 q 1043 1144 1032 1136 q 1067 1153 1054 1153 q 1083 1149 1071 1153 q 1171 1101 1128 1135 q 1239 1025 1214 1068 q 1244 1004 1244 1014 q 1235 979 1244 989 q 1211 969 1225 969 m 1103 960 q 1132 949 1121 960 q 1143 922 1143 939 q 1121 881 1143 893 q 943 828 1049 843 q 964 449 964 613 q 876 167 964 306 q 631 -76 789 29 q 600 -85 618 -85 q 570 -71 583 -85 q 557 -39 557 -57 q 579 -1 557 -15 q 799 208 721 89 q 876 456 876 328 q 856 819 876 614 l 838 819 q 675 850 739 819 q 651 890 651 860 q 663 919 651 908 q 694 932 675 931 q 708 929 700 932 q 842 907 764 907 l 846 907 q 822 1063 835 999 l 822 1072 q 834 1101 822 1089 q 863 1114 846 1114 q 893 1105 881 1114 q 910 1078 906 1096 q 933 914 924 1013 q 1082 956 1026 928 q 1103 960 1093 960 m 474 569 q 497 561 489 569 q 506 542 504 553 q 501 521 506 528 q 460 400 472 446 q 442 282 447 354 q 427 257 440 267 q 400 247 414 247 q 379 251 390 247 q 361 264 368 256 q 300 503 300 331 q 319 713 300 588 q 332 849 332 799 q 307 969 332 925 q 303 992 303 981 q 315 1020 304 1008 q 343 1033 326 1032 q 368 1027 356 1033 q 386 1011 381 1021 q 418 865 418 954 q 403 701 418 804 q 385 493 385 581 q 389 406 385 447 q 440 549 406 471 q 474 569 454 569 z "},"こ":{"ha":1389,"x_min":394,"x_max":1056,"o":"m 721 825 q 485 929 549 847 q 476 956 476 940 q 489 987 476 974 q 519 1000 501 1000 q 556 985 543 997 q 682 919 594 940 q 871 897 769 897 q 906 885 890 897 q 921 854 921 874 q 888 813 921 822 q 715 742 779 779 q 626 674 651 706 q 590 657 610 657 q 568 671 576 657 q 563 689 563 676 l 565 706 q 617 764 571 729 q 721 825 663 799 m 1008 194 q 1042 183 1028 194 q 1056 153 1056 171 q 1045 119 1056 133 q 1015 101 1035 106 q 753 72 865 72 q 471 154 558 72 q 415 238 436 188 q 394 347 394 288 q 407 383 394 369 q 439 397 419 397 q 469 385 458 397 q 483 357 481 374 q 497 273 485 306 q 536 219 510 240 q 742 161 610 161 q 996 193 851 161 q 1008 194 1000 194 z "},"ご":{"ha":1389,"x_min":339,"x_max":1268,"o":"m 1235 956 q 1208 968 1217 956 q 1142 1024 1183 999 q 1068 1060 1101 1050 q 1042 1096 1042 1068 q 1051 1114 1042 1106 q 1074 1124 1061 1122 q 1085 1122 1082 1124 q 1178 1078 1129 1108 q 1260 1011 1226 1049 q 1268 989 1265 1004 q 1258 965 1268 974 q 1235 956 1247 956 m 1088 872 q 1069 877 1078 872 q 1057 892 1061 882 q 1005 950 1040 922 q 935 993 969 978 q 915 1006 921 999 q 908 1028 908 1014 q 919 1047 908 1039 q 943 1056 931 1056 q 960 1051 947 1056 q 1047 1004 1004 1038 q 1115 928 1090 971 q 1121 907 1121 917 q 1111 882 1121 892 q 1088 872 1101 872 m 665 825 q 429 929 493 847 q 421 956 421 940 q 433 987 421 974 q 464 1000 446 1000 q 500 985 488 997 q 626 919 539 940 q 815 897 714 897 q 850 885 835 897 q 865 854 865 874 q 832 813 865 822 q 660 742 724 779 q 571 674 596 706 q 535 657 554 657 q 513 671 521 657 q 507 689 507 676 l 510 706 q 561 764 515 729 q 665 825 607 799 m 953 194 q 986 183 972 194 q 1000 153 1000 171 q 990 119 1000 133 q 960 101 979 106 q 697 72 810 72 q 415 154 503 72 q 360 238 381 188 q 339 347 339 288 q 351 383 339 369 q 383 397 364 397 q 414 385 403 397 q 428 357 425 374 q 442 273 429 306 q 481 219 454 240 q 686 161 554 161 q 940 193 796 161 q 953 194 944 194 z "},"さ":{"ha":1389,"x_min":267,"x_max":1069,"o":"m 849 685 q 1008 528 946 610 q 1069 364 1069 446 q 1057 286 1069 319 q 1043 266 1053 274 q 1021 258 1033 258 q 981 276 996 258 q 891 345 950 321 q 751 369 832 369 q 594 326 653 369 q 535 201 535 282 q 607 81 535 118 q 792 43 679 43 q 881 49 846 43 l 888 49 q 917 36 906 49 q 929 4 929 24 q 918 -25 929 -14 q 889 -39 907 -36 q 847 -43 872 -42 q 799 -44 822 -44 q 544 19 642 -44 q 446 203 446 82 q 530 385 446 318 q 754 451 614 451 q 978 389 889 451 q 917 497 964 439 q 792 617 871 556 q 663 742 708 682 q 532 718 585 718 q 409 740 471 718 q 307 801 347 761 q 267 892 267 840 q 278 919 267 908 q 304 929 290 929 q 347 904 338 929 q 415 834 365 861 q 532 807 464 807 q 613 819 567 807 q 572 1010 572 904 q 585 1043 572 1032 q 621 1054 599 1054 q 651 1042 638 1054 q 664 1010 664 1029 q 700 846 664 914 q 829 903 768 872 q 921 957 890 933 q 950 967 938 967 q 981 956 968 967 q 993 926 993 944 q 976 886 993 901 q 880 827 940 858 q 753 771 819 796 q 849 685 782 736 z "},"ざ":{"ha":1389,"x_min":267,"x_max":1351,"o":"m 1318 997 q 1292 1010 1300 997 q 1226 1066 1267 1040 q 1151 1101 1185 1092 q 1125 1138 1125 1110 q 1135 1156 1125 1147 q 1157 1165 1144 1164 q 1168 1164 1165 1165 q 1261 1120 1213 1150 q 1343 1053 1310 1090 q 1351 1031 1349 1046 q 1341 1006 1351 1015 q 1318 997 1331 997 m 1171 914 q 1153 919 1161 914 q 1140 933 1144 924 q 1088 992 1124 964 q 1018 1035 1053 1019 q 998 1048 1004 1040 q 992 1069 992 1056 q 1003 1089 992 1081 q 1026 1097 1014 1097 q 1043 1093 1031 1097 q 1131 1046 1088 1079 q 1199 969 1174 1013 q 1204 949 1204 958 q 1194 924 1204 933 q 1171 914 1185 914 m 849 685 q 1008 528 946 610 q 1069 364 1069 446 q 1057 286 1069 319 q 1043 266 1053 274 q 1021 258 1033 258 q 981 276 996 258 q 891 345 950 321 q 751 369 832 369 q 594 326 653 369 q 535 201 535 282 q 607 81 535 118 q 792 43 679 43 q 881 49 846 43 l 888 49 q 917 36 906 49 q 929 4 929 24 q 918 -25 929 -14 q 889 -39 907 -36 q 847 -43 872 -42 q 799 -44 822 -44 q 544 19 642 -44 q 446 203 446 82 q 530 385 446 318 q 754 451 614 451 q 978 389 889 451 q 917 497 964 439 q 792 617 871 556 q 663 742 708 682 q 532 718 585 718 q 409 740 471 718 q 307 801 347 761 q 267 892 267 840 q 278 919 267 908 q 304 929 290 929 q 347 904 338 929 q 415 834 365 861 q 532 807 464 807 q 613 819 567 807 q 572 1010 572 904 q 585 1043 572 1032 q 621 1054 599 1054 q 651 1042 638 1054 q 664 1010 664 1029 q 700 846 664 914 q 829 903 768 872 q 921 957 890 933 q 950 967 938 967 q 981 956 968 967 q 993 926 993 944 q 976 886 993 901 q 880 827 940 858 q 753 771 819 796 q 849 685 782 736 z "},"し":{"ha":1389,"x_min":433,"x_max":1136,"o":"m 701 -35 q 497 44 560 -35 q 435 275 435 122 q 449 481 435 361 q 496 790 464 601 q 500 840 500 815 q 484 938 500 892 q 442 1011 468 983 q 433 1039 433 1028 q 445 1068 433 1057 q 476 1081 457 1079 q 514 1065 499 1081 q 571 967 550 1026 q 592 843 592 908 q 586 781 592 808 q 538 483 553 597 q 522 294 522 369 q 563 115 522 172 q 701 58 603 58 q 1068 168 853 58 q 1092 174 1078 174 q 1123 161 1110 174 q 1136 129 1136 149 q 1130 103 1136 115 q 1114 86 1124 92 q 919 3 1035 42 q 701 -35 804 -35 z "},"じ":{"ha":1389,"x_min":433,"x_max":1238,"o":"m 1204 890 q 1178 903 1186 890 q 1112 959 1153 933 q 1038 994 1071 985 q 1011 1031 1011 1003 q 1021 1049 1011 1040 q 1043 1058 1031 1057 q 1054 1057 1051 1058 q 1147 1013 1099 1043 q 1229 946 1196 983 q 1238 924 1235 939 q 1227 899 1238 908 q 1204 890 1217 890 m 1057 807 q 1039 812 1047 807 q 1026 826 1031 817 q 974 885 1010 857 q 904 928 939 913 q 884 941 890 933 q 878 963 878 949 q 889 982 878 974 q 913 990 900 990 q 929 986 917 990 q 1017 939 974 972 q 1085 863 1060 906 q 1090 842 1090 851 q 1081 817 1090 826 q 1057 807 1071 807 m 701 -35 q 497 44 560 -35 q 435 275 435 122 q 449 481 435 361 q 496 790 464 601 q 500 840 500 815 q 484 938 500 892 q 442 1011 468 983 q 433 1039 433 1028 q 445 1068 433 1057 q 476 1081 457 1079 q 514 1065 499 1081 q 571 967 550 1026 q 592 843 592 908 q 586 781 592 808 q 538 483 553 597 q 522 294 522 369 q 563 115 522 172 q 701 58 603 58 q 1068 168 853 58 q 1092 174 1078 174 q 1123 161 1110 174 q 1136 129 1136 149 q 1130 103 1136 115 q 1114 86 1124 92 q 919 3 1035 42 q 701 -35 804 -35 z "},"す":{"ha":1389,"x_min":121,"x_max":1240,"o":"m 1210 906 q 1240 860 1240 896 q 1227 831 1240 842 q 1197 821 1214 821 q 1182 824 1193 821 q 976 853 1094 853 q 863 846 928 853 q 875 553 868 674 l 879 488 q 900 346 900 426 q 860 178 900 267 q 748 14 819 90 q 588 -108 676 -62 q 556 -117 575 -117 q 526 -104 539 -117 q 513 -74 513 -92 q 519 -49 513 -61 q 536 -32 525 -37 q 684 83 614 10 q 792 235 754 156 q 740 228 772 228 q 630 263 678 228 q 555 358 582 297 q 528 494 528 418 q 572 603 528 565 q 675 642 615 642 q 782 614 735 642 q 775 833 776 756 q 547 781 694 818 q 375 739 442 753 q 253 725 308 725 q 142 750 179 725 q 121 789 121 763 q 133 819 121 808 q 165 831 146 831 q 186 828 179 831 q 258 814 208 814 q 528 864 340 814 q 774 921 674 904 l 774 974 q 778 1138 774 1104 q 826 1175 785 1175 q 853 1165 842 1175 q 865 1139 864 1156 l 865 1128 q 861 992 861 1090 l 861 933 q 981 940 926 940 q 1210 906 1107 940 m 736 308 q 781 331 768 308 q 794 411 794 354 q 790 500 794 446 q 678 563 753 563 q 631 542 650 563 q 613 490 613 521 q 646 360 613 413 q 736 308 679 308 z "},"ず":{"ha":1389,"x_min":118,"x_max":1381,"o":"m 1347 1039 q 1321 1051 1329 1039 q 1255 1108 1296 1082 q 1181 1143 1214 1133 q 1154 1179 1154 1151 q 1164 1197 1154 1189 q 1186 1207 1174 1206 q 1197 1206 1194 1207 q 1290 1162 1242 1192 q 1372 1094 1339 1132 q 1381 1072 1378 1088 q 1370 1048 1381 1057 q 1347 1039 1360 1039 m 1200 956 q 1182 960 1190 956 q 1169 975 1174 965 q 1117 1033 1153 1006 q 1047 1076 1082 1061 q 1027 1090 1033 1082 q 1021 1111 1021 1097 q 1032 1131 1021 1122 q 1056 1139 1043 1139 q 1072 1135 1060 1139 q 1160 1088 1117 1121 q 1228 1011 1203 1054 q 1233 990 1233 1000 q 1224 965 1233 975 q 1200 956 1214 956 m 1207 903 q 1238 857 1238 893 q 1224 828 1238 839 q 1194 818 1211 818 q 1179 821 1190 818 q 974 850 1092 850 q 860 843 925 850 q 872 550 865 671 l 876 485 q 897 343 897 424 q 857 176 897 264 q 745 11 817 88 q 585 -111 674 -65 q 553 -119 572 -119 q 523 -107 536 -119 q 510 -76 510 -94 q 516 -52 510 -64 q 533 -35 522 -40 q 681 80 611 7 q 789 232 751 153 q 738 225 769 225 q 627 260 675 225 q 552 355 579 294 q 525 492 525 415 q 569 601 525 563 q 672 639 613 639 q 779 611 732 639 q 772 831 774 753 q 544 778 692 815 q 372 736 439 750 q 250 722 306 722 q 139 747 176 722 q 118 786 118 760 q 131 817 118 806 q 163 828 143 828 q 183 825 176 828 q 256 811 206 811 q 525 861 338 811 q 771 918 671 901 l 771 971 q 775 1135 771 1101 q 824 1172 782 1172 q 850 1163 839 1172 q 863 1136 861 1153 l 863 1125 q 858 989 858 1088 l 858 931 q 978 938 924 938 q 1207 903 1104 938 m 733 306 q 778 328 765 306 q 792 408 792 351 q 788 497 792 443 q 675 560 750 560 q 628 539 647 560 q 610 488 610 518 q 643 358 610 410 q 733 306 676 306 z "},"せ":{"ha":1389,"x_min":160,"x_max":1167,"o":"m 1118 854 q 1167 811 1167 854 q 1153 781 1167 793 q 1121 767 1140 768 q 963 729 1061 763 q 961 543 961 674 q 928 394 961 456 q 844 333 894 333 q 817 344 828 333 q 806 372 806 354 q 811 392 806 382 q 824 408 817 401 q 874 538 874 446 q 875 694 874 647 q 674 601 788 657 q 454 508 546 542 l 454 469 q 489 203 454 256 q 710 139 531 139 q 1056 183 857 139 q 1068 185 1060 185 q 1097 173 1085 183 q 1108 144 1108 163 q 1098 114 1108 128 q 1071 97 1088 100 q 718 57 871 57 q 517 85 590 57 q 414 158 443 113 q 365 468 365 236 l 365 486 q 347 485 360 485 q 247 504 294 485 q 171 560 200 524 q 160 593 160 575 q 172 623 160 611 q 203 635 185 635 q 236 622 221 635 q 285 589 254 603 q 350 575 317 575 q 368 576 363 575 q 378 708 371 646 q 393 807 385 771 q 410 833 397 824 q 439 843 422 843 q 470 831 460 843 q 481 797 481 818 l 481 788 q 458 604 468 726 q 643 686 565 649 q 878 790 788 756 q 908 986 885 924 q 925 1012 914 1003 q 951 1021 936 1021 q 981 1010 969 1021 q 994 982 993 999 q 992 967 994 975 q 968 824 975 917 q 1118 854 1057 854 z "},"ぜ":{"ha":1389,"x_min":160,"x_max":1401,"o":"m 1368 1017 q 1342 1029 1350 1017 q 1276 1085 1317 1060 q 1201 1121 1235 1111 q 1175 1157 1175 1129 q 1185 1175 1175 1167 q 1207 1185 1194 1183 q 1218 1183 1215 1185 q 1311 1140 1263 1169 q 1393 1072 1360 1110 q 1401 1050 1399 1065 q 1391 1026 1401 1035 q 1368 1017 1381 1017 m 1221 933 q 1203 938 1211 933 q 1190 953 1194 943 q 1138 1011 1174 983 q 1068 1054 1103 1039 q 1048 1067 1054 1060 q 1042 1089 1042 1075 q 1053 1108 1042 1100 q 1076 1117 1064 1117 q 1093 1113 1081 1117 q 1181 1065 1138 1099 q 1249 989 1224 1032 q 1254 968 1254 978 q 1244 943 1254 953 q 1221 933 1235 933 m 1118 854 q 1167 811 1167 854 q 1153 781 1167 793 q 1121 767 1140 768 q 963 729 1061 763 q 961 543 961 674 q 928 394 961 456 q 844 333 894 333 q 817 344 828 333 q 806 372 806 354 q 811 392 806 382 q 824 408 817 401 q 874 538 874 446 q 875 694 874 647 q 674 601 788 657 q 454 508 546 542 l 454 469 q 489 203 454 256 q 710 139 531 139 q 1056 183 857 139 q 1068 185 1060 185 q 1097 173 1085 183 q 1108 144 1108 163 q 1098 114 1108 128 q 1071 97 1088 100 q 718 57 871 57 q 517 85 590 57 q 414 158 443 113 q 365 468 365 236 l 365 486 q 347 485 360 485 q 247 504 294 485 q 171 560 200 524 q 160 593 160 575 q 172 623 160 611 q 203 635 185 635 q 236 622 221 635 q 285 589 254 603 q 350 575 317 575 q 368 576 363 575 q 378 708 371 646 q 393 807 385 771 q 410 833 397 824 q 439 843 422 843 q 470 831 460 843 q 481 797 481 818 l 481 788 q 458 604 468 726 q 643 686 565 649 q 878 790 788 756 q 908 986 885 924 q 925 1012 914 1003 q 951 1021 936 1021 q 981 1010 969 1021 q 994 982 993 999 q 992 967 994 975 q 968 824 975 917 q 1118 854 1057 854 z "},"そ":{"ha":1389,"x_min":342,"x_max":1054,"o":"m 1007 694 q 1042 683 1029 694 q 1054 651 1054 671 q 1024 610 1054 615 q 818 526 907 581 q 681 400 729 471 q 633 250 633 329 q 701 128 633 175 q 928 46 768 81 q 963 -6 963 39 q 950 -33 963 -22 q 922 -43 938 -43 l 908 -43 q 640 57 735 -7 q 544 242 544 121 q 599 404 544 319 q 740 556 653 489 q 410 388 592 493 q 382 379 397 379 q 353 391 364 379 q 342 421 342 403 q 353 458 342 442 q 566 731 433 579 q 789 963 699 883 q 633 900 710 949 q 584 876 607 882 q 528 869 561 869 q 455 897 486 869 q 424 951 424 924 q 435 979 424 968 q 465 990 446 990 q 497 974 481 990 q 549 953 513 953 q 597 965 578 953 q 808 1036 710 1036 q 879 1022 853 1036 q 906 986 906 1008 q 878 938 906 956 q 499 522 696 785 q 766 645 629 596 q 1007 694 903 694 z "},"ぞ":{"ha":1389,"x_min":342,"x_max":1324,"o":"m 1290 956 q 1264 968 1272 956 q 1198 1024 1239 999 q 1124 1060 1157 1050 q 1097 1096 1097 1068 q 1107 1114 1097 1106 q 1129 1124 1117 1122 q 1140 1122 1138 1124 q 1233 1078 1185 1108 q 1315 1011 1282 1049 q 1324 989 1321 1004 q 1313 965 1324 974 q 1290 956 1303 956 m 1143 872 q 1125 877 1133 872 q 1113 892 1117 882 q 1060 950 1096 922 q 990 993 1025 978 q 970 1006 976 999 q 964 1028 964 1014 q 975 1047 964 1039 q 999 1056 986 1056 q 1015 1051 1003 1056 q 1103 1004 1060 1038 q 1171 928 1146 971 q 1176 907 1176 917 q 1167 882 1176 892 q 1143 872 1157 872 m 1007 694 q 1042 683 1029 694 q 1054 651 1054 671 q 1024 610 1054 615 q 818 526 907 581 q 681 400 729 471 q 633 250 633 329 q 701 128 633 175 q 928 46 768 81 q 963 -6 963 39 q 950 -33 963 -22 q 922 -43 938 -43 l 908 -43 q 640 57 735 -7 q 544 242 544 121 q 599 404 544 319 q 740 556 653 489 q 410 388 592 493 q 382 379 397 379 q 353 391 364 379 q 342 421 342 403 q 353 458 342 442 q 566 731 433 579 q 789 963 699 883 q 633 900 710 949 q 584 876 607 882 q 528 869 561 869 q 455 897 486 869 q 424 951 424 924 q 435 979 424 968 q 465 990 446 990 q 497 974 481 990 q 549 953 513 953 q 597 965 578 953 q 808 1036 710 1036 q 879 1022 853 1036 q 906 986 906 1008 q 878 938 906 956 q 499 522 696 785 q 766 645 629 596 q 1007 694 903 694 z "},"た":{"ha":1389,"x_min":179,"x_max":1207,"o":"m 692 981 q 721 969 708 981 q 733 940 733 957 q 717 899 733 911 q 590 810 667 860 q 495 366 561 643 q 381 -75 429 89 q 362 -100 376 -92 q 332 -108 347 -108 q 301 -97 315 -108 q 288 -69 288 -86 q 292 -46 288 -57 q 489 744 436 474 l 469 733 q 378 699 435 714 q 274 685 321 685 q 204 697 231 685 q 179 739 179 708 q 224 778 182 778 q 240 776 235 778 q 269 774 249 774 q 350 784 304 774 q 429 811 396 794 q 507 857 456 825 q 511 904 511 885 q 493 976 511 954 q 413 1019 465 1008 q 384 1037 393 1024 q 375 1067 375 1050 q 422 1104 375 1104 q 483 1088 446 1104 q 550 1043 519 1071 q 601 921 596 1000 l 664 971 q 692 981 676 981 m 856 736 q 825 747 838 736 q 813 774 813 758 q 823 805 813 793 q 851 818 833 817 q 874 819 858 819 q 1006 792 942 819 q 1104 722 1071 765 q 1117 689 1117 707 q 1104 662 1117 672 q 1075 651 1092 651 q 1036 676 1056 651 q 966 719 1019 703 q 856 736 913 736 m 1164 196 q 1192 183 1178 196 q 1207 156 1207 171 q 1197 122 1207 135 q 1167 107 1186 108 q 1096 104 1142 104 q 873 149 956 104 q 764 246 790 194 q 758 269 758 260 q 772 298 760 286 q 801 310 783 310 q 835 294 824 310 q 1094 193 913 193 q 1157 196 1118 193 l 1164 196 z "},"だ":{"ha":1389,"x_min":124,"x_max":1268,"o":"m 1235 956 q 1208 968 1217 956 q 1142 1024 1183 999 q 1068 1060 1101 1050 q 1042 1096 1042 1068 q 1051 1114 1042 1106 q 1074 1124 1061 1122 q 1085 1122 1082 1124 q 1178 1078 1129 1108 q 1260 1011 1226 1049 q 1268 989 1265 1004 q 1258 965 1268 974 q 1235 956 1247 956 m 1088 872 q 1069 877 1078 872 q 1057 892 1061 882 q 1005 950 1040 922 q 935 993 969 978 q 915 1006 921 999 q 908 1028 908 1014 q 919 1047 908 1039 q 943 1056 931 1056 q 960 1051 947 1056 q 1047 1004 1004 1038 q 1115 928 1090 971 q 1121 907 1121 917 q 1111 882 1121 892 q 1088 872 1101 872 m 636 981 q 665 969 653 981 q 678 940 678 957 q 661 899 678 911 q 535 810 611 860 q 440 366 506 643 q 325 -75 374 89 q 306 -100 321 -92 q 276 -108 292 -108 q 246 -97 260 -108 q 232 -69 232 -86 q 236 -46 232 -57 q 433 744 381 474 l 414 733 q 322 699 379 714 q 218 685 265 685 q 149 697 175 685 q 124 739 124 708 q 168 778 126 778 q 185 776 179 778 q 214 774 193 774 q 294 784 249 774 q 374 811 340 794 q 451 857 400 825 q 456 904 456 885 q 438 976 456 954 q 357 1019 410 1008 q 328 1037 338 1024 q 319 1067 319 1050 q 367 1104 319 1104 q 427 1088 390 1104 q 494 1043 464 1071 q 546 921 540 1000 l 608 971 q 636 981 621 981 m 800 736 q 769 747 782 736 q 757 774 757 758 q 767 805 757 793 q 796 818 778 817 q 818 819 803 819 q 951 792 886 819 q 1049 722 1015 765 q 1061 689 1061 707 q 1049 662 1061 672 q 1019 651 1036 651 q 981 676 1000 651 q 910 719 964 703 q 800 736 857 736 m 1108 196 q 1137 183 1122 196 q 1151 156 1151 171 q 1141 122 1151 135 q 1111 107 1131 108 q 1040 104 1086 104 q 817 149 900 104 q 708 246 735 194 q 703 269 703 260 q 716 298 704 286 q 746 310 728 310 q 779 294 768 310 q 1039 193 857 193 q 1101 196 1063 193 l 1108 196 z "},"ち":{"ha":1389,"x_min":357,"x_max":1079,"o":"m 879 561 q 1020 510 961 561 q 1079 369 1079 460 q 1003 184 1079 274 q 802 37 928 94 q 533 -25 676 -21 q 503 -14 517 -25 q 490 18 490 -3 q 502 49 490 36 q 531 63 514 61 q 740 110 632 67 q 921 223 849 154 q 993 367 993 292 q 951 456 993 435 q 871 478 910 478 q 765 461 808 478 q 672 401 722 444 q 606 352 632 367 q 563 338 581 338 q 511 367 531 338 q 492 438 492 396 q 503 538 492 475 q 539 725 514 601 l 551 782 l 557 813 q 450 804 500 804 q 399 807 413 804 q 369 824 381 810 q 357 854 357 838 q 368 883 357 872 q 397 893 379 893 q 415 892 410 893 q 456 889 426 889 q 565 899 494 889 q 544 956 560 928 q 510 1000 529 985 q 492 1035 492 1010 q 503 1064 492 1053 q 535 1075 515 1075 q 565 1064 554 1075 q 619 1001 597 1040 q 649 918 642 961 q 822 986 749 947 q 843 992 832 992 q 885 953 885 992 q 861 913 885 925 q 646 831 761 860 q 622 710 638 782 q 589 542 601 611 q 576 443 576 472 l 576 432 q 723 526 644 492 q 879 561 801 561 z "},"ぢ":{"ha":1389,"x_min":357,"x_max":1324,"o":"m 1290 956 q 1264 968 1272 956 q 1198 1024 1239 999 q 1124 1060 1157 1050 q 1097 1096 1097 1068 q 1107 1114 1097 1106 q 1129 1124 1117 1122 q 1140 1122 1138 1124 q 1233 1078 1185 1108 q 1315 1011 1282 1049 q 1324 989 1321 1004 q 1313 965 1324 974 q 1290 956 1303 956 m 1143 872 q 1125 877 1133 872 q 1113 892 1117 882 q 1060 950 1096 922 q 990 993 1025 978 q 970 1006 976 999 q 964 1028 964 1014 q 975 1047 964 1039 q 999 1056 986 1056 q 1015 1051 1003 1056 q 1103 1004 1060 1038 q 1171 928 1146 971 q 1176 907 1176 917 q 1167 882 1176 892 q 1143 872 1157 872 m 879 561 q 1020 510 961 561 q 1079 369 1079 460 q 1003 184 1079 274 q 802 37 928 94 q 533 -25 676 -21 q 503 -14 517 -25 q 490 18 490 -3 q 502 49 490 36 q 531 63 514 61 q 740 110 632 67 q 921 223 849 154 q 993 367 993 292 q 951 456 993 435 q 871 478 910 478 q 765 461 808 478 q 672 401 722 444 q 606 352 632 367 q 563 338 581 338 q 511 367 531 338 q 492 438 492 396 q 503 538 492 475 q 539 725 514 601 l 551 782 l 557 813 q 450 804 500 804 q 399 807 413 804 q 369 824 381 810 q 357 854 357 838 q 368 883 357 872 q 397 893 379 893 q 415 892 410 893 q 456 889 426 889 q 565 899 494 889 q 544 956 560 928 q 510 1000 529 985 q 492 1035 492 1010 q 503 1064 492 1053 q 535 1075 515 1075 q 565 1064 554 1075 q 619 1001 597 1040 q 649 918 642 961 q 822 986 749 947 q 843 992 832 992 q 885 953 885 992 q 861 913 885 925 q 646 831 761 860 q 622 710 638 782 q 589 542 601 611 q 576 443 576 472 l 576 432 q 723 526 644 492 q 879 561 801 561 z "},"つ":{"ha":1389,"x_min":129,"x_max":1231,"o":"m 774 125 q 743 137 757 125 q 729 167 729 149 q 772 214 729 207 q 1045 325 950 243 q 1140 531 1140 407 q 1088 706 1140 644 q 943 768 1036 768 q 754 724 858 768 q 468 572 650 679 q 290 518 372 518 q 144 569 215 518 q 129 604 129 581 q 142 635 129 624 q 174 647 154 647 q 201 638 185 647 q 293 610 238 610 q 419 646 357 610 q 728 806 610 757 q 946 856 846 856 q 1154 769 1078 856 q 1231 532 1231 683 q 1176 342 1231 429 q 1022 199 1122 256 q 785 125 921 142 l 774 125 z "},"っ":{"ha":1389,"x_min":247,"x_max":1113,"o":"m 751 -1 q 720 10 735 -1 q 706 42 706 22 q 717 72 706 61 q 744 83 728 83 q 885 116 821 83 q 988 203 950 149 q 1025 318 1025 257 q 987 447 1025 399 q 882 494 949 494 q 740 460 818 494 q 519 343 661 426 q 374 297 443 297 q 263 339 315 297 q 247 375 247 350 q 259 405 247 393 q 289 417 271 417 q 314 408 306 417 q 379 386 338 386 q 474 414 431 386 q 714 538 621 499 q 885 576 807 576 q 1052 508 992 576 q 1113 318 1113 440 q 1061 163 1113 238 q 926 44 1010 89 q 751 -1 843 -1 z "},"づ":{"ha":1389,"x_min":129,"x_max":1379,"o":"m 1346 997 q 1319 1010 1328 997 q 1253 1066 1294 1040 q 1179 1101 1213 1092 q 1153 1138 1153 1110 q 1163 1156 1153 1147 q 1185 1165 1172 1164 q 1196 1164 1193 1165 q 1289 1120 1240 1150 q 1371 1053 1338 1090 q 1379 1031 1376 1046 q 1369 1006 1379 1015 q 1346 997 1358 997 m 1199 914 q 1181 919 1189 914 q 1168 933 1172 924 q 1116 992 1151 964 q 1046 1035 1081 1019 q 1026 1048 1032 1040 q 1019 1069 1019 1056 q 1031 1089 1019 1081 q 1054 1097 1042 1097 q 1071 1093 1058 1097 q 1158 1046 1115 1079 q 1226 969 1201 1013 q 1232 949 1232 958 q 1222 924 1232 933 q 1199 914 1213 914 m 774 125 q 743 137 757 125 q 729 167 729 149 q 772 214 729 207 q 1045 325 950 243 q 1140 531 1140 407 q 1088 706 1140 644 q 943 768 1036 768 q 754 724 858 768 q 468 572 650 679 q 290 518 372 518 q 144 569 215 518 q 129 604 129 581 q 142 635 129 624 q 174 647 154 647 q 201 638 185 647 q 293 610 238 610 q 419 646 357 610 q 728 806 610 757 q 946 856 846 856 q 1154 769 1078 856 q 1231 532 1231 683 q 1176 342 1231 429 q 1022 199 1122 256 q 785 125 921 142 l 774 125 z "},"て":{"ha":1389,"x_min":218,"x_max":1160,"o":"m 1117 44 q 1148 26 1136 40 q 1160 -6 1160 13 q 1144 -34 1160 -22 q 1110 -46 1129 -46 q 1090 -44 1094 -46 q 838 63 944 -11 q 674 240 731 136 q 617 467 617 344 q 806 944 617 771 q 626 901 701 929 q 458 825 550 872 q 411 808 442 815 q 358 800 381 800 q 236 842 293 800 q 223 860 228 847 q 218 885 218 872 q 230 913 218 903 q 261 924 242 924 q 286 915 272 924 q 365 888 321 888 q 428 903 397 888 q 676 997 567 964 q 900 1029 785 1029 q 1060 1010 983 1029 q 1090 992 1079 1006 q 1101 963 1101 979 q 1087 933 1101 944 q 1056 921 1072 921 q 1018 925 1033 921 q 965 933 988 933 q 919 923 942 933 q 871 892 897 913 q 752 726 800 838 q 704 471 704 615 q 760 270 704 358 q 909 125 815 182 q 1117 44 1003 68 z "},"で":{"ha":1389,"x_min":218,"x_max":1324,"o":"m 1290 683 q 1264 696 1272 683 q 1198 752 1239 726 q 1124 788 1157 778 q 1097 824 1097 796 q 1107 842 1097 833 q 1129 851 1117 850 q 1140 850 1138 851 q 1233 806 1185 836 q 1315 739 1282 776 q 1324 717 1321 732 q 1313 692 1324 701 q 1290 683 1303 683 m 1143 600 q 1125 605 1133 600 q 1113 619 1117 610 q 1060 678 1096 650 q 990 721 1025 706 q 970 734 976 726 q 964 756 964 742 q 975 775 964 767 q 999 783 986 783 q 1015 779 1003 783 q 1103 732 1060 765 q 1171 656 1146 699 q 1176 635 1176 644 q 1167 610 1176 619 q 1143 600 1157 600 m 1117 44 q 1148 26 1136 40 q 1160 -6 1160 13 q 1144 -34 1160 -22 q 1110 -46 1129 -46 q 1090 -44 1094 -46 q 838 63 944 -11 q 674 240 731 136 q 617 467 617 344 q 806 944 617 771 q 626 901 701 929 q 458 825 550 872 q 411 808 442 815 q 358 800 381 800 q 236 842 293 800 q 223 860 228 847 q 218 885 218 872 q 230 913 218 903 q 261 924 242 924 q 286 915 272 924 q 365 888 321 888 q 428 903 397 888 q 676 997 567 964 q 900 1029 785 1029 q 1060 1010 983 1029 q 1090 992 1079 1006 q 1101 963 1101 979 q 1087 933 1101 944 q 1056 921 1072 921 q 1018 925 1033 921 q 965 933 988 933 q 919 923 942 933 q 871 892 897 913 q 752 726 800 838 q 704 471 704 615 q 760 270 704 358 q 909 125 815 182 q 1117 44 1003 68 z "},"と":{"ha":1389,"x_min":418,"x_max":1004,"o":"m 963 74 q 992 63 981 74 q 1004 36 1004 53 q 967 -12 1004 -4 q 715 -46 835 -46 q 497 10 576 -46 q 418 175 418 65 q 667 507 418 363 q 610 550 635 522 q 576 608 585 578 q 567 697 567 642 q 574 794 567 751 q 593 886 581 836 q 602 928 599 907 q 606 963 606 949 q 586 1013 606 992 q 532 1046 567 1035 q 514 1062 521 1050 q 507 1088 507 1074 q 521 1117 507 1106 q 554 1129 535 1129 q 579 1124 563 1129 q 660 1069 632 1107 q 688 975 688 1032 q 676 897 688 944 q 656 802 663 842 q 650 711 650 763 q 657 629 650 661 q 690 583 665 600 q 749 567 714 567 q 835 585 783 567 q 853 589 843 589 q 885 576 872 589 q 899 544 899 564 q 892 517 899 529 q 872 501 885 506 q 599 353 693 435 q 506 179 506 271 q 559 74 506 107 q 706 40 613 40 q 950 71 831 40 q 963 74 958 74 z "},"ど":{"ha":1389,"x_min":418,"x_max":1310,"o":"m 1276 831 q 1250 843 1258 831 q 1184 899 1225 874 q 1110 935 1143 925 q 1083 971 1083 943 q 1093 989 1083 981 q 1115 999 1103 997 q 1126 997 1124 999 q 1219 953 1171 983 q 1301 886 1268 924 q 1310 864 1307 879 q 1299 840 1310 849 q 1276 831 1289 831 m 1129 747 q 1111 752 1119 747 q 1099 767 1103 757 q 1047 825 1082 797 q 976 868 1011 853 q 956 881 963 874 q 950 903 950 889 q 961 922 950 914 q 985 931 972 931 q 1001 926 989 931 q 1089 879 1046 913 q 1157 803 1132 846 q 1163 782 1163 792 q 1153 757 1163 767 q 1129 747 1143 747 m 963 74 q 992 63 981 74 q 1004 36 1004 53 q 967 -12 1004 -4 q 715 -46 835 -46 q 497 10 576 -46 q 418 175 418 65 q 667 507 418 363 q 610 550 635 522 q 576 608 585 578 q 567 697 567 642 q 574 794 567 751 q 593 886 581 836 q 602 928 599 907 q 606 963 606 949 q 586 1013 606 992 q 532 1046 567 1035 q 514 1062 521 1050 q 507 1088 507 1074 q 521 1117 507 1106 q 554 1129 535 1129 q 579 1124 563 1129 q 660 1069 632 1107 q 688 975 688 1032 q 676 897 688 944 q 656 802 663 842 q 650 711 650 763 q 657 629 650 661 q 690 583 665 600 q 749 567 714 567 q 835 585 783 567 q 853 589 843 589 q 885 576 872 589 q 899 544 899 564 q 892 517 899 529 q 872 501 885 506 q 599 353 693 435 q 506 179 506 271 q 559 74 506 107 q 706 40 613 40 q 950 71 831 40 q 963 74 958 74 z "},"な":{"ha":1389,"x_min":214,"x_max":1226,"o":"m 728 900 q 601 814 676 854 q 545 520 589 683 q 440 199 501 357 q 422 176 435 183 q 393 168 408 168 q 363 182 374 168 q 353 214 353 196 q 356 226 353 218 q 360 238 358 233 q 461 515 419 372 q 517 772 503 657 q 369 736 429 736 q 289 750 326 736 q 226 789 251 764 q 214 824 214 801 q 226 852 214 840 q 254 864 238 864 q 282 853 271 864 q 367 822 315 822 q 522 869 424 822 q 508 966 522 939 q 453 1000 493 993 q 426 1014 438 1004 q 414 1039 414 1024 q 428 1069 414 1058 q 460 1081 442 1081 q 569 1041 535 1081 q 606 915 603 1001 q 671 963 643 938 q 703 974 685 974 q 731 962 721 974 q 742 932 742 950 q 728 900 742 913 m 949 931 q 1077 901 1013 931 q 1184 826 1142 872 q 1226 731 1226 779 q 1214 701 1226 714 q 1188 688 1201 688 q 1142 707 1164 688 q 1064 731 1119 731 q 1007 711 1035 731 q 962 654 979 692 q 944 567 944 617 q 956 354 944 474 q 965 225 963 268 q 1136 13 1082 160 q 1140 -12 1140 -4 q 1129 -42 1140 -31 q 1099 -54 1118 -54 q 1057 -25 1067 -54 q 968 125 1025 72 q 917 -5 965 42 q 800 -51 868 -51 q 672 -4 722 -51 q 621 117 621 43 q 668 223 621 179 q 796 267 715 267 q 876 258 839 267 q 871 336 876 258 q 858 567 858 471 q 910 723 858 665 q 1047 796 963 781 q 1085 799 1058 799 q 1017 831 1057 819 q 939 847 978 843 q 912 862 921 849 q 903 892 903 875 q 915 919 903 908 q 949 931 928 931 m 883 135 q 882 178 883 161 q 792 193 839 193 q 730 172 754 193 q 706 121 706 150 q 733 54 706 81 q 800 28 760 28 q 858 58 833 28 q 883 135 883 88 z "},"に":{"ha":1389,"x_min":296,"x_max":1192,"o":"m 390 -8 q 366 -1 376 -8 q 350 18 356 6 q 296 339 296 132 q 315 614 296 478 q 332 790 332 717 q 306 892 332 861 q 296 924 296 907 q 308 950 297 940 q 336 961 319 960 q 376 943 358 961 q 421 794 421 890 q 403 604 421 722 q 385 339 385 486 q 428 53 385 151 q 432 31 432 43 q 419 2 431 13 q 390 -8 407 -8 m 849 808 q 729 831 783 808 q 709 849 717 836 q 701 874 701 861 q 713 902 701 892 q 739 913 724 913 q 760 910 751 913 q 844 893 799 893 q 1032 943 936 893 q 1053 947 1042 947 q 1085 936 1074 947 q 1097 906 1097 925 q 1075 868 1097 881 q 962 824 1021 839 q 849 808 903 808 m 1046 183 q 858 214 946 183 q 722 299 771 244 q 711 331 711 313 q 725 363 711 349 q 751 372 738 372 q 783 358 771 372 q 892 294 824 319 q 1046 269 961 269 q 1140 279 1096 269 l 1149 279 q 1180 267 1168 279 q 1192 238 1192 256 q 1183 209 1192 221 q 1157 193 1174 197 q 1102 185 1131 186 q 1046 183 1074 183 z "},"ぬ":{"ha":1389,"x_min":138,"x_max":1208,"o":"m 1190 104 q 1207 68 1207 92 q 1195 35 1207 49 q 1164 22 1183 22 q 1140 32 1149 25 q 1058 100 1107 64 q 963 40 1015 61 q 851 19 910 19 q 738 52 781 19 q 694 133 694 85 q 746 221 694 188 q 874 254 797 254 q 1047 203 949 254 q 1101 326 1082 256 q 1119 479 1119 397 q 1050 708 1119 625 q 858 790 981 790 q 617 726 743 790 q 625 604 625 672 q 595 431 625 521 q 515 260 565 340 q 557 213 538 231 q 572 183 572 200 q 560 151 572 163 q 526 139 547 139 q 496 151 511 139 l 463 186 q 356 90 411 125 q 250 56 301 56 q 168 92 199 56 q 138 192 138 128 q 186 375 138 267 q 322 586 235 483 q 319 671 319 642 q 322 806 319 742 q 324 860 324 817 q 281 979 324 931 q 269 1010 269 993 q 283 1037 271 1025 q 311 1049 294 1049 q 344 1036 333 1049 q 392 965 375 1010 q 410 865 410 919 q 407 794 410 842 q 403 671 403 736 q 475 731 425 692 l 515 760 q 474 840 500 811 q 464 869 464 854 q 475 899 464 889 q 504 910 486 908 q 544 890 529 910 q 597 807 579 860 q 858 875 731 875 q 1115 770 1022 875 q 1208 479 1208 665 q 1184 305 1208 386 q 1114 161 1160 224 q 1190 104 1147 140 m 536 592 q 532 674 536 636 q 501 651 504 654 q 408 561 458 618 q 468 342 421 442 q 518 469 500 404 q 536 592 536 533 m 263 142 q 338 172 297 142 q 415 254 378 203 q 338 472 361 347 q 252 327 285 399 q 219 203 219 256 q 231 158 219 174 q 263 142 243 142 m 854 88 q 994 142 932 88 q 874 183 922 183 q 803 169 831 183 q 775 135 775 156 q 798 101 775 114 q 854 88 821 88 z "},"ね":{"ha":1389,"x_min":136,"x_max":1247,"o":"m 1238 25 q 1247 -6 1247 8 q 1235 -36 1247 -24 q 1206 -49 1224 -49 q 1168 -32 1178 -49 q 1014 154 1085 83 q 846 85 940 85 q 713 123 765 85 q 660 221 660 161 q 706 310 660 275 q 825 346 751 346 q 1000 274 900 346 q 1049 519 1049 371 q 1017 754 1049 671 q 936 838 985 838 q 728 722 853 838 q 411 347 603 606 q 443 -24 413 133 q 449 -57 449 -51 q 436 -83 449 -72 q 407 -94 424 -94 q 378 -85 390 -94 q 363 -61 365 -76 q 331 235 336 71 l 281 165 q 243 134 265 144 q 201 124 221 124 q 152 149 168 124 q 136 219 136 175 q 184 388 136 293 q 286 554 232 483 q 301 578 293 561 q 313 607 310 594 q 311 624 315 615 q 290 639 308 633 q 244 646 271 644 q 217 658 228 647 q 207 689 207 669 q 221 719 207 707 q 253 732 235 732 q 350 711 311 732 q 378 878 368 826 q 383 946 383 910 q 368 999 383 976 q 321 1049 353 1022 q 306 1083 306 1064 q 319 1115 307 1103 q 351 1128 332 1128 q 379 1119 367 1128 q 449 1051 428 1086 q 471 965 471 1015 q 467 922 471 947 q 460 879 464 896 q 426 678 436 767 q 413 492 415 590 q 703 820 572 715 q 947 925 835 925 q 1045 878 1003 925 q 1112 738 1088 831 q 1136 513 1136 644 q 1065 219 1136 336 q 1238 25 1160 135 m 328 367 q 331 492 328 411 q 224 290 258 383 q 214 267 218 282 q 210 239 210 251 q 219 218 210 218 q 254 251 233 218 l 328 367 m 846 163 q 954 210 907 163 q 824 272 879 272 q 764 258 786 272 q 742 221 742 243 q 772 179 742 196 q 846 163 803 163 z "},"の":{"ha":1389,"x_min":188,"x_max":1174,"o":"m 686 49 q 654 62 668 49 q 640 92 640 75 q 682 139 640 135 q 889 199 797 147 q 1033 333 981 251 q 1085 511 1085 415 q 1040 705 1085 619 q 915 839 994 790 q 738 888 836 888 q 497 838 603 888 q 331 699 390 788 q 272 497 272 610 q 292 346 272 406 q 340 286 313 286 q 467 370 399 286 q 585 576 535 454 q 644 797 636 697 q 660 827 646 815 q 693 839 675 839 q 722 827 710 839 q 735 799 735 815 q 726 736 735 775 q 636 481 697 606 q 492 276 575 356 q 322 197 410 197 q 225 281 263 197 q 188 496 188 365 q 258 737 188 629 q 456 907 329 844 q 740 969 582 969 q 960 912 861 969 q 1117 751 1060 854 q 1174 515 1174 647 q 1110 288 1174 396 q 936 115 1047 181 q 686 49 825 49 z "},"は":{"ha":1389,"x_min":239,"x_max":1182,"o":"m 344 1090 q 394 1051 389 1090 q 397 988 397 1033 q 365 692 397 864 q 325 294 325 475 q 363 1 325 115 q 365 -15 365 -4 q 357 -42 365 -31 q 335 -56 349 -53 q 319 -57 329 -57 q 295 -49 307 -57 q 279 -28 283 -40 q 249 117 258 40 q 239 294 239 194 q 283 717 239 488 q 310 988 310 853 q 307 1043 310 1013 l 307 1056 q 319 1081 308 1072 q 344 1090 331 1090 m 1174 22 q 1182 -3 1179 15 q 1167 -42 1182 -26 q 1138 -50 1157 -50 q 1100 -33 1113 -50 q 928 147 1014 71 q 736 90 858 90 q 603 131 657 90 q 549 235 549 172 q 589 325 549 289 q 689 361 629 361 q 910 272 776 361 q 918 336 918 300 q 875 647 918 424 q 860 738 864 708 q 725 721 793 721 q 597 740 636 721 q 572 785 572 756 q 583 813 572 801 q 611 825 594 824 q 628 822 622 825 q 726 807 669 807 q 847 825 786 807 q 836 949 838 894 q 835 997 835 964 q 849 1028 836 1018 q 879 1039 861 1039 q 911 1026 899 1039 q 924 996 924 1014 q 933 857 924 942 q 1049 924 988 883 q 1072 931 1057 931 q 1101 920 1089 931 q 1114 894 1114 910 q 1096 851 1114 865 q 944 767 1021 799 q 956 696 953 719 q 963 660 961 669 q 1007 336 1007 424 q 982 217 1007 267 q 1174 22 1093 125 m 738 168 q 861 203 817 168 q 688 285 753 285 q 646 271 663 285 q 629 235 629 257 q 660 188 629 207 q 738 168 692 168 z "},"ば":{"ha":1389,"x_min":233,"x_max":1385,"o":"m 1351 1013 q 1325 1025 1333 1013 q 1259 1081 1300 1056 q 1185 1117 1218 1107 q 1158 1153 1158 1125 q 1168 1171 1158 1163 q 1190 1181 1178 1179 q 1201 1179 1199 1181 q 1294 1135 1246 1165 q 1376 1068 1343 1106 q 1385 1046 1382 1061 q 1374 1022 1385 1031 q 1351 1013 1364 1013 m 1204 929 q 1186 934 1194 929 q 1174 949 1178 939 q 1122 1007 1157 979 q 1051 1050 1086 1035 q 1031 1063 1038 1056 q 1025 1085 1025 1071 q 1036 1104 1025 1096 q 1060 1113 1047 1113 q 1076 1108 1064 1113 q 1164 1061 1121 1094 q 1232 985 1207 1028 q 1238 964 1238 974 q 1228 939 1238 949 q 1204 929 1218 929 m 339 1090 q 389 1051 383 1090 q 392 988 392 1033 q 360 692 392 864 q 319 294 319 475 q 357 1 319 115 q 360 -15 360 -4 q 351 -42 360 -31 q 329 -56 343 -53 q 314 -57 324 -57 q 290 -49 301 -57 q 274 -28 278 -40 q 243 117 253 40 q 233 294 233 194 q 278 717 233 488 q 304 988 304 853 q 301 1043 304 1013 l 301 1056 q 314 1081 303 1072 q 339 1090 325 1090 m 1168 22 q 1176 -3 1174 15 q 1161 -42 1176 -26 q 1132 -50 1151 -50 q 1094 -33 1107 -50 q 922 147 1008 71 q 731 90 853 90 q 597 131 651 90 q 543 235 543 172 q 583 325 543 289 q 683 361 624 361 q 904 272 771 361 q 913 336 913 300 q 869 647 913 424 q 854 738 858 708 q 719 721 788 721 q 592 740 631 721 q 567 785 567 756 q 578 813 567 801 q 606 825 589 824 q 622 822 617 825 q 721 807 664 807 q 842 825 781 807 q 831 949 832 894 q 829 997 829 964 q 843 1028 831 1018 q 874 1039 856 1039 q 906 1026 893 1039 q 918 996 918 1014 q 928 857 918 942 q 1043 924 982 883 q 1067 931 1051 931 q 1096 920 1083 931 q 1108 894 1108 910 q 1090 851 1108 865 q 939 767 1015 799 q 950 696 947 719 q 957 660 956 669 q 1001 336 1001 424 q 976 217 1001 267 q 1168 22 1088 125 m 732 168 q 856 203 811 168 q 682 285 747 285 q 640 271 657 285 q 624 235 624 257 q 655 188 624 207 q 732 168 686 168 z "},"ぱ":{"ha":1389,"x_min":233,"x_max":1326,"o":"m 1208 940 q 1125 975 1160 940 q 1090 1058 1090 1010 q 1125 1142 1090 1107 q 1208 1176 1160 1176 q 1292 1142 1257 1176 q 1326 1058 1326 1107 q 1292 975 1326 1010 q 1208 940 1257 940 m 1208 994 q 1255 1013 1236 994 q 1274 1058 1274 1032 q 1255 1103 1274 1085 q 1208 1122 1236 1122 q 1163 1104 1181 1122 q 1144 1058 1144 1086 q 1163 1013 1144 1032 q 1208 994 1181 994 m 339 1090 q 389 1051 383 1090 q 392 988 392 1033 q 360 692 392 864 q 319 294 319 475 q 357 1 319 115 q 360 -15 360 -4 q 351 -42 360 -31 q 329 -56 343 -53 q 314 -57 324 -57 q 290 -49 301 -57 q 274 -28 278 -40 q 243 117 253 40 q 233 294 233 194 q 278 717 233 488 q 304 988 304 853 q 301 1043 304 1013 l 301 1056 q 314 1081 303 1072 q 339 1090 325 1090 m 1168 22 q 1176 -3 1174 15 q 1161 -42 1176 -26 q 1132 -50 1151 -50 q 1094 -33 1107 -50 q 922 147 1008 71 q 731 90 853 90 q 597 131 651 90 q 543 235 543 172 q 583 325 543 289 q 683 361 624 361 q 904 272 771 361 q 913 336 913 300 q 869 647 913 424 q 854 738 858 708 q 719 721 788 721 q 592 740 631 721 q 567 785 567 756 q 578 813 567 801 q 606 825 589 824 q 622 822 617 825 q 721 807 664 807 q 842 825 781 807 q 831 949 832 894 q 829 997 829 964 q 843 1028 831 1018 q 874 1039 856 1039 q 906 1026 893 1039 q 918 996 918 1014 q 928 857 918 942 q 1043 924 982 883 q 1067 931 1051 931 q 1096 920 1083 931 q 1108 894 1108 910 q 1090 851 1108 865 q 939 767 1015 799 q 950 696 947 719 q 957 660 956 669 q 1001 336 1001 424 q 976 217 1001 267 q 1168 22 1088 125 m 732 168 q 856 203 811 168 q 682 285 747 285 q 640 271 657 285 q 624 235 624 257 q 655 188 624 207 q 732 168 686 168 z "},"ひ":{"ha":1389,"x_min":238,"x_max":1221,"o":"m 1199 321 q 1221 281 1221 306 q 1208 247 1221 257 q 1176 236 1194 236 q 1154 243 1163 236 q 1047 360 1096 279 q 969 544 997 442 q 943 435 953 465 q 849 222 910 319 q 705 65 788 124 q 531 6 622 6 q 313 90 389 6 q 238 321 238 174 q 453 742 238 506 q 428 740 444 740 q 272 824 303 740 q 269 843 269 829 q 282 872 271 861 q 307 882 293 882 q 331 875 318 882 q 349 858 343 868 q 380 833 356 843 q 439 822 404 822 q 557 840 493 822 q 569 843 563 843 q 598 831 586 843 q 610 801 610 819 q 594 768 610 781 q 408 551 489 672 q 326 319 326 431 q 378 151 326 210 q 531 93 429 93 q 652 135 589 93 q 771 260 715 178 q 861 456 826 342 q 906 632 894 561 q 918 763 918 703 q 902 829 918 794 q 864 886 886 864 q 851 918 851 899 q 865 949 853 936 q 894 961 876 961 q 915 957 907 961 q 961 918 942 946 q 990 854 981 890 q 1011 696 1006 796 q 1071 470 1018 576 q 1199 321 1124 364 z "},"び":{"ha":1389,"x_min":232,"x_max":1383,"o":"m 1350 876 q 1324 889 1332 876 q 1258 945 1299 919 q 1183 981 1217 971 q 1157 1017 1157 989 q 1167 1035 1157 1026 q 1189 1044 1176 1043 q 1200 1043 1197 1044 q 1293 999 1244 1029 q 1375 932 1342 969 q 1383 910 1381 925 q 1373 885 1383 894 q 1350 876 1363 876 m 1203 793 q 1185 798 1193 793 q 1172 813 1176 803 q 1120 871 1156 843 q 1050 914 1085 899 q 1030 927 1036 919 q 1024 949 1024 935 q 1035 968 1024 960 q 1058 976 1046 976 q 1075 972 1063 976 q 1163 925 1119 958 q 1231 849 1206 892 q 1236 828 1236 838 q 1226 803 1236 813 q 1203 793 1217 793 m 1193 321 q 1215 281 1215 306 q 1202 247 1215 257 q 1171 236 1189 236 q 1149 243 1157 236 q 1041 360 1090 279 q 964 544 992 442 q 938 435 947 465 q 843 222 904 319 q 699 65 782 124 q 525 6 617 6 q 308 90 383 6 q 232 321 232 174 q 447 742 232 506 q 422 740 439 740 q 267 824 297 740 q 264 843 264 829 q 276 872 265 861 q 301 882 288 882 q 325 875 313 882 q 343 858 338 868 q 374 833 350 843 q 433 822 399 822 q 551 840 488 822 q 564 843 557 843 q 592 831 581 843 q 604 801 604 819 q 589 768 604 781 q 402 551 483 672 q 321 319 321 431 q 372 151 321 210 q 525 93 424 93 q 647 135 583 93 q 765 260 710 178 q 856 456 821 342 q 901 632 889 561 q 913 763 913 703 q 897 829 913 794 q 858 886 881 864 q 846 918 846 899 q 859 949 847 936 q 889 961 871 961 q 910 957 901 961 q 956 918 936 946 q 985 854 975 890 q 1006 696 1000 796 q 1065 470 1013 576 q 1193 321 1118 364 z "},"ぴ":{"ha":1389,"x_min":238,"x_max":1311,"o":"m 1193 800 q 1110 835 1144 800 q 1075 918 1075 869 q 1110 1001 1075 967 q 1193 1036 1144 1036 q 1276 1001 1242 1036 q 1311 918 1311 967 q 1276 835 1311 869 q 1193 800 1242 800 m 1193 854 q 1240 873 1221 854 q 1258 918 1258 892 q 1240 963 1258 944 q 1193 982 1221 982 q 1147 964 1165 982 q 1129 918 1129 946 q 1147 873 1129 892 q 1193 854 1165 854 m 1199 321 q 1221 281 1221 306 q 1208 247 1221 257 q 1176 236 1194 236 q 1154 243 1163 236 q 1047 360 1096 279 q 969 544 997 442 q 943 435 953 465 q 849 222 910 319 q 705 65 788 124 q 531 6 622 6 q 313 90 389 6 q 238 321 238 174 q 453 742 238 506 q 428 740 444 740 q 272 824 303 740 q 269 843 269 829 q 282 872 271 861 q 307 882 293 882 q 331 875 318 882 q 349 858 343 868 q 380 833 356 843 q 439 822 404 822 q 557 840 493 822 q 569 843 563 843 q 598 831 586 843 q 610 801 610 819 q 594 768 610 781 q 408 551 489 672 q 326 319 326 431 q 378 151 326 210 q 531 93 429 93 q 652 135 589 93 q 771 260 715 178 q 861 456 826 342 q 906 632 894 561 q 918 763 918 703 q 902 829 918 794 q 864 886 886 864 q 851 918 851 899 q 865 949 853 936 q 894 961 876 961 q 915 957 907 961 q 961 918 942 946 q 990 854 981 890 q 1011 696 1006 796 q 1071 470 1018 576 q 1199 321 1124 364 z "},"ふ":{"ha":1389,"x_min":122,"x_max":1278,"o":"m 657 43 q 413 113 531 43 q 389 154 389 125 q 402 183 389 174 q 431 193 415 193 q 451 188 442 193 q 653 131 560 131 q 740 164 704 131 q 775 247 775 197 q 743 360 775 308 q 628 465 711 413 q 574 519 590 489 q 558 576 558 549 q 681 756 558 660 q 713 797 713 781 q 674 838 713 813 q 599 905 629 865 q 569 990 569 944 q 583 1021 569 1010 q 614 1032 596 1032 q 642 1023 631 1032 q 658 997 654 1014 q 685 939 661 969 q 739 890 710 908 q 797 808 797 854 q 782 758 797 781 q 736 710 767 735 q 669 642 694 676 q 643 582 643 607 q 654 551 643 567 q 681 525 665 536 q 819 394 776 460 q 861 247 861 329 q 834 143 861 190 q 760 69 807 96 q 657 43 714 43 m 1236 160 q 1207 170 1219 160 q 1190 200 1194 181 q 1119 334 1178 293 q 989 378 1060 375 q 961 391 972 379 q 950 418 950 403 q 963 444 950 433 q 994 456 975 456 q 1126 424 1060 456 q 1235 336 1192 393 q 1278 207 1278 279 q 1265 172 1278 185 q 1236 160 1253 160 m 165 110 q 134 121 146 110 q 122 150 122 132 q 129 173 122 163 q 146 190 136 183 q 353 301 239 253 q 567 378 467 350 q 588 382 581 382 q 614 371 601 382 q 626 346 626 360 q 599 301 626 311 q 393 228 503 276 q 190 117 283 179 q 165 110 176 110 z "},"ぶ":{"ha":1389,"x_min":122,"x_max":1278,"o":"m 1233 851 q 1207 864 1215 851 q 1141 920 1182 894 q 1067 956 1100 946 q 1040 992 1040 964 q 1050 1010 1040 1001 q 1072 1019 1060 1018 q 1083 1018 1081 1019 q 1176 974 1128 1004 q 1258 907 1225 944 q 1267 885 1264 900 q 1256 860 1267 869 q 1233 851 1246 851 m 1086 768 q 1068 773 1076 768 q 1056 788 1060 778 q 1003 846 1039 818 q 933 889 968 874 q 913 902 919 894 q 907 924 907 910 q 918 943 907 935 q 942 951 929 951 q 958 947 946 951 q 1046 900 1003 933 q 1114 824 1089 867 q 1119 803 1119 813 q 1110 778 1119 788 q 1086 768 1100 768 m 657 43 q 413 113 531 43 q 389 154 389 125 q 402 183 389 174 q 431 193 415 193 q 451 188 442 193 q 653 131 560 131 q 740 164 704 131 q 775 247 775 197 q 743 360 775 308 q 628 465 711 413 q 574 519 590 489 q 558 576 558 549 q 681 756 558 660 q 713 797 713 781 q 674 838 713 813 q 599 905 629 865 q 569 990 569 944 q 583 1021 569 1010 q 614 1032 596 1032 q 642 1023 631 1032 q 658 997 654 1014 q 685 939 661 969 q 739 890 710 908 q 797 808 797 854 q 782 758 797 781 q 736 710 767 735 q 669 642 694 676 q 643 582 643 607 q 654 551 643 567 q 681 525 665 536 q 819 394 776 460 q 861 247 861 329 q 834 143 861 190 q 760 69 807 96 q 657 43 714 43 m 1236 160 q 1207 170 1219 160 q 1190 200 1194 181 q 1119 334 1178 293 q 989 378 1060 375 q 961 391 972 379 q 950 418 950 403 q 963 444 950 433 q 994 456 975 456 q 1126 424 1060 456 q 1235 336 1192 393 q 1278 207 1278 279 q 1265 172 1278 185 q 1236 160 1253 160 m 165 110 q 134 121 146 110 q 122 150 122 132 q 129 173 122 163 q 146 190 136 183 q 353 301 239 253 q 567 378 467 350 q 588 382 581 382 q 614 371 601 382 q 626 346 626 360 q 599 301 626 311 q 393 228 503 276 q 190 117 283 179 q 165 110 176 110 z "},"ぷ":{"ha":1389,"x_min":122,"x_max":1278,"o":"m 1058 767 q 975 801 1010 767 q 940 885 940 836 q 975 968 940 933 q 1058 1003 1010 1003 q 1142 968 1107 1003 q 1176 885 1176 933 q 1142 801 1176 836 q 1058 767 1107 767 m 1058 821 q 1105 840 1086 821 q 1124 885 1124 858 q 1105 930 1124 911 q 1058 949 1086 949 q 1013 931 1031 949 q 994 885 994 913 q 1013 840 994 858 q 1058 821 1031 821 m 657 43 q 413 113 531 43 q 389 154 389 125 q 402 183 389 174 q 431 193 415 193 q 451 188 442 193 q 653 131 560 131 q 740 164 704 131 q 775 247 775 197 q 743 360 775 308 q 628 465 711 413 q 574 519 590 489 q 558 576 558 549 q 681 756 558 660 q 713 797 713 781 q 674 838 713 813 q 599 905 629 865 q 569 990 569 944 q 583 1021 569 1010 q 614 1032 596 1032 q 642 1023 631 1032 q 658 997 654 1014 q 685 939 661 969 q 739 890 710 908 q 797 808 797 854 q 782 758 797 781 q 736 710 767 735 q 669 642 694 676 q 643 582 643 607 q 654 551 643 567 q 681 525 665 536 q 819 394 776 460 q 861 247 861 329 q 834 143 861 190 q 760 69 807 96 q 657 43 714 43 m 1236 160 q 1207 170 1219 160 q 1190 200 1194 181 q 1119 334 1178 293 q 989 378 1060 375 q 961 391 972 379 q 950 418 950 403 q 963 444 950 433 q 994 456 975 456 q 1126 424 1060 456 q 1235 336 1192 393 q 1278 207 1278 279 q 1265 172 1278 185 q 1236 160 1253 160 m 165 110 q 134 121 146 110 q 122 150 122 132 q 129 173 122 163 q 146 190 136 183 q 353 301 239 253 q 567 378 467 350 q 588 382 581 382 q 614 371 601 382 q 626 346 626 360 q 599 301 626 311 q 393 228 503 276 q 190 117 283 179 q 165 110 176 110 z "},"へ":{"ha":1389,"x_min":64,"x_max":1311,"o":"m 1267 304 q 1008 367 1140 304 q 711 568 876 431 q 605 644 660 613 q 514 675 550 675 q 410 634 467 675 q 296 519 354 593 q 172 449 238 449 q 98 473 132 449 q 64 531 64 497 q 74 558 64 547 q 101 571 85 569 q 131 558 122 571 q 172 540 146 540 q 232 576 204 540 q 373 713 299 664 q 514 761 447 761 q 637 727 579 761 q 760 640 694 693 q 1028 459 894 525 q 1267 392 1163 393 q 1299 380 1288 392 q 1311 347 1311 368 q 1299 317 1311 331 q 1267 304 1286 304 z "},"べ":{"ha":1389,"x_min":64,"x_max":1311,"o":"m 1210 793 q 1183 806 1192 793 q 1117 862 1158 836 q 1043 897 1076 888 q 1017 933 1017 906 q 1026 951 1017 943 q 1049 961 1036 960 q 1060 960 1057 961 q 1153 916 1104 946 q 1235 849 1201 886 q 1243 826 1240 842 q 1233 802 1243 811 q 1210 793 1222 793 m 1063 710 q 1044 715 1053 710 q 1032 729 1036 719 q 980 788 1015 760 q 910 831 944 815 q 890 844 896 836 q 883 865 883 851 q 894 885 883 876 q 918 893 906 893 q 935 889 922 893 q 1022 842 979 875 q 1090 765 1065 808 q 1096 744 1096 754 q 1086 719 1096 729 q 1063 710 1076 710 m 1267 304 q 1008 367 1140 304 q 711 568 876 431 q 605 644 660 613 q 514 675 550 675 q 410 634 467 675 q 296 519 354 593 q 172 449 238 449 q 98 473 132 449 q 64 531 64 497 q 74 558 64 547 q 101 571 85 569 q 131 558 122 571 q 172 540 146 540 q 232 576 204 540 q 373 713 299 664 q 514 761 447 761 q 637 727 579 761 q 760 640 694 693 q 1028 459 894 525 q 1267 392 1163 393 q 1299 380 1288 392 q 1311 347 1311 368 q 1299 317 1311 331 q 1267 304 1286 304 z "},"ぺ":{"ha":1389,"x_min":64,"x_max":1311,"o":"m 985 668 q 901 703 936 668 q 867 786 867 738 q 901 869 867 835 q 985 904 936 904 q 1068 869 1033 904 q 1103 786 1103 835 q 1068 703 1103 738 q 985 668 1033 668 m 985 722 q 1031 741 1013 722 q 1050 786 1050 760 q 1031 831 1050 813 q 985 850 1013 850 q 939 832 957 850 q 921 786 921 814 q 939 741 921 760 q 985 722 957 722 m 1267 304 q 1008 367 1140 304 q 711 568 876 431 q 605 644 660 613 q 514 675 550 675 q 410 634 467 675 q 296 519 354 593 q 172 449 238 449 q 98 473 132 449 q 64 531 64 497 q 74 558 64 547 q 101 571 85 569 q 131 558 122 571 q 172 540 146 540 q 232 576 204 540 q 373 713 299 664 q 514 761 447 761 q 637 727 579 761 q 760 640 694 693 q 1028 459 894 525 q 1267 392 1163 393 q 1299 380 1288 392 q 1311 347 1311 368 q 1299 317 1311 331 q 1267 304 1286 304 z "},"ほ":{"ha":1389,"x_min":218,"x_max":1217,"o":"m 379 1047 q 367 874 379 972 q 333 643 356 776 q 310 369 310 493 q 364 -1 310 156 q 367 -21 367 -12 q 354 -56 367 -42 q 324 -69 342 -69 q 295 -62 308 -69 q 276 -40 282 -54 q 218 367 218 111 q 250 663 218 478 q 292 1035 292 910 q 302 1072 292 1056 q 331 1088 313 1088 q 379 1047 379 1088 m 694 911 q 669 926 678 913 q 661 958 661 940 q 674 984 661 974 q 700 994 686 994 l 713 994 q 747 992 732 992 q 891 1009 807 992 q 1033 1053 975 1026 q 1050 1056 1044 1056 q 1080 1045 1068 1056 q 1092 1018 1092 1035 q 1085 994 1092 1006 q 1067 976 1078 982 q 909 928 1003 949 q 743 908 815 908 q 694 911 710 908 m 1210 117 q 1217 90 1217 106 q 1206 58 1217 69 q 1174 46 1194 46 q 1133 65 1151 46 q 974 211 1060 164 q 915 108 964 144 q 790 71 867 71 q 671 106 719 71 q 622 196 622 140 q 676 290 622 251 q 808 328 731 328 q 886 322 853 328 q 868 542 882 419 l 851 538 q 803 533 828 533 q 712 548 754 533 q 643 590 669 563 q 629 626 629 604 q 642 655 631 644 q 671 665 654 665 q 699 654 688 665 q 742 628 715 638 q 800 619 769 619 q 836 622 825 619 q 861 628 853 625 q 860 667 860 642 q 878 824 860 742 q 924 858 883 858 q 951 847 942 858 q 964 819 961 836 l 964 804 q 947 664 947 728 l 947 660 q 1082 735 1025 694 q 1110 743 1094 743 q 1138 732 1128 743 q 1149 704 1149 721 q 1132 665 1149 681 q 1058 617 1108 646 q 953 568 1007 589 q 974 300 964 457 q 1210 117 1110 250 m 790 146 q 856 170 828 146 q 888 243 885 194 q 808 251 850 251 q 735 235 765 251 q 704 197 704 218 q 731 161 704 176 q 790 146 758 146 z "},"ぼ":{"ha":1389,"x_min":206,"x_max":1388,"o":"m 1354 1057 q 1328 1069 1336 1057 q 1262 1126 1303 1100 q 1188 1161 1221 1151 q 1161 1197 1161 1169 q 1171 1215 1161 1207 q 1193 1225 1181 1224 q 1204 1224 1201 1225 q 1297 1180 1249 1210 q 1379 1113 1346 1150 q 1388 1090 1385 1106 q 1377 1066 1388 1075 q 1354 1057 1367 1057 m 1207 974 q 1189 978 1197 974 q 1176 993 1181 983 q 1124 1051 1160 1024 q 1054 1094 1089 1079 q 1034 1108 1040 1100 q 1028 1129 1028 1115 q 1039 1149 1028 1140 q 1063 1157 1050 1157 q 1079 1153 1067 1157 q 1167 1106 1124 1139 q 1235 1029 1210 1072 q 1240 1008 1240 1018 q 1231 983 1240 993 q 1207 974 1221 974 m 367 1038 q 355 865 367 963 q 321 633 343 767 q 297 360 297 483 q 351 -11 297 146 q 354 -31 354 -22 q 342 -65 354 -51 q 311 -79 329 -79 q 283 -72 296 -79 q 264 -50 269 -64 q 206 357 206 101 q 238 653 206 468 q 279 1025 279 900 q 290 1062 279 1046 q 318 1078 300 1078 q 367 1038 367 1078 m 682 901 q 657 917 665 903 q 649 949 649 931 q 661 974 649 964 q 688 985 674 985 l 700 985 q 735 982 719 982 q 878 999 794 982 q 1021 1043 963 1017 q 1038 1046 1032 1046 q 1067 1035 1056 1046 q 1079 1008 1079 1025 q 1072 984 1079 996 q 1054 967 1065 972 q 897 919 990 939 q 731 899 803 899 q 682 901 697 899 m 1197 107 q 1204 81 1204 96 q 1193 48 1204 60 q 1161 36 1182 36 q 1121 56 1139 36 q 961 201 1047 154 q 903 98 951 135 q 778 61 854 61 q 658 96 707 61 q 610 186 610 131 q 664 280 610 242 q 796 318 718 318 q 874 313 840 318 q 856 532 869 410 l 839 528 q 790 524 815 524 q 699 538 742 524 q 631 581 657 553 q 617 617 617 594 q 630 645 618 635 q 658 656 642 656 q 686 644 675 656 q 730 619 703 628 q 788 610 757 610 q 824 613 813 610 q 849 618 840 615 q 847 657 847 632 q 865 814 847 732 q 911 849 871 849 q 939 838 929 849 q 951 810 949 826 l 951 794 q 935 654 935 718 l 935 650 q 1069 725 1013 685 q 1097 733 1082 733 q 1126 722 1115 733 q 1136 694 1136 711 q 1119 656 1136 671 q 1045 608 1096 636 q 940 558 994 579 q 961 290 951 447 q 1197 107 1097 240 m 778 136 q 844 160 815 136 q 875 233 872 185 q 796 242 838 242 q 722 225 753 242 q 692 188 692 208 q 719 151 692 167 q 778 136 746 136 z "},"ぽ":{"ha":1389,"x_min":185,"x_max":1372,"o":"m 1254 900 q 1171 935 1206 900 q 1136 1018 1136 969 q 1171 1101 1136 1067 q 1254 1136 1206 1136 q 1338 1101 1303 1136 q 1372 1018 1372 1067 q 1338 935 1372 969 q 1254 900 1303 900 m 1254 954 q 1301 973 1282 954 q 1319 1018 1319 992 q 1301 1063 1319 1044 q 1254 1082 1282 1082 q 1208 1064 1226 1082 q 1190 1018 1190 1046 q 1208 973 1190 992 q 1254 954 1226 954 m 346 1047 q 334 874 346 972 q 300 643 322 776 q 276 369 276 493 q 331 -1 276 156 q 333 -21 333 -12 q 321 -56 333 -42 q 290 -69 308 -69 q 262 -62 275 -69 q 243 -40 249 -54 q 185 367 185 111 q 217 663 185 478 q 258 1035 258 910 q 269 1072 258 1056 q 297 1088 279 1088 q 346 1047 346 1088 m 661 911 q 636 926 644 913 q 628 958 628 940 q 640 984 628 974 q 667 994 653 994 l 679 994 q 714 992 699 992 q 858 1009 774 992 q 1000 1053 942 1026 q 1017 1056 1011 1056 q 1047 1045 1035 1056 q 1058 1018 1058 1035 q 1051 994 1058 1006 q 1033 976 1044 982 q 876 928 969 949 q 710 908 782 908 q 661 911 676 908 m 1176 117 q 1183 90 1183 106 q 1172 58 1183 69 q 1140 46 1161 46 q 1100 65 1118 46 q 940 211 1026 164 q 882 108 931 144 q 757 71 833 71 q 638 106 686 71 q 589 196 589 140 q 643 290 589 251 q 775 328 697 328 q 853 322 819 328 q 835 542 849 419 l 818 538 q 769 533 794 533 q 678 548 721 533 q 610 590 636 563 q 596 626 596 604 q 609 655 597 644 q 638 665 621 665 q 665 654 654 665 q 709 628 682 638 q 767 619 736 619 q 803 622 792 619 q 828 628 819 625 q 826 667 826 642 q 844 824 826 742 q 890 858 850 858 q 918 847 908 858 q 931 819 928 836 l 931 804 q 914 664 914 728 l 914 660 q 1049 735 992 694 q 1076 743 1061 743 q 1105 732 1094 743 q 1115 704 1115 721 q 1099 665 1115 681 q 1024 617 1075 646 q 919 568 974 589 q 940 300 931 457 q 1176 117 1076 250 m 757 146 q 823 170 794 146 q 854 243 851 194 q 775 251 817 251 q 701 235 732 251 q 671 197 671 218 q 698 161 671 176 q 757 146 725 146 z "},"ま":{"ha":1389,"x_min":364,"x_max":1025,"o":"m 1018 -18 q 1025 -42 1025 -26 q 1013 -77 1025 -65 q 982 -89 1001 -89 q 943 -67 958 -89 q 807 92 882 35 q 734 -10 793 31 q 599 -50 675 -50 q 503 -31 549 -50 q 431 22 458 -11 q 403 94 403 56 q 458 199 403 160 q 604 239 513 239 q 715 225 665 239 q 700 406 710 281 q 568 388 629 388 q 372 474 442 388 q 364 503 364 483 q 377 531 364 521 q 408 542 390 542 q 440 528 424 542 q 574 472 488 472 q 696 493 629 472 q 692 708 692 601 q 664 707 682 707 q 551 736 593 707 q 490 804 510 765 q 486 826 486 810 q 498 852 488 842 q 525 863 508 863 q 547 856 536 863 q 563 840 557 850 q 600 803 574 817 q 663 790 626 790 q 696 793 671 790 q 703 1015 703 883 q 665 1076 703 1053 q 649 1115 649 1092 q 661 1143 649 1133 q 690 1153 674 1153 q 713 1147 703 1153 q 767 1103 746 1133 q 788 1043 788 1074 q 781 885 788 976 l 776 811 q 817 826 785 814 q 833 829 828 829 q 863 818 851 828 q 875 790 875 808 q 868 763 875 775 q 847 746 861 751 q 775 722 833 740 q 781 526 775 625 q 911 599 844 557 q 932 604 925 604 q 964 593 950 604 q 978 567 978 582 q 972 542 978 554 q 957 525 967 531 q 786 436 867 468 q 792 371 789 392 l 806 190 q 1018 -18 932 125 m 719 140 q 604 160 664 160 q 519 142 551 160 q 488 96 488 125 q 521 51 488 69 q 599 32 554 32 q 687 56 654 32 q 719 131 719 79 l 719 140 z "},"み":{"ha":1389,"x_min":117,"x_max":1319,"o":"m 1301 388 q 1319 351 1319 378 q 1307 317 1319 329 q 1274 306 1294 306 q 1247 315 1258 306 q 1065 414 1160 375 q 967 144 1049 260 q 743 -26 885 29 q 714 -35 724 -35 q 683 -22 696 -35 q 671 8 671 -10 q 696 47 671 35 q 981 446 958 178 q 649 499 818 499 l 631 499 q 397 189 533 301 q 222 110 304 110 q 147 143 178 110 q 117 225 117 176 q 181 388 117 311 q 351 515 244 464 q 581 578 458 565 q 694 960 657 746 q 700 981 697 976 q 697 988 703 988 q 678 975 690 988 q 593 925 650 950 q 494 900 536 900 q 460 912 475 900 q 446 943 446 924 q 461 972 446 961 q 499 982 476 982 q 566 999 522 982 q 631 1038 610 1017 q 696 1064 657 1064 q 735 1054 713 1064 q 770 1023 757 1043 q 783 979 783 1003 q 779 951 783 967 q 668 581 740 746 q 981 533 826 579 q 950 719 975 638 q 946 743 946 728 q 960 769 947 758 q 990 779 974 779 q 1015 771 1003 779 q 1032 747 1026 763 q 1057 642 1046 707 q 1069 506 1068 576 q 1301 388 1203 454 m 349 254 q 536 489 456 343 q 366 433 443 472 q 244 342 289 394 q 200 236 200 289 q 210 203 200 217 q 236 190 221 190 q 281 206 256 190 q 349 254 307 221 z "},"む":{"ha":1389,"x_min":140,"x_max":1251,"o":"m 1068 517 q 1108 494 1099 517 q 1153 304 1153 390 q 1124 169 1153 232 q 951 27 1076 74 q 685 -19 825 -19 q 597 -17 614 -19 q 460 49 508 -6 q 411 199 411 104 q 417 261 411 233 q 317 345 354 281 q 281 504 281 410 q 338 628 281 583 q 482 674 394 674 l 490 674 q 507 839 504 806 q 351 781 410 804 q 290 769 318 769 q 210 783 247 769 q 150 819 172 797 q 140 851 140 831 q 152 880 140 869 q 181 890 164 890 q 208 879 200 890 q 241 860 219 868 q 286 853 263 853 q 324 858 307 853 q 513 925 465 910 q 442 999 507 992 q 413 1012 424 1000 q 403 1039 403 1024 q 415 1067 403 1057 q 446 1078 428 1078 q 544 1040 506 1078 q 588 949 582 1003 q 657 963 633 963 q 691 951 676 963 q 706 924 706 940 q 695 892 706 904 q 665 878 685 879 q 586 861 611 868 l 572 710 l 564 635 q 579 579 579 613 q 546 421 579 535 l 539 310 q 528 277 538 292 q 501 257 518 263 q 496 199 496 213 q 679 67 496 67 q 905 99 803 67 q 1042 203 1007 131 q 1064 306 1064 247 q 1028 457 1064 372 q 1024 474 1024 465 q 1037 506 1024 494 q 1068 517 1050 517 m 1090 1035 q 1174 1003 1138 1035 q 1231 923 1211 972 q 1251 822 1251 874 q 1240 794 1251 806 q 1211 782 1229 782 q 1182 792 1193 782 q 1168 817 1171 801 q 1144 913 1163 878 q 1099 953 1126 947 l 1089 954 q 1067 949 1076 954 q 1056 938 1058 944 q 1024 921 1043 921 q 998 931 1008 921 q 988 956 988 940 q 1020 1011 988 988 q 1090 1035 1053 1035 m 363 501 q 381 394 363 433 q 429 356 400 356 q 449 370 442 356 q 460 414 456 385 q 481 583 471 490 q 467 593 474 593 q 391 572 419 593 q 363 501 363 550 z "},"め":{"ha":1389,"x_min":276,"x_max":1144,"o":"m 801 783 q 1054 690 964 779 q 1144 442 1144 600 q 1082 243 1144 340 q 916 84 1019 146 q 699 19 813 22 l 697 19 q 667 32 681 19 q 654 64 654 44 q 666 96 654 85 q 696 108 678 107 q 886 169 804 115 q 1012 299 968 224 q 1056 439 1056 374 q 985 631 1056 563 q 786 699 914 699 l 768 699 q 643 431 711 550 q 718 386 658 421 q 739 351 739 378 q 726 317 739 331 q 692 304 714 304 q 671 311 681 304 q 596 357 632 333 q 400 213 494 213 q 311 249 346 213 q 276 353 276 286 q 301 465 276 408 q 371 574 326 521 q 276 904 289 706 q 278 918 276 914 q 291 944 279 935 q 318 953 303 953 q 367 910 361 953 q 439 643 382 750 q 568 728 499 693 q 708 776 638 763 q 789 1035 747 882 q 840 1074 799 1074 q 869 1060 858 1074 q 879 1026 879 1046 q 876 1006 879 1014 q 801 783 840 893 m 579 478 q 672 679 628 569 q 486 571 568 644 q 579 478 521 525 m 401 296 q 532 401 460 296 q 422 504 471 447 q 361 356 361 428 q 372 312 361 328 q 401 296 382 296 z "},"も":{"ha":1389,"x_min":399,"x_max":1015,"o":"m 954 358 q 1015 164 1015 254 q 948 -20 1015 50 q 761 -90 881 -90 q 596 -22 656 -90 q 536 160 536 47 q 539 244 536 181 q 437 306 475 260 q 399 417 399 351 q 446 475 399 475 q 467 467 457 475 q 478 447 476 458 q 488 413 482 440 q 547 338 497 354 q 590 649 563 496 q 521 654 558 654 l 468 654 q 440 665 451 654 q 428 694 428 676 q 441 731 428 717 q 474 744 454 744 q 606 736 553 744 q 622 840 615 790 q 629 918 629 890 q 558 1039 629 1011 q 528 1085 528 1050 q 541 1114 528 1101 q 571 1126 554 1126 q 676 1069 635 1126 q 718 922 718 1011 q 689 715 718 882 q 768 653 746 692 q 778 625 778 640 q 758 588 778 600 q 733 581 749 581 q 699 601 713 581 q 671 624 689 615 q 633 332 650 492 q 735 358 681 336 q 753 361 746 361 q 783 350 771 360 q 796 321 796 340 q 768 276 796 290 q 626 238 690 240 q 624 156 624 174 q 658 41 624 82 q 757 0 693 0 q 883 42 840 0 q 926 160 926 85 q 876 313 926 226 q 869 339 869 326 q 884 370 871 358 q 913 382 897 382 q 954 358 939 382 z "},"や":{"ha":1389,"x_min":100,"x_max":1254,"o":"m 1015 900 q 1201 838 1147 900 q 1254 692 1254 776 q 1200 547 1254 611 q 1056 447 1146 483 q 864 411 965 411 q 693 435 772 411 q 660 482 660 447 q 672 508 660 499 q 699 518 683 518 q 710 517 706 518 q 865 494 789 494 q 1013 520 943 494 q 1126 590 1083 546 q 1168 689 1168 635 q 1129 784 1168 751 q 1015 817 1090 817 q 769 747 935 817 q 469 604 603 678 l 485 586 q 687 302 613 442 q 761 65 761 163 q 748 33 761 44 q 717 21 735 21 q 684 33 699 21 q 668 65 669 44 q 601 281 668 157 q 413 542 533 406 l 394 563 q 263 529 328 529 q 117 581 183 529 q 100 619 100 593 q 112 646 100 636 q 139 656 124 656 q 167 646 153 656 q 261 614 211 614 q 342 631 301 614 q 303 756 303 696 q 328 820 303 794 q 401 846 354 846 q 483 836 440 846 q 585 807 525 826 q 566 845 582 826 q 528 878 550 864 q 510 913 510 889 q 521 940 510 931 q 549 950 532 950 q 575 942 563 950 q 639 881 613 922 q 665 801 665 839 l 665 794 q 1015 900 904 900 m 414 671 q 557 744 485 710 q 415 771 479 771 q 397 763 404 771 q 390 744 390 756 q 413 674 390 701 l 414 671 z "},"ゃ":{"ha":1389,"x_min":217,"x_max":1131,"o":"m 936 615 q 1079 570 1028 615 q 1131 444 1131 525 q 1091 331 1131 382 q 983 251 1051 281 q 833 222 915 222 q 696 239 767 222 q 674 253 682 242 q 665 282 665 265 q 678 307 665 294 q 706 319 692 319 q 719 317 708 319 q 833 304 769 304 q 938 322 889 304 q 1015 372 986 340 q 1044 442 1044 403 q 1015 510 1044 486 q 929 535 986 535 q 747 483 869 535 q 526 376 624 432 l 535 367 q 697 146 640 251 q 754 -36 754 40 q 741 -67 754 -54 q 711 -81 728 -81 q 679 -69 693 -81 q 664 -37 665 -57 q 612 116 661 25 q 469 315 563 207 l 453 335 q 346 311 399 311 q 233 347 283 311 q 217 385 217 361 q 228 413 217 400 q 257 425 240 425 q 282 418 268 425 q 350 394 311 394 q 407 406 381 394 q 382 500 382 453 q 403 554 382 533 q 460 575 425 575 q 597 543 518 575 q 558 585 588 565 q 540 615 540 596 q 552 641 542 631 q 578 651 563 651 q 601 644 590 651 q 653 599 633 628 q 672 538 672 569 l 672 536 q 936 615 857 615 m 460 489 q 475 440 460 467 l 500 453 q 526 466 510 457 q 567 486 542 475 q 475 507 507 507 q 460 489 460 507 z "},"ゆ":{"ha":1389,"x_min":182,"x_max":1181,"o":"m 1181 536 q 1142 375 1181 447 q 1034 258 1103 303 q 879 207 965 214 q 758 22 832 99 q 588 -87 683 -54 q 575 -89 583 -89 q 544 -76 557 -89 q 532 -44 532 -64 q 540 -19 532 -31 q 565 -1 549 -7 q 691 80 635 25 q 789 215 747 135 q 657 333 706 240 q 608 569 608 425 q 618 743 608 669 q 469 642 532 700 q 381 524 406 585 q 367 460 367 492 q 378 400 367 425 q 413 351 389 375 q 422 325 422 342 q 410 294 422 304 q 379 285 397 285 q 360 289 368 285 q 223 444 264 344 q 182 664 182 543 q 206 854 182 764 q 222 881 210 872 q 251 889 235 889 q 278 878 267 889 q 290 853 290 868 q 288 835 290 840 q 268 668 268 767 q 296 485 268 563 q 311 558 299 528 q 433 721 346 646 q 633 843 519 796 q 697 1019 656 956 q 790 1082 738 1082 q 893 1038 857 1082 q 944 890 929 994 q 1115 774 1050 869 q 1181 536 1181 679 m 789 1008 q 750 972 768 1008 q 719 872 732 936 q 864 896 793 892 q 837 983 854 958 q 789 1008 819 1008 m 693 569 q 727 381 693 453 q 822 293 761 308 q 876 619 876 440 q 872 817 876 738 q 704 781 789 810 q 693 569 693 683 m 913 296 q 1044 378 994 314 q 1093 539 1093 443 q 1056 714 1093 643 q 953 807 1018 785 q 958 617 958 736 q 913 296 958 440 z "},"ゅ":{"ha":1389,"x_min":290,"x_max":1076,"o":"m 1076 388 q 1012 210 1076 283 q 843 128 947 138 q 747 -15 806 43 q 613 -99 688 -72 q 597 -100 608 -100 q 569 -87 582 -100 q 557 -57 557 -75 q 565 -33 557 -43 q 589 -18 574 -22 q 685 38 640 -1 q 761 135 729 76 q 658 231 696 157 q 619 414 619 304 q 625 539 619 461 q 521 463 565 506 q 458 375 476 421 q 447 322 447 349 q 454 283 447 297 q 481 251 461 269 q 489 226 489 242 q 483 206 489 215 q 467 194 476 197 q 440 190 456 186 q 394 267 403 211 q 314 376 338 308 q 292 522 290 444 q 328 651 297 597 q 350 667 336 667 q 376 657 367 667 q 386 633 385 647 q 385 618 386 624 q 368 494 368 556 q 383 375 368 429 l 392 403 q 483 530 417 471 q 639 626 550 589 q 690 769 657 717 q 768 821 724 821 q 854 785 825 821 q 896 663 883 749 q 1027 569 978 643 q 1076 388 1076 496 m 767 747 q 741 722 753 747 q 721 654 729 697 q 819 669 774 668 q 801 729 814 711 q 767 747 788 747 m 700 414 q 724 267 700 324 q 790 197 747 211 q 831 442 831 310 q 826 600 831 538 q 708 575 768 596 q 700 414 700 504 m 871 203 q 965 272 928 222 q 1001 388 1001 322 q 975 517 1001 464 q 903 589 949 569 q 906 453 906 511 q 871 203 906 319 z "},"よ":{"ha":1389,"x_min":417,"x_max":1011,"o":"m 999 61 q 1011 29 1011 46 q 998 -3 1011 11 q 965 -17 985 -17 q 933 -3 943 -17 q 801 118 869 71 q 736 4 786 46 q 613 -37 686 -37 q 472 8 526 -37 q 417 124 417 54 q 475 226 417 189 q 629 264 533 264 q 714 251 671 264 q 629 575 700 399 q 563 778 590 676 q 536 953 536 881 q 544 1032 536 993 q 600 1069 556 1069 q 628 1059 615 1069 q 640 1033 640 1049 q 639 1015 640 1021 q 633 950 633 974 q 639 867 633 922 q 813 845 725 864 q 954 786 900 826 q 972 751 972 771 q 960 719 972 731 q 928 707 947 707 q 911 711 922 707 q 890 721 900 715 q 656 776 813 769 q 714 603 681 678 q 806 215 800 408 q 999 61 908 161 m 613 46 q 682 78 656 46 q 715 165 708 110 q 629 183 671 183 q 540 167 571 183 q 508 122 508 150 q 538 68 508 90 q 613 46 567 46 z "},"ょ":{"ha":1389,"x_min":497,"x_max":949,"o":"m 939 38 q 949 10 949 25 q 938 -19 949 -8 q 908 -31 926 -31 q 892 -26 900 -31 q 879 -17 883 -22 q 799 63 839 32 q 744 -15 783 14 q 654 -44 706 -44 q 542 -8 586 -44 q 497 82 497 28 q 540 160 497 132 q 654 189 582 189 q 724 179 690 189 q 698 315 718 246 q 656 432 678 385 q 588 719 588 579 q 593 779 588 743 q 606 802 596 793 q 633 811 617 811 q 662 801 650 811 q 675 776 674 792 q 674 756 675 764 q 671 719 671 739 q 675 657 671 689 q 800 640 738 654 q 903 599 863 626 q 921 567 921 589 q 910 538 921 549 q 882 528 899 528 q 860 535 871 528 q 690 578 797 575 q 731 460 706 518 q 781 317 757 401 q 808 144 804 233 q 939 38 882 104 m 650 29 q 699 49 679 29 q 725 106 719 69 q 656 121 686 121 q 597 110 618 121 q 575 82 575 100 q 597 44 575 60 q 650 29 618 29 z "},"ら":{"ha":1389,"x_min":439,"x_max":1039,"o":"m 781 519 q 969 466 899 519 q 1039 313 1039 413 q 976 163 1039 232 q 810 48 914 93 q 586 -11 707 3 l 578 -11 q 549 0 561 -11 q 538 29 538 11 q 548 62 538 50 q 576 76 558 74 q 760 122 674 89 q 899 206 846 156 q 951 313 951 256 q 904 405 951 374 q 782 436 857 436 q 696 410 740 436 q 615 345 651 385 q 560 268 578 306 q 544 251 556 260 q 522 243 532 243 q 493 254 503 243 q 451 338 464 285 q 439 472 439 390 q 456 707 439 589 q 506 834 465 779 q 606 917 547 889 q 681 936 638 933 q 609 976 647 960 q 542 993 571 992 q 515 1007 525 994 q 504 1038 504 1019 q 517 1065 504 1056 q 553 1075 531 1075 q 659 1044 596 1075 q 769 971 722 1014 q 815 893 815 928 q 803 862 815 874 q 772 850 790 850 q 751 856 765 850 q 700 871 726 871 q 639 856 672 871 q 575 797 600 836 q 543 707 550 758 q 525 476 525 581 q 533 364 525 410 q 646 475 579 431 q 781 519 713 519 z "},"り":{"ha":1389,"x_min":371,"x_max":990,"o":"m 851 1131 q 960 994 931 1104 q 990 703 990 883 q 913 190 990 382 q 676 -85 836 -1 q 657 -90 669 -90 q 626 -79 640 -90 q 613 -49 613 -68 q 639 -6 613 -19 q 837 233 772 61 q 901 694 901 404 q 884 942 901 857 q 826 1050 867 1026 q 794 1096 794 1069 q 806 1123 794 1113 q 836 1133 818 1133 q 851 1131 846 1133 m 646 729 q 640 707 646 718 q 590 579 615 661 q 565 392 565 497 q 553 364 565 376 q 525 351 542 351 q 493 364 506 351 q 415 488 442 407 q 389 669 389 569 q 397 778 389 724 q 404 876 404 831 q 382 942 404 915 q 371 975 371 957 q 383 1002 371 990 q 411 1014 396 1014 q 442 1001 429 1014 q 476 953 465 979 q 488 888 488 926 q 478 772 488 843 q 471 674 471 717 q 500 490 471 565 q 538 636 513 568 q 583 739 563 704 q 617 760 594 760 q 638 751 629 760 q 646 729 646 743 z "},"る":{"ha":1389,"x_min":278,"x_max":1035,"o":"m 765 592 q 902 557 840 592 q 999 460 964 522 q 1035 317 1035 397 q 988 149 1035 225 q 858 29 942 74 q 669 -15 775 -15 q 543 23 594 -15 q 492 121 492 61 q 524 202 492 169 q 600 235 556 235 q 709 197 664 235 q 783 85 754 160 q 902 175 857 114 q 947 315 947 236 q 896 458 947 406 q 763 510 844 510 q 534 432 639 510 q 358 211 429 354 q 342 195 353 201 q 317 189 331 189 q 288 201 299 189 q 278 229 278 214 q 290 261 278 236 q 478 573 351 396 q 790 940 606 750 q 601 886 694 936 q 517 856 561 864 q 413 849 472 849 q 385 860 396 849 q 375 890 375 872 q 389 921 375 910 q 422 932 403 932 q 564 960 510 932 q 678 1004 617 989 q 792 1019 739 1019 q 869 1008 838 1019 q 901 971 901 996 q 886 935 901 950 q 687 718 778 822 q 522 506 596 614 q 765 592 639 592 m 665 63 q 708 65 681 63 q 604 158 664 158 q 581 147 590 158 q 572 121 572 136 q 599 80 572 97 q 665 63 626 63 z "},"れ":{"ha":1389,"x_min":97,"x_max":1321,"o":"m 1278 279 q 1308 268 1296 279 q 1321 238 1321 257 q 1315 213 1321 225 q 1296 193 1308 200 q 1184 143 1251 164 q 1071 122 1117 122 q 871 314 871 122 q 919 643 871 424 q 939 768 939 738 q 865 833 939 833 q 699 744 815 833 q 413 465 583 656 q 410 307 410 410 q 397 -40 410 24 q 346 -79 390 -79 q 321 -66 332 -79 q 310 -37 310 -53 q 314 -10 310 -25 q 324 297 324 38 l 324 367 l 290 328 q 176 199 256 290 q 136 182 160 182 q 108 196 119 183 q 97 226 97 208 q 110 257 97 244 q 237 413 201 358 q 299 542 272 468 q 308 593 308 564 q 242 650 308 629 q 207 697 207 658 q 220 726 207 715 q 253 736 233 736 q 340 697 299 736 q 354 832 349 783 q 361 926 361 879 q 345 995 361 971 q 292 1031 329 1019 q 257 1076 257 1043 q 269 1103 257 1093 q 299 1115 282 1114 q 307 1114 304 1115 q 413 1056 376 1101 q 450 933 450 1011 q 446 885 449 914 q 440 836 443 857 q 418 590 422 668 q 695 842 583 761 q 878 922 807 922 q 987 885 947 922 q 1026 775 1026 847 q 1006 633 1026 715 q 958 326 958 425 q 987 235 958 263 q 1083 208 1015 208 q 1165 228 1113 208 q 1250 271 1217 247 q 1278 279 1261 279 z "},"ろ":{"ha":1389,"x_min":235,"x_max":1118,"o":"m 835 633 q 980 595 915 633 q 1081 490 1044 557 q 1118 339 1118 422 q 1052 138 1118 228 q 870 -3 986 49 q 611 -54 754 -54 q 579 -42 592 -54 q 567 -14 567 -29 q 608 33 567 33 q 827 77 731 36 q 977 186 924 118 q 1031 339 1031 254 q 974 488 1031 428 q 832 547 918 547 q 667 499 758 547 q 490 368 576 451 q 343 183 404 285 q 321 142 335 169 q 303 124 315 131 q 276 118 290 118 q 246 133 257 118 q 235 164 235 147 q 242 189 235 178 q 392 443 285 275 q 613 772 499 611 q 792 1001 726 932 q 628 932 729 990 q 422 875 526 875 q 390 888 404 875 q 375 924 375 900 q 392 952 375 942 q 428 963 408 963 q 586 1000 521 963 q 860 1082 729 1082 q 898 1070 882 1082 q 914 1042 914 1058 q 903 1013 914 1026 q 729 799 843 951 q 504 476 615 646 q 678 590 589 547 q 835 633 767 633 z "},"わ":{"ha":1389,"x_min":157,"x_max":1228,"o":"m 914 861 q 1149 781 1071 861 q 1228 536 1228 701 q 1180 349 1228 442 q 1047 182 1132 256 q 856 68 963 108 q 836 65 847 65 q 808 77 821 65 q 794 107 794 89 q 825 149 794 139 q 988 247 917 185 q 1099 384 1058 308 q 1139 536 1139 460 q 1083 717 1139 660 q 913 775 1028 775 q 705 701 826 775 q 444 486 583 626 q 438 240 438 389 q 444 7 438 122 q 446 -18 446 -4 q 434 -46 446 -35 q 404 -57 422 -57 q 374 -46 388 -57 q 358 -17 360 -35 q 350 232 350 131 q 354 390 350 314 q 236 251 297 326 q 203 235 224 235 q 169 246 182 235 q 157 281 157 257 q 167 304 157 292 q 276 441 231 379 q 338 535 321 503 q 358 579 350 554 q 365 625 365 604 q 344 660 365 644 q 300 676 322 676 q 274 689 283 678 q 264 719 264 700 q 277 747 264 736 q 308 757 290 757 q 388 731 347 757 q 399 804 390 751 q 410 913 410 871 q 389 949 410 931 q 350 971 368 968 q 323 985 333 972 q 313 1014 313 997 q 327 1042 313 1032 q 363 1053 342 1053 q 423 1039 394 1053 q 471 1001 451 1025 q 496 917 496 975 q 485 803 496 881 q 456 603 465 690 q 709 794 589 726 q 914 861 829 861 z "},"ゎ":{"ha":1389,"x_min":278,"x_max":1110,"o":"m 863 644 q 1049 581 989 644 q 1110 386 1110 518 q 1074 238 1110 313 q 972 105 1038 164 q 825 19 907 46 q 806 15 815 15 q 776 26 789 15 q 763 54 763 36 q 794 94 763 83 q 916 166 863 119 q 999 271 969 213 q 1029 386 1029 329 q 989 521 1029 478 q 863 564 949 564 q 704 506 797 564 q 506 342 611 449 q 499 169 499 244 q 508 -37 499 60 l 508 -43 q 497 -68 507 -58 q 471 -78 486 -78 q 444 -68 456 -78 q 432 -44 433 -58 q 422 176 422 63 q 424 256 422 229 q 344 161 371 194 q 317 147 333 147 q 288 158 299 147 q 278 188 278 169 q 285 208 278 200 q 415 397 397 358 q 432 454 432 435 q 419 476 432 465 q 390 489 406 486 q 367 503 375 492 q 358 529 358 514 q 400 563 358 563 q 450 551 425 563 q 460 617 456 597 q 464 671 464 646 q 425 715 464 710 q 405 728 413 717 q 397 756 397 739 q 410 781 397 769 q 440 792 424 792 q 522 749 490 792 q 544 675 544 715 q 540 629 544 654 q 515 451 525 533 q 708 594 618 544 q 863 644 797 644 z "},"ゐ":{"ha":1389,"x_min":228,"x_max":1175,"o":"m 908 756 q 1106 671 1036 756 q 1175 428 1175 586 q 1128 223 1175 314 q 1000 81 1082 132 q 814 29 918 29 q 701 54 751 29 q 623 124 651 79 q 594 222 594 168 q 615 307 594 267 q 672 372 635 347 q 758 396 710 396 q 865 364 826 396 q 904 279 904 332 q 871 206 904 232 q 790 179 838 179 q 764 189 775 179 q 753 215 753 199 q 763 240 753 231 q 786 250 772 250 q 829 275 829 250 q 808 312 829 300 q 756 324 788 324 q 696 294 721 324 q 671 226 671 265 q 710 140 671 172 q 815 108 750 108 q 958 150 896 108 q 1056 265 1021 192 q 1092 428 1092 338 q 1045 614 1092 556 q 904 672 999 672 q 788 654 856 672 q 650 604 721 636 q 499 247 575 393 q 364 100 424 100 q 266 158 304 100 q 228 301 228 215 q 333 492 228 396 q 590 661 438 588 q 650 843 631 778 q 668 910 668 889 q 663 917 668 917 q 632 906 654 917 q 592 882 610 894 q 500 844 536 844 q 399 890 438 844 q 392 903 394 894 q 389 918 389 911 q 401 945 389 933 q 429 957 414 957 q 457 944 444 957 q 507 922 479 922 q 572 954 524 922 q 672 996 635 996 q 724 976 706 996 q 743 921 743 957 q 735 867 743 906 q 682 701 706 772 q 908 756 829 756 m 365 188 q 440 288 389 188 q 553 557 490 389 q 376 430 446 499 q 306 304 306 361 q 322 221 306 254 q 365 188 339 188 z "},"ゑ":{"ha":1389,"x_min":156,"x_max":1228,"o":"m 951 357 q 1085 326 1021 357 q 1188 247 1149 296 q 1228 143 1228 197 q 1204 75 1228 100 q 1140 50 1181 50 q 1008 94 1088 50 q 988 112 997 100 q 978 135 978 124 q 990 163 978 151 q 1017 175 1001 175 q 1029 172 1021 175 q 1084 147 1057 157 q 1128 136 1111 138 q 1146 149 1146 136 q 1117 209 1146 178 q 1042 261 1088 240 q 951 282 997 282 q 885 259 921 282 q 801 167 850 236 q 721 74 761 107 q 644 42 681 42 q 581 60 617 42 q 514 107 544 79 q 474 137 494 124 q 442 150 453 150 q 412 136 426 150 q 375 89 397 122 q 328 40 351 56 q 269 24 306 24 q 185 50 215 24 q 156 140 156 76 q 205 247 156 194 q 341 338 254 299 q 536 392 428 376 q 521 440 521 414 q 557 506 521 476 q 636 535 593 535 q 708 508 679 535 q 738 444 738 482 q 718 403 738 422 q 889 467 822 414 q 956 599 956 519 q 924 671 956 644 q 835 697 892 697 q 704 673 772 697 q 572 600 636 649 q 424 424 458 469 q 408 409 418 414 q 388 404 397 404 q 362 415 372 404 q 351 443 351 426 q 365 479 351 463 q 591 735 429 556 q 804 963 753 914 q 824 993 824 982 q 808 1003 824 1003 q 722 953 792 1003 q 626 891 668 910 q 565 872 583 872 q 481 913 528 872 q 471 928 475 918 q 467 944 467 938 q 477 973 467 961 q 504 985 488 985 q 529 974 515 985 q 575 950 556 950 q 696 1014 608 950 q 817 1072 776 1072 q 874 1050 853 1072 q 896 996 896 1028 q 865 924 896 954 l 690 732 q 850 769 776 769 q 985 724 935 769 q 1036 603 1036 679 q 988 465 1036 525 q 858 374 940 406 q 679 342 776 342 q 615 349 647 342 q 576 339 606 346 q 404 290 482 322 q 281 221 326 258 q 235 149 235 183 q 245 116 235 128 q 275 104 256 104 q 306 115 290 104 q 342 154 321 126 q 444 231 399 231 q 497 219 474 231 q 547 182 519 207 q 606 138 581 151 q 644 124 632 124 q 750 225 681 124 q 852 328 803 300 q 951 357 901 357 m 629 469 q 600 461 614 469 q 586 435 586 453 q 594 419 586 426 q 618 406 603 411 q 674 436 674 421 q 660 460 674 450 q 629 469 646 469 z "},"を":{"ha":1389,"x_min":136,"x_max":1238,"o":"m 1076 694 q 1195 660 1153 694 q 1238 565 1238 625 q 1099 403 1238 460 q 811 300 994 361 q 772 139 790 236 q 726 101 767 101 q 699 113 711 101 q 688 142 688 125 l 690 176 q 706 265 694 214 q 581 160 581 217 q 630 88 581 114 q 768 61 679 61 q 989 97 874 61 q 1011 103 999 103 q 1041 90 1029 103 q 1053 60 1053 78 q 1044 32 1053 44 q 1021 15 1035 19 q 782 -21 896 -21 q 572 25 650 -21 q 493 150 493 71 q 544 265 493 217 q 724 357 596 314 q 736 515 736 431 q 717 642 736 594 q 654 689 697 689 q 511 592 600 689 q 325 340 422 494 q 282 279 292 292 q 239 261 268 261 q 206 273 218 261 q 193 307 193 285 q 198 324 193 314 q 208 340 203 335 q 247 394 229 368 q 447 768 392 622 q 279 735 356 735 q 204 743 239 735 q 150 765 169 751 q 136 799 136 778 q 148 830 136 818 q 178 843 160 842 q 201 836 190 843 q 278 818 228 818 q 472 869 365 818 l 472 878 q 454 958 472 925 q 418 999 436 992 q 394 1016 401 1006 q 388 1046 388 1026 q 400 1070 388 1061 q 431 1079 413 1079 q 515 1032 481 1079 q 553 913 550 985 q 608 949 589 935 q 639 958 619 958 q 676 924 676 958 q 671 901 676 913 q 656 885 665 890 q 536 810 589 836 q 481 657 517 740 q 581 741 533 710 q 661 772 628 772 q 776 702 743 772 q 814 499 810 632 q 942 641 871 588 q 1076 694 1014 694 m 1047 463 q 1153 553 1153 511 q 1065 614 1153 614 q 950 559 1010 614 q 844 396 890 504 l 885 408 q 1047 463 1008 447 z "},"ん":{"ha":1389,"x_min":131,"x_max":1283,"o":"m 1238 518 q 1270 505 1257 518 q 1283 472 1283 492 q 1232 251 1283 349 q 1094 98 1181 153 q 904 43 1007 43 q 767 93 829 43 q 649 250 704 143 q 540 368 589 368 q 381 275 471 368 q 219 50 290 182 q 201 31 214 38 q 174 24 188 24 q 151 29 161 24 q 131 68 131 40 q 136 93 131 83 q 358 488 247 300 q 551 794 469 676 q 582 888 582 838 q 553 954 582 929 q 538 989 538 965 q 552 1017 538 1006 q 585 1028 567 1028 q 611 1018 600 1028 q 676 888 676 969 q 635 760 676 822 q 415 404 531 604 q 547 454 490 454 q 640 415 596 454 q 725 292 683 375 q 815 167 769 207 q 910 128 860 128 q 1045 173 983 128 q 1146 297 1107 218 q 1190 475 1185 376 q 1238 518 1194 518 z "},"ゔ":{"ha":1389,"x_min":364,"x_max":1363,"o":"m 586 1068 q 574 1100 574 1083 q 587 1128 575 1117 q 614 1140 599 1140 q 642 1129 631 1140 q 878 992 754 1013 q 914 950 914 985 q 903 922 914 935 q 878 910 893 910 q 861 911 867 910 q 715 963 782 925 q 586 1068 647 1001 m 611 -93 q 579 -81 592 -93 q 567 -49 567 -69 q 588 -10 567 -24 q 770 203 724 85 q 817 417 817 321 q 792 591 817 529 q 706 653 768 653 q 576 603 653 653 q 460 558 507 558 q 412 570 436 558 q 374 600 388 582 q 364 632 364 611 q 375 661 364 650 q 401 672 386 672 q 428 663 418 672 q 463 647 446 647 q 500 655 481 647 q 535 674 519 663 q 625 722 579 704 q 708 740 671 740 q 856 653 808 740 q 904 419 904 565 q 884 268 904 354 q 804 85 864 182 q 636 -83 744 -11 q 625 -90 632 -87 q 611 -93 618 -93 m 1329 1000 q 1303 1013 1311 1000 q 1237 1069 1278 1043 q 1163 1104 1196 1094 q 1136 1140 1136 1113 q 1146 1158 1136 1150 q 1168 1168 1156 1167 q 1179 1167 1176 1168 q 1272 1123 1224 1153 q 1354 1056 1321 1093 q 1363 1033 1360 1049 q 1352 1009 1363 1018 q 1329 1000 1342 1000 m 1182 917 q 1164 922 1172 917 q 1151 936 1156 926 q 1099 994 1135 967 q 1029 1038 1064 1022 q 1009 1051 1015 1043 q 1003 1072 1003 1058 q 1014 1092 1003 1083 q 1038 1100 1025 1100 q 1054 1096 1042 1100 q 1142 1049 1099 1082 q 1210 972 1185 1015 q 1215 951 1215 961 q 1206 926 1215 936 q 1182 917 1196 917 z "},"ア":{"ha":1389,"x_min":281,"x_max":1131,"o":"m 1103 944 q 1131 886 1131 924 q 1095 803 1131 853 q 1008 708 1060 754 q 914 639 957 661 q 889 631 901 631 q 858 641 872 631 q 844 669 844 651 q 867 707 844 696 q 982 789 931 740 q 1043 875 1033 838 q 925 888 1001 888 q 707 867 846 888 q 483 824 568 846 q 432 817 456 817 q 306 853 374 817 q 281 893 281 868 q 294 922 282 910 q 322 933 306 933 q 340 929 331 933 q 433 903 407 904 q 463 907 447 903 q 697 948 549 926 q 957 969 846 969 q 1049 964 1014 969 q 1103 944 1085 958 m 668 790 q 740 767 707 790 q 794 708 774 744 q 814 635 814 671 q 708 315 814 467 q 392 46 601 163 q 363 38 375 38 q 341 44 351 38 q 325 61 331 51 q 321 83 321 72 q 339 118 321 107 q 632 358 533 226 q 731 629 731 490 q 656 713 731 685 q 624 757 624 724 q 636 781 624 772 q 668 790 649 790 z "},"ァ":{"ha":1389,"x_min":367,"x_max":1043,"o":"m 1010 631 q 1043 571 1043 613 q 999 474 1043 528 q 900 392 954 419 q 872 385 890 385 q 844 395 856 385 q 832 422 832 406 q 854 458 832 444 q 919 505 893 479 q 960 568 944 531 q 879 572 925 572 q 714 556 815 572 q 535 521 613 540 q 517 518 529 519 q 496 517 506 517 q 389 543 446 517 q 367 585 367 557 q 378 611 367 600 q 404 624 389 622 q 422 621 417 624 q 497 599 464 599 q 519 600 515 599 q 708 633 599 617 q 901 649 818 649 q 1010 631 979 649 m 692 507 q 772 464 742 496 q 803 394 803 432 q 780 271 803 349 q 682 96 757 193 q 465 -76 607 -1 q 442 -85 456 -85 q 413 -70 424 -85 q 403 -39 403 -56 q 425 -4 403 -17 q 615 143 549 61 q 703 290 682 225 q 724 385 724 354 q 707 411 724 397 q 667 435 690 425 q 647 451 653 442 q 642 474 642 460 q 652 499 642 490 q 678 507 663 507 l 692 507 z "},"イ":{"ha":1389,"x_min":290,"x_max":894,"o":"m 894 554 q 889 464 894 503 q 875 125 875 339 l 878 60 q 883 -8 883 10 q 869 -32 883 -22 q 838 -42 856 -42 q 809 -32 821 -42 q 793 -4 797 -22 q 788 119 788 25 q 803 446 788 263 q 806 547 806 485 q 747 667 806 613 q 567 451 667 554 q 360 272 467 349 q 335 264 349 264 q 303 276 317 264 q 290 307 290 288 q 294 327 290 317 q 307 343 299 338 q 587 595 474 468 q 774 860 700 722 q 791 903 783 878 q 799 942 799 928 q 788 981 799 964 q 754 1018 776 999 q 736 1053 736 1036 q 747 1077 736 1068 q 776 1088 758 1086 q 800 1083 789 1088 q 865 1026 840 1064 q 889 947 889 989 q 875 882 889 917 q 797 740 846 817 q 894 554 894 661 z "},"ィ":{"ha":1389,"x_min":351,"x_max":831,"o":"m 757 482 q 810 419 790 457 q 831 342 831 382 l 831 326 q 825 146 828 289 q 822 -86 822 3 q 809 -116 822 -104 q 779 -128 796 -128 q 751 -117 763 -128 q 740 -89 740 -106 q 744 142 740 4 q 750 322 747 281 l 750 333 q 711 414 750 385 q 572 251 649 329 q 417 114 496 172 q 393 108 407 108 q 363 118 375 108 q 351 147 351 128 q 369 182 351 168 q 578 380 481 264 q 738 615 675 496 q 743 642 743 626 q 735 666 743 654 q 715 683 726 678 q 693 725 693 701 q 704 747 693 739 q 733 754 715 754 q 799 721 769 754 q 829 644 829 688 q 817 590 829 618 q 757 482 786 526 z "},"ウ":{"ha":1389,"x_min":329,"x_max":1079,"o":"m 1000 821 q 1060 797 1040 821 q 1079 735 1079 772 q 1075 694 1079 714 q 936 367 1043 518 q 483 -14 779 139 q 464 -18 475 -18 q 433 -5 444 -18 q 421 26 421 8 q 442 63 421 49 q 864 408 715 203 q 940 537 911 474 q 985 676 969 600 q 988 704 988 683 q 961 736 988 736 l 929 733 q 519 688 750 708 q 535 539 528 625 q 542 396 542 453 q 528 363 542 375 q 497 350 515 350 q 465 362 478 350 q 453 392 453 374 q 446 539 453 451 q 432 679 439 626 q 413 723 429 707 q 356 754 397 739 q 337 769 344 758 q 329 793 329 781 q 342 823 329 811 q 372 835 354 835 q 385 833 381 835 q 490 767 457 811 q 697 786 585 774 l 697 832 q 700 910 697 865 l 700 924 q 677 952 700 942 q 622 967 654 963 q 585 1011 585 972 q 599 1040 585 1029 q 632 1051 614 1051 q 743 1022 700 1051 q 786 947 786 992 l 786 932 q 783 842 783 888 q 785 794 783 810 q 958 817 907 807 q 1000 821 986 821 z "},"ゥ":{"ha":1389,"x_min":400,"x_max":1004,"o":"m 917 565 q 982 550 961 565 q 1004 501 1003 535 q 1000 463 1004 483 q 853 146 971 288 q 539 -87 735 4 q 528 -90 536 -87 q 515 -93 521 -93 q 488 -80 499 -93 q 478 -50 478 -67 q 484 -31 478 -40 q 500 -18 490 -22 q 781 188 676 68 q 915 489 885 307 q 739 471 853 488 q 564 454 626 458 q 574 345 569 411 q 578 231 578 279 q 567 200 578 213 q 535 188 556 188 q 506 198 518 188 q 494 225 494 208 q 481 450 493 317 q 466 481 478 469 q 424 504 454 493 q 406 519 413 508 q 400 542 400 529 q 412 572 400 561 q 439 583 424 583 l 457 581 q 538 525 510 564 q 694 538 619 529 q 681 632 693 604 q 635 668 669 660 q 603 707 603 678 q 614 734 603 725 q 643 743 625 743 q 735 710 699 743 q 772 638 772 676 l 772 550 q 917 565 871 565 z "},"エ":{"ha":1389,"x_min":115,"x_max":1267,"o":"m 1218 403 q 1253 392 1239 403 q 1267 364 1267 381 q 1254 331 1267 344 q 1221 318 1242 318 q 921 292 1133 318 q 533 239 708 267 q 401 219 444 225 q 318 214 358 214 q 138 250 199 214 q 115 290 115 264 q 128 320 117 308 q 157 332 140 332 q 178 328 165 332 q 248 303 217 308 q 324 299 279 299 q 513 318 397 299 q 679 343 576 329 q 689 481 685 413 q 694 582 693 550 q 684 619 694 600 q 657 650 674 639 q 522 636 564 636 q 347 674 421 636 q 330 690 336 679 q 324 713 324 700 q 336 742 324 731 q 367 753 349 753 q 390 749 369 753 q 463 726 424 733 q 533 718 501 718 q 737 749 576 718 q 961 800 897 779 q 979 803 968 803 q 1003 794 992 803 q 1019 774 1015 786 q 1022 763 1022 765 q 1013 735 1022 747 q 989 718 1004 724 q 887 692 954 707 q 749 665 819 678 q 783 579 783 624 q 779 479 783 540 q 769 356 775 418 q 1218 403 1106 403 z "},"ェ":{"ha":1389,"x_min":238,"x_max":1139,"o":"m 1100 226 q 1128 215 1117 226 q 1139 188 1139 203 q 1128 158 1139 169 q 1100 147 1117 147 q 891 130 1038 147 q 613 90 744 113 q 401 67 465 67 q 258 96 310 67 q 238 135 238 107 q 249 160 238 150 q 276 169 260 169 q 294 165 286 169 q 350 149 319 156 q 406 143 381 143 q 569 164 472 143 q 675 182 604 171 q 689 319 678 222 l 692 364 q 685 391 692 381 q 664 410 679 401 q 558 399 594 399 q 419 432 499 399 q 404 447 410 438 q 399 468 399 457 q 410 496 399 485 q 439 507 422 507 q 457 503 449 507 q 511 486 481 492 q 567 481 542 481 q 722 505 597 481 q 896 544 846 529 q 908 546 900 546 q 939 535 926 546 q 951 507 951 524 q 944 482 951 493 q 924 467 936 471 q 751 426 860 447 q 768 372 768 400 q 765 303 768 326 q 754 194 758 254 q 1100 226 994 226 z "},"オ":{"ha":1389,"x_min":200,"x_max":1160,"o":"m 1119 844 q 1148 835 1136 844 q 1160 807 1160 825 q 1153 776 1160 786 q 1131 760 1146 765 q 889 693 1026 724 q 896 301 896 508 q 886 22 896 124 q 871 -7 883 4 q 838 -18 858 -18 q 814 -11 825 -18 q 797 6 803 -4 q 726 86 771 54 q 638 131 681 118 q 607 175 607 140 q 619 197 607 189 q 650 204 632 204 q 723 179 676 204 q 804 119 769 154 q 810 331 810 199 q 806 572 810 454 q 567 333 713 450 q 271 154 421 215 q 249 150 254 150 q 216 160 232 150 q 200 189 200 169 q 210 217 200 207 q 239 236 219 228 q 553 426 404 303 q 781 669 703 549 q 546 643 629 643 q 292 704 379 643 q 271 746 271 721 q 283 772 271 761 q 311 783 296 783 q 335 776 324 783 q 428 739 375 750 q 568 728 482 728 q 799 761 639 728 q 789 931 793 864 q 772 976 786 957 q 729 1001 757 994 q 699 1047 699 1013 q 711 1071 699 1061 q 740 1081 724 1081 q 831 1040 792 1081 q 876 947 871 1000 q 886 781 885 825 q 1107 842 1029 815 q 1119 844 1113 844 z "},"ォ":{"ha":1389,"x_min":308,"x_max":1058,"o":"m 1017 565 q 1046 556 1033 565 q 1058 531 1058 547 q 1051 503 1058 515 q 1029 488 1043 492 q 849 438 949 460 q 854 164 854 263 q 844 -76 854 10 q 831 -102 842 -92 q 803 -114 819 -112 q 782 -108 793 -114 q 767 -93 771 -101 q 710 -33 746 -58 q 644 0 675 -8 q 615 46 615 10 q 627 67 615 58 q 651 75 639 75 q 665 72 660 75 q 768 15 725 56 q 771 176 771 63 q 769 328 771 278 q 594 158 699 240 q 375 22 490 75 q 349 15 358 15 q 321 28 333 15 q 308 57 308 40 q 338 97 308 89 q 571 234 461 144 q 743 415 681 324 q 578 397 642 397 q 462 409 511 397 q 376 447 413 421 q 360 481 360 458 q 371 508 360 497 q 399 519 382 519 q 421 513 413 519 q 581 474 482 474 q 765 501 638 474 l 758 624 q 746 654 757 642 q 717 671 735 667 q 696 688 704 675 q 688 714 688 700 q 702 740 688 731 q 735 749 717 749 q 804 716 774 749 q 838 640 835 683 q 844 519 843 575 q 1007 565 938 540 l 1017 565 z "},"カ":{"ha":1389,"x_min":215,"x_max":1044,"o":"m 976 811 q 1026 791 1007 811 q 1044 747 1044 771 q 1024 546 1044 668 q 956 301 1004 424 q 829 108 907 179 q 797 96 814 96 q 773 103 783 96 q 760 124 763 111 q 676 224 750 167 q 654 261 654 243 q 665 285 656 275 q 689 294 675 294 q 708 289 701 294 q 804 207 768 261 q 894 384 861 279 q 941 583 928 489 q 954 728 954 676 q 706 694 904 726 q 633 395 679 515 q 506 177 588 275 q 285 -36 425 79 q 258 -44 276 -44 q 225 -31 238 -44 q 215 -1 215 -17 q 235 31 215 18 q 438 223 367 139 q 552 413 510 307 q 619 681 594 518 q 396 651 439 651 q 310 665 347 651 q 243 713 274 679 q 231 744 231 725 q 242 774 231 763 q 271 786 253 786 q 299 775 285 786 q 401 735 339 735 q 631 764 443 735 q 638 861 638 829 q 619 948 638 921 q 561 985 600 975 q 529 1035 529 994 q 540 1059 529 1050 q 567 1068 551 1068 q 589 1067 583 1068 q 689 1008 656 1053 q 722 863 722 964 q 717 778 722 821 q 976 811 933 811 z "}}}
